<?xml version="1.0" standalone="no"?>
<!DOCTYPE svg PUBLIC "-//W3C//DTD SVG 20010904//EN"
 "http://www.w3.org/TR/2001/REC-SVG-20010904/DTD/svg10.dtd">
<svg version="1.0" xmlns="http://www.w3.org/2000/svg"
 width="512.000000pt" height="512.000000pt" viewBox="0 0 512.000000 512.000000"
 preserveAspectRatio="xMidYMid meet">

<g transform="translate(0.000000,512.000000) scale(0.100000,-0.100000)"
fill="#000000" stroke="none">
<path d="M3973 5106 c-323 -62 -577 -256 -717 -547 -82 -169 -89 -211 -94
-551 -2 -164 -7 -298 -10 -298 -4 0 -169 86 -367 191 -410 217 -424 224 -466
215 -45 -9 -1522 -793 -1563 -829 -37 -35 -725 -1120 -744 -1176 -19 -53 -14
-103 14 -159 61 -122 209 -166 331 -97 25 14 47 25 49 25 2 0 4 -153 4 -339
l0 -340 26 -20 c35 -27 57 -26 91 3 l28 24 3 457 3 457 256 406 c140 224 265
417 277 429 19 19 1228 663 1245 663 4 0 286 -147 626 -328 l619 -327 268
-425 268 -424 0 -803 0 -803 -425 0 -425 0 0 520 0 520 84 0 c70 0 88 4 117
23 58 38 69 74 69 222 0 148 -11 184 -69 222 l-34 23 -456 0 c-495 0 -491 0
-505 -55 -7 -29 15 -79 39 -89 9 -3 210 -6 446 -6 l429 0 0 -95 0 -95 -1050 0
-1050 0 0 95 0 95 464 0 c255 0 472 3 481 6 24 10 46 60 39 89 -14 56 -7 55
-539 55 -471 0 -491 -1 -523 -20 -62 -38 -72 -68 -72 -225 0 -122 3 -144 20
-173 33 -54 74 -72 163 -72 l77 0 0 -520 0 -520 -419 0 -420 0 -3 205 c-3 195
-4 206 -25 226 -27 27 -75 29 -103 4 -19 -18 -20 -30 -20 -438 0 -377 2 -422
17 -448 38 -64 -141 -59 2335 -59 2125 0 2255 1 2288 18 20 10 42 32 52 52 17
33 18 154 18 2091 0 2272 4 2141 -64 2320 -49 130 -118 240 -216 340 -133 135
-281 221 -468 270 -100 27 -299 34 -399 15z m387 -166 c97 -28 229 -97 307
-160 168 -138 281 -355 299 -572 l7 -78 -832 0 -831 0 0 53 c1 204 122 448
294 589 119 98 254 162 396 187 86 16 273 5 360 -19z m610 -1385 l0 -425 -469
0 -468 0 -49 75 c-59 93 -70 100 -411 280 l-263 138 0 178 0 179 830 0 830 0
0 -425z m-1896 24 c396 -210 731 -391 743 -402 20 -20 665 -1034 699 -1100 18
-34 11 -60 -23 -87 -36 -28 -77 -26 -112 8 -16 15 -174 258 -351 540 -196 311
-336 524 -356 540 -45 37 -1282 690 -1322 698 -28 6 -105 -33 -654 -322 -673
-354 -680 -358 -719 -400 -15 -16 -169 -256 -344 -534 -175 -278 -325 -513
-334 -523 -10 -10 -33 -20 -52 -23 -28 -5 -41 -1 -67 21 -18 15 -32 36 -32 48
0 26 689 1122 718 1143 40 28 1457 774 1471 774 7 0 338 -171 735 -381z m1896
-1019 l0 -420 -157 0 -158 1 -240 380 c-132 210 -251 399 -264 420 l-23 39
421 0 421 0 0 -420z m0 -995 l0 -425 -347 2 -348 3 -3 368 c-1 202 0 367 4
367 3 0 19 -9 34 -20 108 -77 286 -28 344 95 l17 35 149 0 150 0 0 -425z
m-1980 -29 c-8 -7 -158 -142 -333 -300 l-318 -285 -297 267 c-163 148 -313
282 -332 300 l-35 31 665 1 c566 0 662 -2 650 -14z m-1100 -383 c182 -163 330
-300 330 -304 0 -7 -647 -592 -661 -597 -5 -2 -9 246 -9 597 0 331 2 601 5
601 3 0 154 -134 335 -297z m1228 -602 l-3 -300 -328 296 c-180 162 -326 300
-324 306 2 6 149 142 328 303 l324 292 3 -299 c1 -165 1 -434 0 -598z m1852
19 l0 -420 -350 0 -350 0 0 420 0 420 350 0 350 0 0 -420z m-2295 -125 l322
-290 -328 -3 c-181 -1 -477 -1 -659 0 l-329 3 322 292 c177 161 328 291 336
290 8 -1 159 -132 336 -292z m-1275 -190 l0 -105 -420 0 -420 0 0 105 0 105
420 0 420 0 0 -105z m2720 0 l0 -105 -425 0 -425 0 0 98 c0 54 3 102 7 105 3
4 195 7 425 7 l418 0 0 -105z"/>
<path d="M2280 3250 c-120 -14 -224 -66 -308 -154 -98 -102 -143 -213 -143
-356 0 -284 224 -509 506 -510 287 0 515 228 515 515 -1 303 -267 539 -570
505z m135 -155 c57 -9 149 -61 191 -108 20 -22 48 -65 63 -96 22 -48 26 -69
26 -151 0 -84 -3 -102 -28 -152 -36 -74 -101 -139 -175 -175 -50 -25 -68 -28
-152 -28 -82 0 -103 4 -151 26 -75 36 -130 87 -166 156 -38 72 -44 100 -44
183 0 98 31 172 100 240 31 31 78 67 104 79 48 23 134 41 172 35 11 -2 38 -6
60 -9z"/>
</g>
</svg>
