<?xml version="1.0" standalone="no"?>
<!DOCTYPE svg PUBLIC "-//W3C//DTD SVG 20010904//EN"
 "http://www.w3.org/TR/2001/REC-SVG-20010904/DTD/svg10.dtd">
<svg version="1.0" xmlns="http://www.w3.org/2000/svg"
 width="512.000000pt" height="512.000000pt" viewBox="0 0 512.000000 512.000000"
 preserveAspectRatio="xMidYMid meet">

<g transform="translate(0.000000,512.000000) scale(0.100000,-0.100000)"
fill="#000000" stroke="none">
<path d="M3757 5100 c-19 -15 -57 -82 -114 -200 l-85 -178 -179 -87 c-176 -85
-219 -116 -219 -156 0 -18 -27 -19 -857 -19 -472 0 -868 -3 -881 -6 -15 -4
-189 -204 -476 -548 -249 -298 -461 -554 -471 -569 -36 -56 -27 -71 296 -479
166 -211 309 -391 318 -401 14 -16 11 -25 -27 -103 l-43 -86 -183 -88 c-109
-52 -190 -98 -200 -112 -20 -28 -21 -87 -2 -114 8 -11 98 -60 199 -110 l185
-89 93 -188 c95 -193 113 -217 168 -217 56 0 71 19 166 215 86 176 96 192 131
208 30 15 39 16 49 5 7 -7 205 -256 440 -553 234 -297 436 -545 448 -552 28
-16 66 -16 94 0 12 7 477 587 1033 1290 781 987 1013 1286 1017 1312 4 24 0
43 -13 62 -9 16 -154 191 -321 390 -167 199 -303 368 -303 375 0 7 13 35 28
62 26 48 31 51 212 140 176 87 186 93 199 129 13 34 12 42 -3 73 -15 32 -36
45 -203 126 l-186 91 -87 181 c-48 100 -94 187 -103 194 -30 26 -89 26 -120 2z
m268 -579 c58 -28 105 -53 105 -55 0 -3 -47 -28 -104 -55 l-105 -49 -54 -108
-54 -108 -54 104 -54 105 -107 55 -107 55 107 55 107 55 54 106 55 106 53
-108 53 -108 105 -50z m-2015 -269 c0 -11 -267 -852 -272 -858 -3 -2 -219 -3
-481 -2 l-476 3 360 433 361 432 254 0 c140 0 254 -3 254 -8z m1019 -414 c74
-233 136 -429 138 -435 4 -10 -121 -13 -607 -13 -486 0 -611 3 -607 13 2 6 64
202 138 435 l133 422 336 0 336 0 133 -422z m473 398 l54 -24 83 -173 c46 -96
93 -184 104 -196 43 -47 133 -34 159 23 6 13 15 23 20 22 5 -2 101 -114 213
-248 l204 -245 -476 -3 c-262 -1 -478 0 -481 2 -5 6 -272 847 -272 858 0 5 76
8 169 8 156 0 173 -2 223 -24z m-1476 -2026 c161 -536 292 -976 290 -977 -1
-1 -117 144 -258 322 l-257 324 58 31 c79 42 98 87 66 150 -12 24 -51 47 -203
120 l-187 91 -90 186 c-49 102 -98 191 -109 199 -27 18 -86 18 -113 -1 -20
-14 -23 -12 -61 33 -55 66 -376 474 -386 490 -6 10 89 12 475 10 l483 -3 292
-975z m1144 965 c0 -9 -31 -121 -70 -249 -38 -128 -70 -246 -70 -263 0 -19 10
-44 26 -62 21 -26 33 -31 67 -31 77 1 80 7 177 326 l87 289 482 3 c407 2 481
0 474 -12 -12 -21 -1537 -1945 -1540 -1943 -1 1 36 128 83 282 76 252 84 284
74 316 -12 44 -47 69 -95 69 -71 0 -79 -18 -195 -407 -58 -194 -107 -353 -110
-353 -6 0 -611 2019 -610 2038 0 9 129 12 610 12 542 0 610 -2 610 -15z
m-1835 -945 l55 -110 105 -52 c58 -29 105 -55 105 -59 0 -3 -43 -26 -96 -49
-52 -24 -105 -55 -117 -70 -12 -14 -39 -65 -61 -113 -21 -48 -41 -87 -45 -87
-3 0 -31 48 -61 107 l-55 107 -109 54 -109 53 112 54 112 54 52 110 c29 61 53
111 54 111 2 0 28 -50 58 -110z"/>
<path d="M2929 2301 c-42 -43 -37 -112 10 -148 20 -15 86 -17 113 -2 32 17 51
74 38 115 -23 70 -108 88 -161 35z"/>
<path d="M3684 1306 c-11 -8 -60 -98 -109 -199 l-90 -185 -188 -93 c-196 -96
-217 -113 -217 -173 0 -48 43 -80 226 -167 l177 -84 87 -181 c89 -185 118
-224 167 -224 61 0 78 22 174 218 l91 187 176 85 c97 47 187 95 199 107 28 27
31 87 6 122 -10 15 -88 58 -200 112 l-184 89 -88 183 c-54 112 -98 191 -112
201 -29 20 -88 21 -115 2z m277 -591 l112 -53 -112 -56 -111 -56 -52 -105
c-29 -58 -55 -105 -58 -105 -3 0 -23 39 -45 86 -21 48 -49 99 -62 114 -12 15
-65 47 -118 70 -52 24 -95 46 -95 49 0 3 48 31 108 61 l107 55 53 110 54 110
53 -113 54 -113 112 -54z"/>
</g>
</svg>
