<?xml version="1.0" standalone="no"?>
<!DOCTYPE svg PUBLIC "-//W3C//DTD SVG 20010904//EN"
 "http://www.w3.org/TR/2001/REC-SVG-20010904/DTD/svg10.dtd">
<svg version="1.0" xmlns="http://www.w3.org/2000/svg"
 width="512.000000pt" height="512.000000pt" viewBox="0 0 512.000000 512.000000"
 preserveAspectRatio="xMidYMid meet">

<g transform="translate(0.000000,512.000000) scale(0.100000,-0.100000)"
fill="#000000" stroke="none">
<path d="M1248 4860 c-293 -47 -529 -249 -628 -540 -34 -100 -40 -298 -11
-410 71 -282 281 -497 558 -572 119 -31 289 -29 408 6 264 79 462 278 537 542
32 113 32 297 0 408 -47 162 -145 309 -270 406 -81 63 -204 124 -292 145 -82
19 -228 27 -302 15z m338 -137 c199 -75 341 -217 412 -415 34 -96 42 -267 17
-373 -69 -298 -344 -515 -649 -515 -187 1 -340 63 -471 193 -142 142 -200 280
-200 477 0 198 55 330 195 471 146 147 285 202 495 196 104 -4 131 -8 201 -34z"/>
<path d="M1284 4650 c-173 -26 -343 -145 -421 -295 -59 -113 -79 -259 -52
-387 47 -226 252 -412 484 -437 295 -33 559 156 620 445 18 87 18 141 0 229
-61 289 -345 490 -631 445z m191 -114 c309 -82 444 -438 268 -703 -131 -197
-402 -261 -609 -142 -67 38 -155 133 -188 203 -80 169 -49 366 79 504 94 101
203 150 335 151 36 1 88 -5 115 -13z"/>
<path d="M1327 4372 c-14 -15 -17 -42 -17 -160 0 -176 -3 -172 125 -172 98 0
125 11 125 49 0 36 -23 50 -85 53 l-60 3 -3 110 c-2 89 -6 112 -19 123 -24 17
-47 15 -66 -6z"/>
<path d="M2950 4583 c-33 -12 -40 -37 -41 -147 -1 -117 -7 -142 -52 -218 -51
-84 -70 -154 -75 -269 -4 -106 12 -203 40 -236 8 -10 -25 -13 -161 -13 l-171
0 -16 -25 c-22 -33 -13 -137 15 -194 25 -48 80 -94 130 -110 28 -8 293 -11
940 -11 995 0 940 -3 1010 63 49 47 71 100 71 178 0 99 -1 99 -203 99 l-166 0
-3 318 c-3 359 -2 351 -85 392 -39 20 -56 21 -227 18 -205 -3 -215 -6 -263
-78 -23 -32 -23 -38 -23 -341 l0 -309 -149 0 -150 0 22 48 c19 40 22 64 22
172 0 144 -13 194 -79 305 l-41 70 -5 132 c-3 89 -9 136 -18 145 -13 13 -291
23 -322 11z m232 -198 c5 -92 7 -100 62 -208 33 -67 61 -136 67 -172 20 -108
-3 -229 -53 -282 -20 -22 -29 -23 -158 -23 -129 0 -138 1 -158 23 -50 53 -75
184 -53 287 6 30 36 105 67 166 53 106 56 115 61 207 l6 97 77 0 77 0 5 -95z
m978 -84 c6 -12 10 -129 10 -310 l0 -291 -200 0 -200 0 0 294 c0 254 2 297 16
310 13 13 45 16 189 16 162 0 175 -1 185 -19z m372 -731 c-4 -37 -22 -68 -51
-87 -24 -17 -85 -18 -891 -21 -476 -2 -884 0 -908 3 -57 8 -101 48 -109 98
l-6 37 984 -2 984 -3 -3 -25z"/>
<path d="M1310 2874 c-158 -41 -305 -162 -373 -304 -51 -108 -57 -153 -57
-420 l0 -238 -172 -4 c-154 -3 -178 -6 -222 -26 -75 -34 -129 -84 -166 -154
-31 -57 -35 -72 -38 -164 -3 -74 0 -117 12 -157 28 -98 112 -185 208 -218 l53
-18 5 -379 5 -379 30 -49 c19 -30 49 -60 79 -79 l49 -30 1071 -3 c782 -2 1085
0 1125 8 63 14 125 64 152 125 17 36 19 74 19 412 l0 373 28 6 c77 19 159 77
201 143 97 151 74 380 -50 496 -83 78 -118 88 -316 93 l-173 4 0 226 c0 261
-10 328 -66 441 -69 140 -220 259 -375 296 -92 21 -947 21 -1029 -1z m993 -99
c163 -34 299 -158 348 -316 17 -53 19 -93 19 -312 l0 -252 -55 -29 c-70 -36
-128 -102 -155 -172 -16 -45 -20 -79 -20 -185 0 -72 -3 -129 -7 -127 -5 2 -30
15 -58 29 l-50 24 -495 0 -495 0 -56 -26 -57 -27 -4 137 c-3 124 -6 141 -31
193 -34 70 -93 130 -157 160 l-49 23 -1 226 c0 125 4 251 10 280 15 82 71 187
132 247 58 58 165 117 238 131 25 5 232 9 460 10 325 0 430 -2 483 -14z
m-1306 -1005 c39 -22 61 -44 83 -83 l30 -52 0 -637 0 -638 -183 0 c-200 0
-213 3 -242 60 -13 24 -15 89 -15 390 l0 360 74 0 c78 0 106 13 106 49 0 40
-29 49 -165 53 -109 3 -137 7 -170 25 -82 43 -123 110 -132 212 -10 123 38
225 129 270 39 19 60 21 238 21 l195 0 52 -30z m2138 11 c94 -43 134 -115 135
-242 0 -74 -4 -93 -27 -140 -31 -60 -86 -105 -149 -119 -21 -5 -89 -10 -149
-10 -119 0 -135 -6 -135 -50 0 -42 17 -50 102 -50 l78 0 0 -356 c0 -390 -2
-403 -59 -437 -25 -14 -57 -17 -210 -17 l-182 0 3 637 c3 632 3 638 25 678 11
22 34 52 50 67 54 52 82 57 288 57 163 1 196 -2 230 -18z m-772 -484 c74 -56
72 -43 75 -514 l3 -423 -611 0 -610 0 0 215 0 215 555 0 555 0 16 25 c15 23
15 27 0 50 l-16 25 -555 0 -555 0 0 149 c0 160 6 190 48 235 53 56 45 56 573
53 l486 -2 36 -28z"/>
<path d="M4352 2315 c-78 -66 -203 -267 -254 -409 l-32 -89 -35 44 c-110 136
-260 269 -305 269 -40 0 -54 -33 -72 -170 -41 -309 13 -562 155 -737 50 -60
50 -61 29 -75 -17 -11 -21 -23 -20 -59 4 -91 63 -635 72 -663 16 -46 58 -94
103 -118 38 -21 59 -23 239 -26 227 -4 287 4 341 49 69 57 74 75 112 446 30
298 33 340 20 360 -8 12 -26 23 -40 25 l-25 3 41 50 c50 61 111 187 133 275
21 80 31 253 21 344 -7 66 -28 106 -56 106 -6 0 -54 -44 -107 -98 -54 -54
-138 -126 -189 -161 -174 -118 -210 -163 -165 -204 28 -25 46 -21 98 23 25 23
78 63 118 90 39 26 98 71 131 99 l60 50 3 -64 c4 -85 -28 -219 -74 -305 -37
-71 -91 -133 -157 -181 -37 -27 -47 -29 -127 -29 l-87 0 -12 106 c-14 120 -48
248 -92 345 -29 63 -30 69 -19 127 22 121 85 264 168 382 l46 65 23 -95 c12
-52 26 -135 29 -185 7 -96 21 -125 59 -125 36 0 45 20 45 99 0 192 -81 461
-139 461 -5 0 -23 -11 -39 -25z m-501 -412 c95 -99 155 -185 212 -298 65 -129
107 -286 107 -397 l0 -48 -52 0 c-71 0 -130 31 -203 104 -116 117 -165 267
-165 501 0 143 7 215 20 215 4 0 41 -35 81 -77z m753 -885 c-2 -18 -16 -148
-30 -288 -14 -140 -27 -263 -30 -272 -3 -9 -19 -29 -35 -43 l-31 -25 -215 0
-215 0 -28 29 c-16 16 -31 39 -34 52 -7 30 -56 519 -56 554 l0 25 339 0 340 0
-5 -32z"/>
</g>
</svg>
