<svg width="33" height="32" viewBox="0 0 33 32" fill="none" xmlns="http://www.w3.org/2000/svg">
<path d="M9.56249 13.0635C7.63263 13.0635 6.0625 11.4933 6.0625 9.56348C6.0625 7.63382 7.63263 6.06348 9.56249 6.06348C11.4924 6.06348 13.0625 7.63382 13.0625 9.56348C13.0625 11.4933 11.4924 13.0635 9.56249 13.0635ZM9.56249 6.93848C8.11477 6.93848 6.9375 8.11575 6.9375 9.56348C6.9375 11.0112 8.11477 12.1885 9.56249 12.1885C11.0102 12.1885 12.1875 11.0112 12.1875 9.56348C12.1875 8.11575 11.0102 6.93848 9.56249 6.93848Z" fill="#747474"/>
<path d="M4.75 10.001H3.4375C3.19568 10.001 3 9.80551 3 9.56348C3 9.32166 3.19568 9.12598 3.4375 9.12598H4.75C4.99203 9.12598 5.18749 9.32166 5.18749 9.56348C5.18749 9.80551 4.99203 10.001 4.75 10.001Z" fill="#747474"/>
<path d="M15.6875 10.001H14.375C14.1332 10.001 13.9375 9.80551 13.9375 9.56348C13.9375 9.32166 14.1332 9.12598 14.375 9.12598H15.6875C15.9295 9.12598 16.125 9.32166 16.125 9.56348C16.125 9.80551 15.9295 10.001 15.6875 10.001Z" fill="#747474"/>
<path d="M5.23258 14.331C5.12064 14.331 5.00849 14.2883 4.92326 14.2028C4.75214 14.0319 4.75214 13.7553 4.92326 13.5842L5.85123 12.6564C6.02234 12.4853 6.29877 12.4853 6.46988 12.6564C6.64099 12.8273 6.64099 13.104 6.46988 13.2748L5.54191 14.2028C5.45624 14.2887 5.34409 14.331 5.23258 14.331Z" fill="#747474"/>
<path d="M12.966 6.59757C12.8538 6.59757 12.7419 6.55463 12.6567 6.4694C12.4855 6.29829 12.4855 6.02186 12.6567 5.85075L13.5844 4.92277C13.7555 4.75166 14.0322 4.75166 14.2031 4.92277C14.3742 5.09388 14.3742 5.37031 14.2031 5.54142L13.2751 6.4694C13.1899 6.55463 13.0779 6.59757 12.966 6.59757Z" fill="#747474"/>
<path d="M9.5625 16.125C9.32068 16.125 9.125 15.9295 9.125 15.6875V14.375C9.125 14.1332 9.32068 13.9375 9.5625 13.9375C9.80453 13.9375 10 14.1332 10 14.375V15.6875C10 15.9295 9.80453 16.125 9.5625 16.125Z" fill="#747474"/>
<path d="M9.5625 5.1875C9.32068 5.1875 9.125 4.99203 9.125 4.75V3.4375C9.125 3.19568 9.32068 3 9.5625 3C9.80453 3 10 3.19568 10 3.4375V4.75C10 4.99203 9.80453 5.1875 9.5625 5.1875Z" fill="#747474"/>
<path d="M13.8928 14.3305C13.7808 14.3305 13.6689 14.2877 13.5834 14.2023L12.6557 13.2739C12.4846 13.103 12.4846 12.8263 12.6557 12.6554C12.8266 12.4843 13.1032 12.4843 13.2741 12.6554L14.2021 13.5836C14.3732 13.7547 14.3732 14.0312 14.2021 14.2023C14.1169 14.2882 14.0049 14.3305 13.8928 14.3305Z" fill="#747474"/>
<path d="M6.15958 6.59757C6.04743 6.59757 5.93549 6.55463 5.85026 6.4694L4.92228 5.54142C4.75117 5.37031 4.75117 5.09388 4.92228 4.92277C5.09339 4.75166 5.36982 4.75166 5.54093 4.92277L6.46891 5.85075C6.6398 6.02186 6.6398 6.29829 6.46891 6.4694C6.38303 6.55463 6.27152 6.59757 6.15958 6.59757Z" fill="#747474"/>
<path d="M29.25 29.251C29.1381 29.251 29.0262 29.2082 28.9407 29.1228C28.8634 29.0454 21.1441 21.376 17.0001 21.376C12.8563 21.376 5.13703 29.0454 5.05948 29.1228C4.88837 29.2939 4.61194 29.2939 4.44083 29.1228C4.26972 28.9517 4.26972 28.6752 4.44083 28.5041C4.76767 28.1773 12.4957 20.501 17.0001 20.501C21.5045 20.501 29.2325 28.1773 29.5594 28.5041C29.7305 28.6752 29.7305 28.9517 29.5594 29.1228C29.4741 29.2082 29.362 29.251 29.25 29.251Z" fill="#747474"/>
<path d="M16.5624 29.251C16.4618 29.251 16.3603 29.2164 16.2781 29.1457C16.0944 28.9884 16.0728 28.7124 16.2309 28.5291C16.3293 28.4123 18.6392 25.6019 16.6024 21.1196C16.5022 20.8996 16.5991 20.6403 16.8192 20.5405C17.0416 20.4388 17.2992 20.5381 17.3985 20.7573C19.6753 25.7664 17.0095 28.9645 16.895 29.0978C16.8083 29.1995 16.6855 29.251 16.5624 29.251Z" fill="#747474"/>
<path d="M3.43743 24.4385C3.33553 24.4385 3.2332 24.403 3.15053 24.3315C2.9681 24.1725 2.94887 23.8961 3.10717 23.7141C3.28341 23.5116 7.45973 18.751 10.4374 18.751C11.7001 18.751 13.3175 19.5136 15.2448 21.0186C15.4355 21.1673 15.4691 21.4422 15.3204 21.6323C15.1717 21.8227 14.8968 21.8568 14.7067 21.7082C12.9614 20.3461 11.4852 19.626 10.4374 19.626C8.29371 19.626 4.89561 22.9912 3.76769 24.2881C3.68117 24.3878 3.55962 24.4385 3.43743 24.4385Z" fill="#747474"/>
<path d="M10.4375 24.4062C10.3597 24.4062 10.2818 24.3854 10.21 24.3423C10.0036 24.2163 9.93826 23.9471 10.0639 23.7407C10.1111 23.6615 11.2281 21.7474 10.0463 19.3841C9.93826 19.1679 10.0258 18.9049 10.242 18.7969C10.458 18.6892 10.7205 18.7763 10.8291 18.9925C12.2334 21.8017 10.8703 24.0994 10.8115 24.1962C10.7293 24.3314 10.5849 24.4062 10.4375 24.4062Z" fill="#747474"/>
<path d="M30.5626 24.4385C30.4406 24.4385 30.3188 24.3878 30.2327 24.2881C29.1035 22.9912 25.7046 19.626 23.5626 19.626C22.5148 19.626 21.0386 20.3461 19.2935 21.7082C19.1024 21.8568 18.8281 21.8227 18.6796 21.6323C18.5309 21.4416 18.5647 21.1673 18.7554 21.0186C20.6825 19.514 22.3005 18.751 23.5626 18.751C26.5403 18.751 30.7166 23.5116 30.8928 23.7141C31.0513 23.8961 31.0321 24.1725 30.8497 24.3308C30.767 24.403 30.6645 24.4385 30.5626 24.4385Z" fill="#747474"/>
<path d="M23.6075 24.4383C23.4973 24.4383 23.387 24.3968 23.3022 24.3142C23.129 24.1456 23.1258 23.8683 23.2943 23.6955C23.3516 23.6346 24.7346 22.1209 23.1828 19.4053C23.0627 19.1958 23.1358 18.9285 23.3454 18.8087C23.5549 18.6878 23.8224 18.7617 23.9422 18.9712C25.8339 22.282 23.9995 24.2253 23.9202 24.3063C23.835 24.3941 23.7209 24.4383 23.6075 24.4383Z" fill="#747474"/>
<path d="M23.5625 19.626C23.3207 19.626 23.125 19.4305 23.125 19.1885V13.501C23.125 13.2592 23.3207 13.0635 23.5625 13.0635C23.8045 13.0635 24 13.2592 24 13.501V19.1885C24 19.4305 23.8045 19.626 23.5625 19.626Z" fill="#747474"/>
<path d="M24.875 16.5635C24.6332 16.5635 24.4375 16.368 24.4375 16.126V14.376C24.4375 14.1342 24.6332 13.9385 24.875 13.9385C25.117 13.9385 25.3125 14.1342 25.3125 14.376V16.126C25.3125 16.368 25.117 16.5635 24.875 16.5635Z" fill="#747474"/>
<path d="M24 17.4385C23.7582 17.4385 23.5625 17.243 23.5625 17.001C23.5625 16.7592 23.7582 16.5635 24 16.5635C24.2416 16.5635 24.4375 16.3676 24.4375 16.126C24.4375 15.8842 24.6332 15.6885 24.875 15.6885C25.117 15.6885 25.3125 15.8842 25.3125 16.126C25.3125 16.8497 24.7238 17.4385 24 17.4385Z" fill="#747474"/>
<path d="M24 17.4385H23.5625C23.3207 17.4385 23.125 17.243 23.125 17.001C23.125 16.7592 23.3207 16.5635 23.5625 16.5635H24C24.242 16.5635 24.4375 16.7592 24.4375 17.001C24.4375 17.243 24.242 17.4385 24 17.4385Z" fill="#747474"/>
<path d="M22.25 15.6885C22.0082 15.6885 21.8125 15.493 21.8125 15.251V14.376C21.8125 14.1342 22.0082 13.9385 22.25 13.9385C22.492 13.9385 22.6875 14.1342 22.6875 14.376V15.251C22.6875 15.493 22.492 15.6885 22.25 15.6885Z" fill="#747474"/>
<path d="M23.125 16.5635C22.4015 16.5635 21.8125 15.9747 21.8125 15.251C21.8125 15.0092 22.0082 14.8135 22.25 14.8135C22.492 14.8135 22.6875 15.0092 22.6875 15.251C22.6875 15.4926 22.8836 15.6885 23.125 15.6885C23.367 15.6885 23.5625 15.8842 23.5625 16.126C23.5625 16.368 23.367 16.5635 23.125 16.5635Z" fill="#747474"/>
<path d="M23.5625 16.5635H23.125C22.8832 16.5635 22.6875 16.368 22.6875 16.126C22.6875 15.8842 22.8832 15.6885 23.125 15.6885H23.5625C23.8045 15.6885 24 15.8842 24 16.126C24 16.368 23.8045 16.5635 23.5625 16.5635Z" fill="#747474"/>
</svg>
