<svg width="32" height="32" viewBox="0 0 32 32" fill="none" xmlns="http://www.w3.org/2000/svg">
<path d="M24.757 5.5275L24.9884 4.90565C25.0725 4.6793 24.9572 4.42735 24.7309 4.34324C24.5054 4.25957 24.2534 4.37442 24.1685 4.60077L23.9393 5.21666C19.5346 3.78335 14.7179 6.04353 13.0495 10.4208C12.9648 10.644 13.0801 10.9117 13.3249 10.993C13.5294 11.0621 13.7558 10.9691 13.8536 10.7752C13.9488 10.5869 14.8896 10.4203 16.2804 10.9503C17.6755 11.482 18.2673 12.2336 18.2132 12.4372C18.1779 12.5687 18.2231 12.8151 18.4402 12.9326C18.6736 13.0592 18.9313 12.9584 19.0357 12.7506C19.1226 12.5787 19.9181 12.4303 21.1147 12.8086L18.3443 20.2541C18.2058 20.2496 18.069 20.2416 17.9287 20.2416C14.0057 20.2416 10.7643 21.9838 10.1576 24.3034C10.0882 24.2654 10.0178 24.2299 9.95091 24.1844C9.75147 24.0473 9.47945 24.1003 9.34366 24.2997C9.20743 24.4991 9.25911 24.7712 9.45894 24.9069C10.6114 25.693 12.1244 25.665 13.2386 24.9074C14.0747 24.3386 15.1987 24.3386 16.034 24.9074C17.1789 25.685 18.6624 25.6859 19.817 24.9083C20.6626 24.3386 21.748 24.3322 22.5911 24.8916C23.5513 25.6336 25.203 25.7418 26.4023 24.91C26.6005 24.7725 26.65 24.5 26.5121 24.3014C26.3754 24.1033 26.1022 24.0533 25.9036 24.1917C25.8415 24.2348 25.7722 24.2698 25.7047 24.307C25.1673 22.2533 22.5662 20.6562 19.2554 20.3141L21.93 13.1257C22.9924 13.6311 23.4477 14.2347 23.3999 14.4139C23.3594 14.566 23.4004 14.7362 23.5505 14.862C23.7925 15.0586 24.1048 14.9595 24.2224 14.7278C24.3176 14.5391 25.2584 14.3725 26.6492 14.9025C28.0443 15.4341 28.6362 16.1857 28.582 16.3894C28.5177 16.63 28.6408 16.8135 28.8135 16.8953C29.0243 16.9951 29.3091 16.9436 29.4177 16.6596C31.0564 12.3599 29.0989 7.43183 24.757 5.5275ZM24.8803 24.5874C24.2642 24.6796 23.6425 24.5496 23.1064 24.184C21.9637 23.4072 20.4815 23.4077 19.3285 24.1832C18.4728 24.7592 17.3732 24.7601 16.5259 24.184C15.3964 23.4154 13.8779 23.4154 12.7466 24.184C12.2314 24.5342 11.5957 24.6723 10.9838 24.5824C11.5744 22.7212 14.5307 21.1162 17.9287 21.1162C21.4403 21.1162 24.4311 22.6427 24.8803 24.5874ZM23.7816 13.354C22.9497 12.4693 21.199 11.6581 19.4562 11.7044C20.0923 10.2329 22.5587 5.5998 24.0434 6.16877C25.5307 6.73517 24.2846 11.8378 23.7816 13.354ZM16.5921 10.133C15.8504 9.85027 15.0155 9.6773 14.334 9.72471C15.9474 6.80145 19.2488 5.22382 22.5103 5.75932C20.8619 6.91082 19.4216 9.5747 18.6289 11.421C18.1545 10.8954 17.3785 10.4329 16.5921 10.133ZM28.923 15.2868C28.4435 14.7966 27.7043 14.3687 26.9609 14.0852C26.2426 13.8112 25.3599 13.608 24.5879 13.6923C25.2253 11.7867 25.9256 8.83506 25.4583 6.87692C28.2355 8.6314 29.6749 12.0077 28.923 15.2868Z" fill="#61648A"/>
<path d="M23.0635 27.0558L23.0639 27.0549C22.4827 26.6945 20.9582 25.9763 19.3257 27.0831C18.4754 27.6587 17.3775 27.6587 16.5282 27.0826C15.3807 26.3037 13.8968 26.3029 12.7485 27.0818C12.5487 27.2176 12.4966 27.4891 12.6319 27.6895C12.7677 27.8897 13.0397 27.941 13.2396 27.806C14.0894 27.2295 15.1873 27.2304 16.0371 27.806C17.171 28.576 18.6541 28.5943 19.8193 27.8048C20.9817 27.0178 22.0617 27.4627 22.6027 27.798C22.9104 27.9888 23.2123 27.8283 23.2877 27.5691C23.3478 27.3628 23.2492 27.148 23.0635 27.0558Z" fill="#61648A"/>
<path d="M6.73088 5.82983C5.35287 5.82983 4.23145 6.9512 4.23145 8.32927C4.23145 9.71117 5.35281 10.8351 6.73088 10.8351C8.10895 10.8351 9.23032 9.71117 9.23032 8.32927C9.23032 6.9512 8.1089 5.82983 6.73088 5.82983ZM6.73088 9.96049C5.83499 9.96049 5.10601 9.22855 5.10601 8.32922C5.10601 7.43333 5.83494 6.70434 6.73088 6.70434C7.62683 6.70434 8.35576 7.43327 8.35576 8.32922C8.35576 9.22855 7.62683 9.96049 6.73088 9.96049Z" fill="#61648A"/>
<path d="M6.73123 5.20075C6.97295 5.20075 7.16851 5.00519 7.16851 4.76347V4.0469C7.16851 3.80518 6.97295 3.60962 6.73123 3.60962C6.48951 3.60962 6.29395 3.80518 6.29395 4.0469V4.76347C6.29395 5.00519 6.48956 5.20075 6.73123 5.20075Z" fill="#61648A"/>
<path d="M6.73123 11.4644C6.48951 11.4644 6.29395 11.6599 6.29395 11.9016V12.6182C6.29395 12.8599 6.48951 13.0555 6.73123 13.0555C6.97295 13.0555 7.16851 12.8599 7.16851 12.6182V11.9016C7.16851 11.6599 6.97295 11.4644 6.73123 11.4644Z" fill="#61648A"/>
<path d="M9.56383 6.11809L10.0703 5.61119C10.2411 5.4404 10.2411 5.16324 10.0703 4.99284C9.8995 4.82205 9.62278 4.82205 9.45194 4.99284L8.94547 5.49974C8.77469 5.67053 8.77469 5.94768 8.94547 6.11809C9.11632 6.28888 9.39304 6.28888 9.56383 6.11809Z" fill="#61648A"/>
<path d="M3.89822 10.5473L3.39176 11.0542C3.22097 11.225 3.22097 11.5021 3.39176 11.6725C3.56255 11.8433 3.83927 11.8434 4.01012 11.6725L4.51658 11.1656C4.68737 10.9948 4.68737 10.7177 4.51658 10.5473C4.34573 10.3765 4.06907 10.3765 3.89822 10.5473Z" fill="#61648A"/>
<path d="M9.8623 8.33254C9.8623 8.57426 10.0579 8.76983 10.2996 8.76983H11.0162C11.2579 8.76983 11.4534 8.57426 11.4534 8.33254C11.4534 8.09083 11.2579 7.89526 11.0162 7.89526H10.2996C10.0579 7.89526 9.8623 8.09083 9.8623 8.33254Z" fill="#61648A"/>
<path d="M3.59894 8.33303C3.59894 8.09131 3.40338 7.89575 3.16166 7.89575H2.44509C2.20337 7.89575 2.00781 8.09131 2.00781 8.33303C2.00781 8.57475 2.20337 8.77031 2.44509 8.77031H3.16166C3.40338 8.77031 3.59894 8.5747 3.59894 8.33303Z" fill="#61648A"/>
<path d="M10.0703 11.6721C10.2411 11.5013 10.2411 11.2246 10.0703 11.0537L9.56383 10.5473C9.39304 10.3765 9.11632 10.3765 8.94547 10.5473C8.77469 10.7181 8.77469 10.9948 8.94547 11.1656L9.45194 11.6721C9.62278 11.8429 9.8995 11.8429 10.0703 11.6721Z" fill="#61648A"/>
<path d="M3.89725 6.11858C4.06804 6.28936 4.34476 6.28942 4.5156 6.11858C4.68639 5.94817 4.68639 5.67107 4.5156 5.50022L4.00914 4.99333C3.83835 4.82254 3.56163 4.82254 3.39079 4.99333C3.22 5.16373 3.22 5.44083 3.39079 5.61168L3.89725 6.11858Z" fill="#61648A"/>
</svg>
