<svg width="32" height="32" viewBox="0 0 32 32" fill="none" xmlns="http://www.w3.org/2000/svg">
<path d="M9.53711 5.6006C9.76368 5.6006 9.94727 5.41695 9.94727 5.19044V4.41016C9.94727 4.18364 9.76368 4 9.53711 4C9.31054 4 9.12695 4.18364 9.12695 4.41016V5.19038C9.12695 5.41695 9.31059 5.6006 9.53711 5.6006Z" fill="#747474"/>
<path d="M9.12695 11.5845V12.3647C9.12695 12.5912 9.31054 12.7749 9.53711 12.7749C9.76368 12.7749 9.94727 12.5912 9.94727 12.3647V11.5845C9.94727 11.358 9.76368 11.1743 9.53711 11.1743C9.31054 11.1743 9.12695 11.358 9.12695 11.5845Z" fill="#747474"/>
<path d="M6.98638 6.4172C7.14639 6.57732 7.40611 6.57743 7.56645 6.4172C7.72663 6.25702 7.72663 5.99731 7.56639 5.83713L7.01465 5.28544C6.85453 5.1252 6.59482 5.12526 6.43458 5.28544C6.2744 5.44562 6.2744 5.70533 6.43464 5.86551L6.98638 6.4172Z" fill="#747474"/>
<path d="M12.088 10.3579C11.9277 10.1977 11.6681 10.1977 11.5078 10.3579C11.3477 10.5181 11.3477 10.7778 11.5078 10.938L12.0596 11.4897C12.2198 11.6499 12.4795 11.6499 12.6397 11.4897C12.7999 11.3296 12.7999 11.0699 12.6397 10.9097L12.088 10.3579Z" fill="#747474"/>
<path d="M5.56055 8.79761H6.34083C6.5674 8.79761 6.75099 8.61397 6.75099 8.38745C6.75099 8.16094 6.5674 7.97729 6.34083 7.97729H5.56055C5.33398 7.97729 5.15039 8.16094 5.15039 8.38745C5.15039 8.61397 5.33398 8.79761 5.56055 8.79761Z" fill="#747474"/>
<path d="M12.3242 8.38745C12.3242 8.61397 12.5078 8.79761 12.7344 8.79761H13.5147C13.7412 8.79761 13.9248 8.61397 13.9248 8.38745C13.9248 8.16094 13.7412 7.97729 13.5147 7.97729H12.7344C12.5079 7.97729 12.3242 8.16094 12.3242 8.38745Z" fill="#747474"/>
<path d="M6.98682 10.3579L6.43508 10.9097C6.1758 11.1689 6.36311 11.6099 6.72514 11.6099C6.83009 11.6099 6.93509 11.5699 7.0152 11.4897L7.56695 10.938C7.72713 10.7778 7.72713 10.5181 7.56695 10.3579C7.40671 10.1977 7.14706 10.1977 6.98682 10.3579Z" fill="#747474"/>
<path d="M12.0879 6.4172L12.6397 5.86551C12.7999 5.70533 12.7999 5.44567 12.6397 5.28544C12.4796 5.12526 12.2199 5.1252 12.0597 5.28544L11.5079 5.83713C11.3476 5.99731 11.3476 6.25696 11.5078 6.4172C11.668 6.57738 11.9278 6.57743 12.0879 6.4172Z" fill="#747474"/>
<path d="M29.9989 27.005C29.9687 26.252 29.2667 25.6386 28.4805 25.7675C28.1647 25.1635 29.545 27.9181 23.8747 16.5775L21.9311 12.6903C21.5454 11.9189 20.4449 11.9214 20.0605 12.6903C19.8863 13.0389 18.7494 15.3125 18.5138 15.7837L16.188 11.1322C15.838 10.4319 14.8375 10.4319 14.4874 11.1322L12.5808 14.9454C12.5002 15.1067 12.2693 15.1079 12.1881 14.9454C11.8379 14.2451 10.8375 14.2452 10.4874 14.9454L7.40346 21.1135L7.31989 20.9463C7.06139 20.4294 6.32748 20.4347 6.07165 20.9463V20.9462C6.07165 20.9463 6.07165 20.9462 6.07165 20.9463L2.7717 27.5461H2.41016C2.18359 27.5461 2 27.7297 2 27.9563C2 28.1828 2.18359 28.3664 2.41016 28.3664C2.85307 28.3664 22.6261 28.3664 23.0677 28.3664C23.2943 28.3664 23.4779 28.1828 23.4779 27.9563C23.4779 27.7297 23.2943 27.5461 23.0677 27.5461H18.5242C18.3409 27.5461 18.1936 27.3965 18.196 27.2132C18.1986 27.0334 18.3654 26.8693 18.5602 26.8919C18.8727 26.9281 19.1531 26.7226 19.2119 26.4138C19.2819 26.0476 19.6035 25.7822 19.9762 25.7822C20.2504 25.7822 20.5119 25.9295 20.6527 26.1767C20.7876 26.4137 21.0624 26.5346 21.3216 26.4777C21.3812 26.4646 21.5185 26.4042 21.7072 26.465C22.1868 26.6197 22.2784 26.1885 22.7409 26.2805C23.0631 26.3447 23.373 26.1263 23.4162 25.8034C23.5006 25.1716 24.0451 24.6952 24.6828 24.6952C25.1432 24.6952 25.5702 24.9455 25.7968 25.3483C25.9284 25.582 26.1792 25.7161 26.4348 25.7048C26.4938 25.7021 26.5531 25.6918 26.6111 25.6732C27.0979 25.517 27.6036 25.7757 27.7897 26.225C27.9142 26.5255 28.2437 26.6825 28.5561 26.5902C28.8639 26.4993 29.1671 26.7343 29.1793 27.0378C29.1905 27.3174 28.9681 27.5461 28.6919 27.5461H24.9819C24.7554 27.5461 24.5718 27.7297 24.5718 27.9563C24.5718 28.1828 24.7554 28.3664 24.9819 28.3664H28.6919C29.4343 28.3664 30.0287 27.7509 29.9989 27.005ZM20.7942 13.0571C20.8775 12.8907 21.1144 12.8914 21.1973 13.0571C21.3556 13.3735 22.5511 15.7646 23.0102 16.6829L21.5645 18.16C21.5295 18.1957 21.4725 18.1981 21.4347 18.1655L20.5585 17.4116C20.1674 17.0749 19.5759 17.1277 19.2505 17.5289L18.7808 18.1083C18.7465 18.1508 18.6834 18.1558 18.6426 18.1182L18.3836 17.8785C20.0095 14.6266 19.9676 14.7105 20.7942 13.0571ZM6.69569 21.5324L7.81525 23.7716L7.21976 24.38L6.56324 23.8151C6.2705 23.5632 5.85935 23.5668 5.57542 23.7728L6.69569 21.5324ZM3.68892 27.5461L4.88706 25.1497C5.4749 25.297 5.73833 24.8314 6.04584 24.4521L6.70078 25.0156C7.01906 25.2896 7.49812 25.2685 7.79136 24.9689L8.20343 24.5479L9.70258 27.5461H3.68892ZM12.6326 27.5461H10.6197L7.86201 22.0306L11.2212 15.3123C11.2695 15.2158 11.4061 15.2157 11.4544 15.3123C11.8378 16.079 12.9317 16.0782 13.3147 15.3123L15.2213 11.499C15.2695 11.4025 15.4061 11.4025 15.4544 11.499L18.0553 16.7008C17.8229 17.1655 13.081 26.6494 12.6326 27.5461ZM26.8568 24.8078C26.7233 24.8113 26.5913 24.8296 26.4624 24.8626C26.0788 24.249 25.4046 23.8749 24.6829 23.8749C23.7204 23.8749 22.8871 24.5359 22.6512 25.4486C22.3813 25.4425 22.1093 25.5116 21.8672 25.6582C21.6771 25.6111 21.4766 25.6056 21.2839 25.642C20.9864 25.2191 20.4981 24.9618 19.9763 24.9618C19.2758 24.9618 18.6638 25.4183 18.4542 26.0716C17.8649 26.1073 17.3844 26.5953 17.3758 27.2015V27.2015C17.3743 27.3141 17.3924 27.4407 17.423 27.546H13.5499L18.0016 18.6426L18.0857 18.7204C18.0857 18.7204 18.0857 18.7204 18.0857 18.7204C18.4735 19.079 19.0854 19.0354 19.4182 18.6249L19.8879 18.0456C19.9219 18.0037 19.9829 17.9984 20.0236 18.0334L20.8998 18.7873C21.2647 19.1012 21.8143 19.0777 22.1509 18.7337L23.3984 17.4591L27.0767 24.8156C27.0046 24.8085 26.93 24.8059 26.8568 24.8078Z" fill="#747474"/>
<path d="M9.53706 10.8416C10.4471 10.8416 11.2779 10.3417 11.7053 9.53704C11.8115 9.33699 11.7355 9.08866 11.5354 8.98234C11.3354 8.87603 11.0871 8.95216 10.9808 9.15215C10.6961 9.6882 10.1429 10.0211 9.53706 10.0211C8.63624 10.0211 7.90338 9.28827 7.90338 8.38745C7.90338 7.48664 8.63624 6.75377 9.53706 6.75377C10.1429 6.75377 10.696 7.08671 10.9808 7.62276C11.087 7.82275 11.3353 7.89887 11.5354 7.79256C11.7355 7.6863 11.8116 7.43802 11.7053 7.23787C11.278 6.43319 10.4471 5.93335 9.53706 5.93335C8.18392 5.93335 7.08301 7.03421 7.08301 8.3874C7.08301 9.74059 8.18392 10.8416 9.53706 10.8416Z" fill="#747474"/>
</svg>
