<svg width="64" height="64" viewBox="0 0 64 64" fill="none" xmlns="http://www.w3.org/2000/svg">
<g clip-path="url(#clip0_1324_15828)">
<path d="M59.1913 46.4125L51.7875 42.0938L58.8213 40.07C59.1347 39.9741 59.3978 39.7589 59.5541 39.4708C59.7104 39.1827 59.7473 38.8447 59.6568 38.5297C59.5663 38.2147 59.3557 37.9478 59.0704 37.7865C58.7851 37.6253 58.4478 37.5825 58.1313 37.6675L48.8 40.3512L46.0563 38.75L53.0913 36.7275C53.2498 36.6828 53.3979 36.6072 53.5271 36.505C53.6563 36.4029 53.764 36.2762 53.8441 36.1323C53.9242 35.9884 53.9751 35.8301 53.9938 35.6665C54.0125 35.5028 53.9987 35.3371 53.9531 35.1788C53.9076 35.0206 53.8312 34.8728 53.7284 34.7442C53.6256 34.6155 53.4984 34.5084 53.354 34.4291C53.2097 34.3497 53.0511 34.2997 52.8874 34.2818C52.7237 34.264 52.5581 34.2786 52.4 34.325L43.0688 37.0075L34.4813 32L43.0688 26.9912L52.4 29.6737C52.5125 29.7068 52.6291 29.7236 52.7463 29.7237C53.0483 29.7246 53.3404 29.6162 53.5686 29.4184C53.7968 29.2206 53.9457 28.9469 53.9878 28.6479C54.0299 28.3488 53.9622 28.0447 53.7974 27.7916C53.6326 27.5385 53.3818 27.3537 53.0913 27.2712L46.0563 25.25L48.8 23.65L58.1313 26.3337C58.2435 26.3658 58.3596 26.3822 58.4763 26.3825C58.7775 26.3823 59.0685 26.2734 59.2958 26.0757C59.5231 25.8781 59.6714 25.605 59.7134 25.3067C59.7554 25.0084 59.6882 24.705 59.5243 24.4523C59.3604 24.1996 59.1107 24.0146 58.8213 23.9312L51.7863 21.9075L59.1913 17.5888C59.3381 17.5088 59.4675 17.4001 59.5716 17.2693C59.6757 17.1384 59.7525 16.988 59.7975 16.8269C59.8424 16.6659 59.8546 16.4974 59.8333 16.3315C59.8119 16.1657 59.7575 16.0058 59.6733 15.8613C59.5891 15.7168 59.4767 15.5908 59.3429 15.4905C59.209 15.3902 59.0564 15.3179 58.8941 15.2776C58.7318 15.2374 58.563 15.2302 58.3979 15.2564C58.2327 15.2825 58.0745 15.3416 57.9325 15.43L50.5275 19.75L52.23 12.625C52.2707 12.4645 52.2791 12.2975 52.2547 12.1337C52.2304 11.9699 52.1737 11.8126 52.088 11.6709C52.0023 11.5292 51.8893 11.4059 51.7556 11.3083C51.6219 11.2106 51.4701 11.1405 51.309 11.102C51.148 11.0635 50.9809 11.0574 50.8174 11.084C50.654 11.1106 50.4975 11.1694 50.357 11.2571C50.2164 11.3447 50.0947 11.4593 49.9989 11.5944C49.9031 11.7294 49.8351 11.8822 49.7988 12.0437L47.54 21.4862L44.7975 23.0863L46.5 15.97C46.5407 15.8095 46.5491 15.6425 46.5247 15.4787C46.5004 15.3149 46.4437 15.1576 46.358 15.0159C46.2723 14.8742 46.1593 14.7509 46.0256 14.6533C45.8919 14.5556 45.7401 14.4855 45.579 14.447C45.418 14.4085 45.2509 14.4024 45.0874 14.429C44.924 14.4556 44.7675 14.5144 44.627 14.6021C44.4864 14.6897 44.3647 14.8043 44.2689 14.9394C44.1731 15.0744 44.1051 15.2272 44.0688 15.3888L41.81 24.8312L33.25 29.8237V19.915L40.2688 13.2063C40.3874 13.0928 40.4826 12.9571 40.5489 12.8069C40.6151 12.6567 40.6511 12.4949 40.6548 12.3308C40.6585 12.1667 40.6299 12.0034 40.5705 11.8503C40.5111 11.6973 40.4222 11.5574 40.3088 11.4388C40.1953 11.3201 40.0596 11.2249 39.9094 11.1586C39.7592 11.0924 39.5974 11.0564 39.4333 11.0527C39.2692 11.049 39.1059 11.0776 38.9529 11.137C38.7998 11.1964 38.6599 11.2853 38.5413 11.3988L33.25 16.4562V13.2812L40.2688 6.5725C40.5085 6.34342 40.6473 6.0285 40.6548 5.69703C40.6623 5.36556 40.5378 5.04469 40.3088 4.805C40.0797 4.56531 39.7648 4.42644 39.4333 4.41894C39.1018 4.41144 38.781 4.53592 38.5413 4.765L33.25 9.8225V1.25C33.25 0.918479 33.1183 0.600537 32.8839 0.366117C32.6495 0.131696 32.3315 0 32 0C31.6685 0 31.3506 0.131696 31.1161 0.366117C30.8817 0.600537 30.75 0.918479 30.75 1.25V9.8225L25.4588 4.765C25.3401 4.65157 25.2002 4.56263 25.0472 4.50325C24.8941 4.44387 24.7309 4.41522 24.5667 4.41894C24.4026 4.42265 24.2408 4.45866 24.0906 4.5249C23.9404 4.59114 23.8047 4.68632 23.6913 4.805C23.5778 4.92368 23.4889 5.06354 23.4295 5.2166C23.3701 5.36965 23.3415 5.53291 23.3452 5.69703C23.3489 5.86116 23.3849 6.02295 23.4512 6.17316C23.5174 6.32338 23.6126 6.45907 23.7313 6.5725L30.75 13.2812V16.4562L25.4588 11.3988C25.2191 11.1697 24.8982 11.0452 24.5667 11.0527C24.2353 11.0602 23.9203 11.1991 23.6913 11.4388C23.4622 11.6784 23.3377 11.9993 23.3452 12.3308C23.3527 12.6623 23.4916 12.9772 23.7313 13.2063L30.75 19.915V29.8237L22.19 24.8312L19.9313 15.3888C19.895 15.2272 19.8269 15.0744 19.7311 14.9394C19.6353 14.8043 19.5136 14.6897 19.3731 14.6021C19.2326 14.5144 19.076 14.4556 18.9126 14.429C18.7492 14.4024 18.5821 14.4085 18.421 14.447C18.26 14.4855 18.1082 14.5556 17.9744 14.6533C17.8407 14.7509 17.7277 14.8742 17.642 15.0159C17.5563 15.1576 17.4997 15.3149 17.4753 15.4787C17.4509 15.6425 17.4593 15.8095 17.5 15.97L19.2025 23.095L16.46 21.495L14.2013 12.0463C14.1668 11.883 14.1 11.7283 14.0048 11.5913C13.9096 11.4543 13.7879 11.3377 13.647 11.2485C13.506 11.1592 13.3486 11.0991 13.184 11.0716C13.0195 11.0442 12.8511 11.0499 12.6888 11.0886C12.5265 11.1272 12.3736 11.1979 12.239 11.2966C12.1045 11.3953 11.9911 11.5199 11.9054 11.6631C11.8198 11.8062 11.7637 11.9651 11.7405 12.1303C11.7172 12.2955 11.7272 12.4637 11.77 12.625L13.4725 19.75L6.06751 15.4288C5.92558 15.3403 5.76734 15.2813 5.60217 15.2551C5.437 15.2289 5.26826 15.2362 5.10593 15.2764C4.94361 15.3166 4.79101 15.389 4.65717 15.4893C4.52332 15.5895 4.41095 15.7156 4.32672 15.8601C4.24248 16.0045 4.18809 16.1644 4.16676 16.3303C4.14543 16.4962 4.15761 16.6646 4.20255 16.8257C4.2475 16.9868 4.32432 17.1372 4.42844 17.268C4.53257 17.3989 4.6619 17.5075 4.80876 17.5875L12.2138 21.9062L5.17876 23.93C4.88939 24.0133 4.63981 24.1982 4.47589 24.4508C4.31197 24.7034 4.24474 25.0066 4.28656 25.3048C4.32837 25.603 4.47643 25.8761 4.7035 26.0739C4.93057 26.2716 5.2214 26.3808 5.52251 26.3813C5.63962 26.381 5.75614 26.3646 5.86876 26.3325L15.2 23.6488L17.95 25.2488L10.9088 27.2712C10.7503 27.316 10.6021 27.3916 10.4729 27.4937C10.3438 27.5959 10.236 27.7225 10.1559 27.8664C10.0758 28.0103 10.025 28.1687 10.0063 28.3323C9.98756 28.4959 10.0014 28.6616 10.0469 28.8199C10.0924 28.9782 10.1688 29.1259 10.2716 29.2546C10.3744 29.3832 10.5017 29.4903 10.646 29.5697C10.7903 29.649 10.9489 29.6991 11.1126 29.7169C11.2763 29.7348 11.442 29.7201 11.6 29.6737L20.9313 26.9912L29.5188 32L20.9313 37.0088L11.6 34.3262C11.442 34.2799 11.2763 34.2652 11.1126 34.2831C10.9489 34.3009 10.7903 34.351 10.646 34.4303C10.5017 34.5097 10.3744 34.6168 10.2716 34.7454C10.1688 34.8741 10.0924 35.0218 10.0469 35.1801C10.0014 35.3384 9.98756 35.5041 10.0063 35.6677C10.025 35.8313 10.0758 35.9897 10.1559 36.1336C10.236 36.2775 10.3438 36.4041 10.4729 36.5063C10.6021 36.6084 10.7503 36.684 10.9088 36.7287L17.9438 38.75L15.1938 40.35L5.87501 37.6675C5.55847 37.5825 5.22121 37.6253 4.93588 37.7865C4.65055 37.9478 4.43997 38.2147 4.3495 38.5297C4.25902 38.8447 4.29589 39.1827 4.45217 39.4708C4.60844 39.7589 4.87162 39.9741 5.18501 40.07L12.2125 42.0938L4.80876 46.4125C4.57125 46.5509 4.38599 46.7638 4.28166 47.0181C4.17732 47.2724 4.15974 47.554 4.23162 47.8194C4.30351 48.0847 4.46085 48.3189 4.6793 48.4858C4.89775 48.6527 5.16512 48.7429 5.44001 48.7425C5.65989 48.7422 5.87569 48.6831 6.06501 48.5713L13.4725 44.25L11.77 51.375C11.6948 51.6965 11.7499 52.0347 11.9232 52.3157C12.0965 52.5968 12.374 52.7978 12.695 52.875C12.7904 52.8983 12.8881 52.91 12.9863 52.91C13.2672 52.9098 13.5399 52.815 13.7603 52.6408C13.9808 52.4666 14.1361 52.2233 14.2013 51.95L16.46 42.5075L19.2025 40.9075L17.5 48.03C17.4593 48.1905 17.4509 48.3575 17.4753 48.5213C17.4997 48.6851 17.5563 48.8424 17.642 48.9841C17.7277 49.1258 17.8407 49.2491 17.9744 49.3467C18.1082 49.4444 18.26 49.5145 18.421 49.553C18.5821 49.5915 18.7492 49.5976 18.9126 49.571C19.076 49.5444 19.2326 49.4856 19.3731 49.3979C19.5136 49.3103 19.6353 49.1957 19.7311 49.0606C19.8269 48.9256 19.895 48.7728 19.9313 48.6113L22.19 39.1688L30.75 34.1763V44.085L23.7313 50.7938C23.4916 51.0228 23.3527 51.3377 23.3452 51.6692C23.3377 52.0007 23.4622 52.3216 23.6913 52.5612C23.9203 52.8009 24.2353 52.9398 24.5667 52.9473C24.8982 52.9548 25.2191 52.8303 25.4588 52.6012L30.75 47.5438V50.7188L23.7313 57.4275C23.6126 57.5409 23.5174 57.6766 23.4512 57.8268C23.3849 57.977 23.3489 58.1388 23.3452 58.303C23.3377 58.6344 23.4622 58.9553 23.6913 59.195C23.9203 59.4347 24.2353 59.5736 24.5667 59.5811C24.8982 59.5886 25.2191 59.4641 25.4588 59.235L30.75 54.1775V62.75C30.75 63.0815 30.8817 63.3995 31.1161 63.6339C31.3506 63.8683 31.6685 64 32 64C32.3315 64 32.6495 63.8683 32.8839 63.6339C33.1183 63.3995 33.25 63.0815 33.25 62.75V54.1775L38.5413 59.235C38.6599 59.3484 38.7998 59.4374 38.9529 59.4967C39.1059 59.5561 39.2692 59.5848 39.4333 59.5811C39.5974 59.5773 39.7592 59.5413 39.9094 59.4751C40.0596 59.4089 40.1953 59.3137 40.3088 59.195C40.4222 59.0763 40.5111 58.9365 40.5705 58.7834C40.6299 58.6303 40.6585 58.4671 40.6548 58.303C40.6511 58.1388 40.6151 57.977 40.5489 57.8268C40.4826 57.6766 40.3874 57.5409 40.2688 57.4275L33.25 50.7188V47.5438L38.5413 52.6012C38.781 52.8303 39.1018 52.9548 39.4333 52.9473C39.7648 52.9398 40.0797 52.8009 40.3088 52.5612C40.5378 52.3216 40.6623 52.0007 40.6548 51.6692C40.6473 51.3377 40.5085 51.0228 40.2688 50.7938L33.25 44.085V34.1763L41.81 39.1688L44.0688 48.6113C44.1051 48.7728 44.1731 48.9256 44.2689 49.0606C44.3647 49.1957 44.4864 49.3103 44.627 49.3979C44.7675 49.4856 44.924 49.5444 45.0874 49.571C45.2509 49.5976 45.418 49.5915 45.579 49.553C45.7401 49.5145 45.8919 49.4444 46.0256 49.3467C46.1593 49.2491 46.2723 49.1258 46.358 48.9841C46.4437 48.8424 46.5004 48.6851 46.5247 48.5213C46.5491 48.3575 46.5407 48.1905 46.5 48.03L44.7975 40.9113L47.54 42.5112L49.7988 51.9538C49.8639 52.227 50.0193 52.4704 50.2397 52.6445C50.4601 52.8187 50.7328 52.9135 51.0138 52.9137C51.1119 52.9138 51.2097 52.902 51.305 52.8787C51.626 52.8016 51.9035 52.6005 52.0768 52.3195C52.2501 52.0384 52.3052 51.7003 52.23 51.3787L50.5275 44.2537L57.9325 48.5725C58.1218 48.6843 58.3376 48.7434 58.5575 48.7438C58.8319 48.7428 59.0983 48.6516 59.3157 48.4842C59.5331 48.3169 59.6894 48.0826 59.7605 47.8176C59.8316 47.5526 59.8135 47.2716 59.709 47.0179C59.6046 46.7642 59.4196 46.5519 59.1825 46.4137L59.1913 46.4125Z" fill="black"/>
</g>
<defs>
<clipPath id="clip0_1324_15828">
<rect width="64" height="64" fill="white"/>
</clipPath>
</defs>
</svg>
