<svg width="64" height="64" viewBox="0 0 64 64" fill="none" xmlns="http://www.w3.org/2000/svg">
<g clip-path="url(#clip0_1324_15817)">
<path d="M59.1076 7.15562L60.415 5.84825C60.5896 5.67218 60.6872 5.43414 60.6867 5.18621C60.6862 4.93828 60.5875 4.70065 60.4122 4.52533C60.2369 4.35001 59.9992 4.25127 59.7513 4.25072C59.5034 4.25016 59.2653 4.34784 59.0892 4.52238L57.7819 5.82975C57.6073 6.00582 57.5096 6.24386 57.5102 6.49179C57.5107 6.73972 57.6094 6.97735 57.7847 7.15267C57.96 7.32799 58.1976 7.42673 58.4456 7.42728C58.6935 7.42784 58.9315 7.33016 59.1076 7.15562ZM51.7604 4.66138C52.009 4.66138 52.2475 4.5626 52.4233 4.38679C52.5991 4.21097 52.6979 3.97252 52.6979 3.72388V1.875C52.6979 1.35712 52.2781 0.9375 51.7604 0.9375C51.2426 0.9375 50.8229 1.35712 50.8229 1.875V3.72388C50.8229 4.24175 51.2425 4.66138 51.7604 4.66138ZM51.7604 19.818C55.4221 19.818 58.4011 16.8389 58.4011 13.1771C58.4011 9.51538 55.4221 6.53638 51.7604 6.53638C48.0986 6.53638 45.1196 9.51538 45.1196 13.1771C45.1196 16.8389 48.0986 19.818 51.7604 19.818ZM51.7604 8.41138C54.3883 8.41138 56.5261 10.5494 56.5261 13.1771C56.5261 15.805 54.3883 17.943 51.7604 17.943C49.1325 17.943 46.9946 15.805 46.9946 13.1771C46.9946 10.5494 49.1325 8.41138 51.7604 8.41138ZM60.276 13.1771C60.276 13.4258 60.3748 13.6642 60.5506 13.84C60.7264 14.0159 60.9649 14.1146 61.2135 14.1146H63.0625C63.5802 14.1146 64 13.695 64 13.1771C64 12.6593 63.5802 12.2396 63.0625 12.2396H61.2135C60.9649 12.2396 60.7264 12.3384 60.5506 12.5142C60.3748 12.69 60.276 12.9285 60.276 13.1771ZM59.1076 19.1987C58.9308 19.0278 58.6939 18.9332 58.448 18.9353C58.2021 18.9374 57.9668 19.036 57.7929 19.2099C57.619 19.3838 57.5204 19.6191 57.5184 19.865C57.5163 20.1109 57.6109 20.3478 57.7819 20.5246L59.0892 21.832C59.2653 22.0065 59.5034 22.1042 59.7513 22.1037C59.9992 22.1031 60.2369 22.0044 60.4122 21.829C60.5875 21.6537 60.6862 21.4161 60.6867 21.1682C60.6872 20.9202 60.5896 20.6822 60.415 20.5061L59.1076 19.1987ZM40.4581 14.1146H42.3071C42.8249 14.1146 43.2446 13.695 43.2446 13.1771C43.2446 12.6593 42.8249 12.2396 42.3071 12.2396H40.4581C39.9404 12.2396 39.5206 12.6593 39.5206 13.1771C39.5206 13.695 39.9404 14.1146 40.4581 14.1146ZM63.0625 58.4375C60.2402 58.4375 58.7555 59.2262 57.4454 59.922C56.2201 60.5729 55.0629 61.1875 52.7079 61.1875C50.3529 61.1875 49.1955 60.5729 47.9704 59.922C46.6604 59.2262 45.1755 58.4375 42.3532 58.4375C39.5311 58.4375 38.0464 59.2263 36.7364 59.9221C35.5112 60.5729 34.3541 61.1875 31.9991 61.1875C29.6442 61.1875 28.4871 60.5729 27.2621 59.9221C25.9521 59.2263 24.4674 58.4375 21.6454 58.4375C18.8232 58.4375 17.3385 59.2263 16.0285 59.9221C14.8035 60.5729 13.6462 61.1875 11.2914 61.1875C8.9365 61.1875 7.77925 60.5729 6.55425 59.9221C5.24425 59.2263 3.7595 58.4375 0.9375 58.4375C0.41975 58.4375 0 58.8571 0 59.375C0 59.8929 0.41975 60.3125 0.9375 60.3125C3.29238 60.3125 4.44963 60.9271 5.67462 61.5779C6.98462 62.2737 8.46938 63.0625 11.2914 63.0625C14.1134 63.0625 15.5981 62.2738 16.9081 61.578C18.1331 60.9271 19.2904 60.3125 21.6453 60.3125C24.0001 60.3125 25.1574 60.9271 26.3824 61.5779C27.6924 62.2737 29.1771 63.0625 31.9991 63.0625C34.8213 63.0625 36.306 62.2737 37.616 61.5779C38.8411 60.9271 39.9982 60.3125 42.3532 60.3125C44.7084 60.3125 45.8656 60.9271 47.0908 61.578C48.4008 62.2738 49.8856 63.0625 52.7079 63.0625C55.5301 63.0625 57.0149 62.2738 58.325 61.578C59.5503 60.9271 60.7075 60.3125 63.0625 60.3125C63.5802 60.3125 64 59.8929 64 59.375C64 58.8571 63.5802 58.4375 63.0625 58.4375ZM50.8229 22.6305V24.4794C50.8229 24.9973 51.2426 25.4169 51.7604 25.4169C52.2781 25.4169 52.6979 24.9973 52.6979 24.4794V22.6305C52.6979 22.1126 52.2781 21.693 51.7604 21.693C51.2426 21.693 50.8229 22.1126 50.8229 22.6305ZM63.0625 52.6875C61.783 52.6875 60.779 52.8499 59.941 53.092C58.1075 50.4851 55.5387 48.5018 52.2925 47.1925C52.0619 47.0996 51.8039 47.1021 51.5751 47.1994C51.3463 47.2966 51.1655 47.4807 51.0724 47.7113C50.9794 47.9419 50.9818 48.2 51.0791 48.4288C51.1764 48.6576 51.3605 48.8384 51.5911 48.9315C54.3406 50.0402 56.5399 51.6786 58.1444 53.8086C57.9099 53.9268 57.6768 54.0479 57.4454 54.172C56.2201 54.8229 55.0629 55.4375 52.7079 55.4375C50.3529 55.4375 49.1955 54.8229 47.9704 54.172C46.6604 53.4762 45.1755 52.6875 42.3532 52.6875C39.5311 52.6875 38.0464 53.4763 36.7364 54.1721C35.5112 54.8229 34.3541 55.4375 31.9991 55.4375C30.158 55.4375 29.0496 55.0613 28.0679 54.5864C29.3757 52.758 31.1376 51.2365 33.3186 50.0556C35.5115 48.8684 40.8698 46.6515 47.5532 47.793C48.0643 47.8802 48.5476 47.5354 48.634 47.025C48.6545 46.9036 48.651 46.7794 48.6235 46.6594C48.596 46.5393 48.5452 46.4259 48.4738 46.3256C48.4025 46.2252 48.3121 46.1399 48.2078 46.0745C48.1035 46.009 47.9874 45.9648 47.866 45.9442C41.5519 44.8761 35.9831 46.8179 33.6204 47.8405C30.2381 45.1807 24.8416 39.7641 23.4037 31.4785C23.0354 29.3528 22.956 27.169 23.1654 24.979L36.7601 28.5179C37.4035 28.6868 38.0843 28.4699 38.5081 27.933C38.7121 27.6745 38.8362 27.3621 38.8654 27.0341C38.8945 26.7061 38.8275 26.3767 38.6724 26.0863C36.487 21.9851 32.6415 19.159 28.2945 18.4189C31.4264 16.5811 34.5584 14.7432 37.691 12.9056C38.2773 12.5614 38.5919 11.9289 38.5121 11.2548C38.4732 10.928 38.3399 10.6196 38.1286 10.3674C37.9172 10.1151 37.637 9.92985 37.3221 9.83425C32.6529 8.41088 27.6825 9.27563 24.0259 12.1475C22.8799 13.0474 21.8955 14.1199 21.0846 15.3466C20.3535 14.24 19.3969 13.1302 18.1451 12.1475C14.4891 9.27625 9.5185 8.4115 4.84912 9.8345C4.53442 9.93025 4.25442 10.1156 4.04329 10.3678C3.83217 10.6201 3.69907 10.9284 3.66025 11.255C3.58063 11.9291 3.89525 12.5618 4.48175 12.9061L9.08625 15.6077L13.578 18.2431C12.7977 18.2019 12.0152 18.2282 11.2394 18.3216C6.6245 18.8761 2.49812 21.7787 0.2015 26.0861C0.0463575 26.3765 -0.0207348 26.7059 0.00843804 27.0339C0.0376109 27.3618 0.161783 27.6742 0.36575 27.9326C0.79 28.4699 1.46863 28.6879 2.11363 28.5184L4.08437 28.0054C8.629 26.8224 13.1741 25.6391 17.7185 24.4551C16.925 26.7421 16.1181 30.1149 16.3118 34.0546C16.3239 34.303 16.4343 34.5363 16.6186 34.7033C16.8028 34.8703 17.0458 34.9573 17.2942 34.9451C17.5425 34.9329 17.7759 34.8225 17.9429 34.6383C18.1099 34.454 18.1968 34.211 18.1846 33.9626C18.0191 30.5954 18.645 27.6718 19.3214 25.5739C19.93 25.7961 20.5857 25.8575 21.225 25.7521C21.1026 27.7891 21.213 29.8168 21.5564 31.7991C23.0068 40.1566 28.1772 45.7698 31.7875 48.7696C30.4172 49.5778 29.205 50.5171 28.1576 51.58C25.3826 49.6505 21.0876 45.7815 19.1354 39.396C19.0076 38.9782 18.892 38.5568 18.7887 38.1323C18.7597 38.0126 18.7074 37.8998 18.6347 37.8004C18.5621 37.7009 18.4705 37.6168 18.3653 37.5528C18.2601 37.4888 18.1434 37.4461 18.0217 37.4272C17.9 37.4084 17.7758 37.4137 17.6561 37.4429C17.4145 37.5016 17.2062 37.654 17.0769 37.8664C16.9476 38.0787 16.908 38.3338 16.9667 38.5754C17.0787 39.0351 17.2039 39.4916 17.3423 39.9441C17.9025 41.7778 18.6807 43.5377 19.66 45.1861C14.0357 44.4619 9.49975 47.668 9.2855 47.8224C7.33462 49.2243 5.79375 51.0646 4.69338 53.3001C3.73513 52.9474 2.55662 52.6875 0.9375 52.6875C0.41975 52.6875 0 53.1071 0 53.625C0 54.1429 0.41975 54.5625 0.9375 54.5625C3.29238 54.5625 4.44963 55.1771 5.67462 55.8279C6.98462 56.5237 8.46938 57.3125 11.2914 57.3125C14.1134 57.3125 15.5981 56.5238 16.9081 55.828C18.1331 55.1771 19.2904 54.5625 21.6453 54.5625C24.0001 54.5625 25.1574 55.1771 26.3824 55.8279C27.6924 56.5237 29.1771 57.3125 31.9991 57.3125C34.8213 57.3125 36.306 56.5237 37.616 55.8279C38.8411 55.1771 39.9982 54.5625 42.3532 54.5625C44.7084 54.5625 45.8656 55.1771 47.0908 55.828C48.4008 56.5238 49.8856 57.3125 52.7079 57.3125C55.5301 57.3125 57.0149 56.5238 58.325 55.828C59.5503 55.1771 60.7075 54.5625 63.0625 54.5625C63.5802 54.5625 64 54.1429 64 53.625C64 53.1071 63.5802 52.6875 63.0625 52.6875ZM36.8105 26.5938L24.1756 23.3049C24.3262 22.8909 24.403 22.4537 24.4026 22.0133C24.4026 21.5953 24.3336 21.1934 24.208 20.8171L25.398 20.1189C26.0696 20.0821 26.743 20.1036 27.4109 20.1833C31.2844 20.6486 34.7689 23.0336 36.8105 26.5938ZM16.8941 22.7323C12.467 23.8856 8.03925 25.0384 3.61212 26.1909L2.06312 26.5941C4.10575 23.0338 7.59037 20.6486 11.463 20.1833C13.3264 19.9595 15.1871 20.1853 17.0076 20.8516C16.8114 21.4588 16.7724 22.1059 16.8941 22.7323ZM10.0352 13.9908L5.80688 11.5096C9.7685 10.4355 13.9191 11.2126 16.9874 13.6224C18.7673 15.0197 19.8604 16.7239 20.5296 18.2264C19.7774 18.2422 19.0471 18.483 18.433 18.9176C15.6335 17.2755 12.8342 15.633 10.0352 13.9908ZM20.6136 23.9271C19.5584 23.9271 18.6998 23.0685 18.6998 22.0131C18.6998 20.9578 19.5584 20.0991 20.6136 20.0991C21.6689 20.0991 22.5275 20.9578 22.5275 22.0131C22.5275 23.0685 21.669 23.9271 20.6136 23.9271ZM22.137 17.2325C22.9209 15.812 23.9424 14.5974 25.184 13.6222C28.2528 11.2121 32.4034 10.4346 36.3652 11.5099C33.1076 13.4209 29.85 15.3324 26.5928 17.2436L23.1912 19.2396C23.07 19.1269 22.9412 19.0223 22.8061 18.926C22.6167 18.3488 22.3933 17.7833 22.137 17.2325ZM26.3861 53.7215C25.2558 53.1749 23.8639 52.6875 21.6454 52.6875C18.8232 52.6875 17.3385 53.4763 16.0285 54.1721C14.8035 54.8229 13.6462 55.4375 11.2914 55.4375C8.84037 55.4375 7.73612 54.801 6.39488 54.0876C7.3575 52.1489 8.69475 50.5557 10.3806 49.3442C10.5903 49.1932 15.5034 45.7191 21.1516 47.4131C23.0835 49.9815 25.2344 51.8095 26.9142 52.9986C26.7314 53.2345 26.5553 53.4756 26.3861 53.7215ZM44.413 19.1987L43.1056 20.5061C42.9311 20.6822 42.8334 20.9202 42.8339 21.1682C42.8344 21.4161 42.9332 21.6537 43.1085 21.829C43.2838 22.0044 43.5214 22.1031 43.7693 22.1037C44.0172 22.1042 44.2553 22.0065 44.4314 21.832L45.7388 20.5246C45.9133 20.3486 46.011 20.1105 46.0105 19.8626C46.0099 19.6147 45.9112 19.377 45.7359 19.2017C45.5606 19.0264 45.323 18.9276 45.0751 18.9271C44.8271 18.9265 44.5891 19.0242 44.413 19.1987ZM44.413 7.15562C44.5891 7.33016 44.8271 7.42784 45.0751 7.42728C45.323 7.42673 45.5606 7.32799 45.7359 7.15267C45.9112 6.97735 46.0099 6.73972 46.0105 6.49179C46.011 6.24386 45.9133 6.00582 45.7388 5.82975L44.4314 4.52238C44.2546 4.35145 44.0177 4.25684 43.7717 4.25893C43.5258 4.26102 43.2906 4.35964 43.1167 4.53355C42.9428 4.70746 42.8442 4.94272 42.8421 5.18864C42.84 5.43456 42.9347 5.67145 43.1056 5.84825L44.413 7.15562Z" fill="black"/>
</g>
<defs>
<clipPath id="clip0_1324_15817">
<rect width="64" height="64" fill="white"/>
</clipPath>
</defs>
</svg>
