<?xml version="1.0" encoding="utf-8"?>
<!-- Svg Vector Icons : http://www.onlinewebfonts.com/icon -->
<!DOCTYPE svg PUBLIC "-//W3C//DTD SVG 1.1//EN" "http://www.w3.org/Graphics/SVG/1.1/DTD/svg11.dtd">
<svg version="1.1" xmlns="http://www.w3.org/2000/svg" xmlns:xlink="http://www.w3.org/1999/xlink" x="0px" y="0px" viewBox="0 0 256 256" enable-background="new 0 0 256 256" xml:space="preserve">
<metadata> Svg Vector Icons : http://www.onlinewebfonts.com/icon </metadata>
<g><g><g><path fill="#000000" d="M70.7,17.5c-0.9,0.6-2.1,1.8-2.7,2.5l-1,1.4l-0.1,109.1l-0.1,109H128h61.2l-0.1-109l-0.1-109.1l-1-1.4c-0.5-0.7-1.8-1.9-2.7-2.5l-1.6-1.1H128H72.3L70.7,17.5z M180.8,128v103.2H128H75.2V128V24.8H128h52.8L180.8,128L180.8,128z"/><path fill="#000000" d="M91.9,49v9.4h4.2h4.2V49v-9.4h-4.2h-4.2V49z"/><path fill="#000000" d="M123.5,49v9.4h4.2h4.2V49v-9.4h-4.2h-4.2L123.5,49L123.5,49z"/><path fill="#000000" d="M155.1,49v9.4h4.2h4.2V49v-9.4h-4.2h-4.2V49z"/><path fill="#000000" d="M91.9,80.6V90h4.2h4.2v-9.4v-9.4h-4.2h-4.2V80.6z"/><path fill="#000000" d="M123.5,80.6V90h4.2h4.2v-9.4v-9.4h-4.2h-4.2L123.5,80.6L123.5,80.6z"/><path fill="#000000" d="M155.1,80.6V90h4.2h4.2v-9.4v-9.4h-4.2h-4.2V80.6z"/><path fill="#000000" d="M91.9,112.2v9.4h4.2h4.2v-9.4v-9.4h-4.2h-4.2V112.2z"/><path fill="#000000" d="M123.5,112.2v9.4h4.2h4.2v-9.4v-9.4h-4.2h-4.2L123.5,112.2L123.5,112.2z"/><path fill="#000000" d="M155.1,112.2v9.4h4.2h4.2v-9.4v-9.4h-4.2h-4.2V112.2z"/><path fill="#000000" d="M91.9,143.8v9.4h4.2h4.2v-9.4v-9.4h-4.2h-4.2V143.8z"/><path fill="#000000" d="M123.5,143.8v9.4h4.2h4.2v-9.4v-9.4h-4.2h-4.2L123.5,143.8L123.5,143.8z"/><path fill="#000000" d="M155.1,143.8v9.4h4.2h4.2v-9.4v-9.4h-4.2h-4.2V143.8z"/><path fill="#000000" d="M91.9,175.4v9.4h4.2h4.2v-9.4V166h-4.2h-4.2V175.4z"/><path fill="#000000" d="M123.5,175.4v9.4h4.2h4.2v-9.4V166h-4.2h-4.2L123.5,175.4L123.5,175.4z"/><path fill="#000000" d="M155.1,175.4v9.4h4.2h4.2v-9.4V166h-4.2h-4.2V175.4z"/><path fill="#000000" d="M91.9,207v9.4h4.2h4.2V207v-9.4h-4.2h-4.2V207z"/><path fill="#000000" d="M123.5,207v9.4h4.2h4.2V207v-9.4h-4.2h-4.2L123.5,207L123.5,207z"/><path fill="#000000" d="M155.1,207v9.4h4.2h4.2V207v-9.4h-4.2h-4.2V207z"/><path fill="#000000" d="M197.6,52.2v4.2h2.2h2.2L219.4,74c9.6,9.6,17.5,17.7,17.6,17.9c0.1,0.2-1.1,0.4-2.7,0.3c-1.6,0-10.5,0-19.7,0.1l-16.9,0.1v4.2v4.2h16.8h16.8V166v65.2h-16.8h-16.8v4.2v4.2h17.6h17.6l2.1-1.2c1.3-0.7,2.7-2.1,3.4-3.4l1.2-2.1v-65.9V101l1.6-0.6c0.9-0.3,2.3-1.3,3.1-2.1c1.3-1.4,1.4-1.8,1.6-5.8l0.1-4.3l-19.4-19.3c-13.1-13.1-20-19.6-21.2-20.1c-1-0.4-3.2-0.7-4.8-0.7h-3L197.6,52.2L197.6,52.2z"/><path fill="#000000" d="M41.6,97.4v7.4H38c-6.5,0-6.4,0-17.8,11.3L10,126.2v4.1c0,3.9,0.1,4.1,1.5,5.8c0.8,0.9,2.2,1.9,3.1,2.1l1.5,0.4l0.2,47.4c0.2,51.2,0.1,48.8,2.8,51.1c2.7,2.4,3.1,2.4,21.7,2.4h17.5v-4.2v-4.2H41.6H24.8v-46.4v-46.4h16.8h16.8v-4.2V130H38.3H18.1l8.4-8.4l8.4-8.4h11.7h11.7V109v-4.2h-4.2H50v-7.4V90h-4.2h-4.2L41.6,97.4L41.6,97.4z"/><path fill="#000000" d="M206,127.8v12.6h4.2h4.2v-12.6v-12.6h-4.2H206V127.8z"/><path fill="#000000" d="M206,165.5v12.9l4.1-0.1l4-0.1l0.1-12.7l0.1-12.7h-4.2H206V165.5L206,165.5z"/><path fill="#000000" d="M41.6,165.8v12.6h4.2H50v-12.6v-12.6h-4.2h-4.2V165.8z"/><path fill="#000000" d="M206,203.3v12.6h4.2h4.2v-12.6v-12.6h-4.2H206V203.3z"/><path fill="#000000" d="M41.6,203.8v12.6h4.2H50v-12.6v-12.6h-4.2h-4.2V203.8z"/></g></g></g>
</svg>