<svg width="32" height="32" viewBox="0 0 32 32" fill="none" xmlns="http://www.w3.org/2000/svg">
<path d="M19.5736 6.44606L19.0605 5.93315C18.9001 5.77293 18.6405 5.77293 18.4805 5.93315C18.3203 6.09337 18.3203 6.35313 18.4805 6.51314L18.9936 7.02605C19.0737 7.10616 19.1786 7.14632 19.2835 7.14632C19.3886 7.14632 19.4935 7.10616 19.5736 7.02605C19.7338 6.86583 19.7338 6.60628 19.5736 6.44606Z" fill="#747474"/>
<path d="M19.8393 9.98807C19.9194 10.0684 20.0243 10.1083 20.1294 10.1083C20.2343 10.1083 20.3392 10.0684 20.4193 9.98828C20.5795 9.82806 20.5795 9.5683 20.4193 9.40829L19.9064 8.89517C19.7462 8.73474 19.4864 8.73495 19.3262 8.89496C19.166 9.05518 19.166 9.31494 19.3262 9.47495L19.8393 9.98807Z" fill="#747474"/>
<path d="M15.6993 9.43999C15.539 9.6002 15.539 9.85976 15.6993 10.02L16.2122 10.5331C16.2925 10.6132 16.3974 10.6532 16.5023 10.6532C16.6074 10.6532 16.7123 10.6132 16.7924 10.5331C16.9526 10.3729 16.9526 10.1131 16.7924 9.95311L16.2795 9.43999C16.1192 9.27977 15.8595 9.27977 15.6993 9.43999V9.43999Z" fill="#747474"/>
<path d="M23.5277 13.5556C23.6078 13.6355 23.7127 13.6756 23.8175 13.6756C23.9226 13.6756 24.0275 13.6355 24.1076 13.5556C24.2679 13.3953 24.2679 13.1356 24.1076 12.9754L23.5947 12.4624C23.4345 12.3022 23.1748 12.3022 23.0145 12.4624C22.8545 12.6227 22.8545 12.8822 23.0145 13.0424L23.5277 13.5556Z" fill="#747474"/>
<path d="M14.7072 12.8547C14.547 12.6947 14.2872 12.6945 14.127 12.8547C13.9668 13.0149 13.9668 13.2747 14.127 13.4347L14.6401 13.9478C14.7202 14.0279 14.8251 14.0679 14.93 14.0679C15.0351 14.0679 15.14 14.0279 15.2201 13.9478C15.3803 13.7876 15.3803 13.528 15.2201 13.3678L14.7072 12.8547Z" fill="#747474"/>
<path d="M22.4102 15.7281C22.25 15.8881 22.25 16.1478 22.4102 16.3081L22.9233 16.8212C23.0034 16.9013 23.1083 16.9412 23.2132 16.9412C23.3183 16.9412 23.4232 16.9013 23.5033 16.8212C23.6635 16.661 23.6635 16.4014 23.5033 16.2412L22.9904 15.7281C22.8302 15.5679 22.5704 15.5679 22.4102 15.7281V15.7281Z" fill="#747474"/>
<path d="M29.5898 27.3667H24.8171V25.4802H27.9353C28.1475 25.4802 28.3312 25.386 28.4395 25.2219C28.5476 25.0579 28.5617 24.8519 28.4784 24.6573L27.5493 22.4871C27.4602 22.2788 27.2191 22.1823 27.011 22.2716C26.8027 22.3607 26.7061 22.6018 26.7952 22.8099L27.5871 24.6599H24.8171V23.1045C24.8171 22.8778 24.6334 22.6943 24.4069 22.6943C24.1803 22.6943 23.9968 22.8778 23.9968 23.1045V24.6599H21.4564L24.5219 17.4982L25.9995 20.9503C26.0886 21.1586 26.3297 21.2552 26.538 21.1659C26.7463 21.0768 26.8427 20.8358 26.7536 20.6275L25.8491 18.5144C25.904 18.4635 25.9583 18.4118 26.011 18.3584C27.0155 17.3418 27.5685 15.9947 27.5685 14.5656C27.5685 13.3379 27.1451 12.1362 26.3761 11.1822C25.7053 10.3499 24.7959 9.73212 23.7838 9.41446C23.8481 9.0795 23.8803 8.7392 23.8803 8.39825C23.8803 8.17181 23.6968 7.9881 23.4702 7.9881C23.2435 7.9881 23.06 8.17181 23.06 8.39825C23.06 8.80307 23.0062 9.20724 22.9 9.59903C22.8708 9.7067 22.8866 9.82141 22.9438 9.91711C23.0013 10.0128 23.0948 10.081 23.2036 10.106C24.1952 10.335 25.0952 10.8998 25.7376 11.697C26.3987 12.5173 26.7482 13.5094 26.7482 14.5656C26.7482 15.7413 26.3058 16.8505 25.5017 17.7028L25.0066 16.5456C24.9121 16.325 24.7308 16.1931 24.5219 16.1931C24.3129 16.1931 24.1316 16.325 24.0371 16.5456L22.9549 19.0743C22.718 19.1153 22.4766 19.1388 22.2318 19.142C22.0695 19.1441 21.9238 19.2418 21.8601 19.3911C21.3357 20.6196 20.1977 21.454 18.8922 21.5997C18.8922 20.3932 18.8922 19.4932 18.8922 19.4932V16.8821L20.858 14.9161C21.0182 14.7559 21.0182 14.4961 20.858 14.3359C20.6978 14.1759 20.438 14.1759 20.278 14.3361L18.8922 15.7219V13.6888C18.8922 13.4622 18.7085 13.2787 18.4821 13.2787C18.2554 13.2787 18.0719 13.4622 18.0719 13.6888V18.5031L16.7464 17.1777C16.5862 17.0177 16.3266 17.0177 16.1664 17.1777C16.0062 17.338 16.0062 17.5977 16.1664 17.7579L18.0719 19.6632V21.5997C17.4567 21.5309 16.8786 21.3092 16.3845 20.9653L14.4929 16.5456C14.3985 16.325 14.2171 16.1931 14.0082 16.1931C13.7993 16.1931 13.6179 16.325 13.5235 16.5456L12.9702 17.8387L11.4665 15.3615H12.1623C12.3846 15.3615 12.5752 15.2566 12.6718 15.0812C12.7685 14.9059 12.7551 14.689 12.6363 14.501L11.0303 11.9606C11.0924 11.8711 11.1574 11.7829 11.2268 11.697C11.8692 10.9 12.769 10.335 13.7606 10.1062C13.8693 10.081 13.9631 10.0128 14.0204 9.91711C14.0776 9.82162 14.0934 9.7067 14.0644 9.59924C13.958 9.20682 13.9041 8.80286 13.9041 8.39847C13.9041 5.87408 15.9579 3.82031 18.4823 3.82031C20.3521 3.82031 22.0169 4.93906 22.7231 6.67068C22.8086 6.88046 23.0483 6.98129 23.2578 6.89542C23.4676 6.80997 23.5682 6.5705 23.4826 6.36093C22.6499 4.31912 20.6871 3 18.4821 3C15.5055 3 13.0836 5.42163 13.0836 8.39847C13.0836 8.73898 13.1161 9.07928 13.1804 9.41446C12.1682 9.73233 11.2589 10.3499 10.5881 11.1822C10.5787 11.1939 10.5699 11.2061 10.5607 11.2179L9.48343 9.51379C9.36829 9.33179 9.18863 9.22754 8.99039 9.22754C8.79236 9.22754 8.6127 9.33179 8.49756 9.51379L5.34491 14.501C5.22614 14.689 5.21289 14.9059 5.30945 15.0812C5.40622 15.2566 5.59656 15.3615 5.81894 15.3615H6.51471L4.45496 18.7543C4.34045 18.9431 4.33041 19.1595 4.42825 19.3334C4.52631 19.5073 4.71643 19.6109 4.93732 19.6109H5.7117L3.55859 23.2519C3.44666 23.4412 3.43875 23.6573 3.53745 23.8302C3.63593 24.003 3.82605 24.1062 4.04587 24.1062H6.04688C6.27353 24.1062 6.45703 23.9225 6.45703 23.696C6.45703 23.4694 6.27353 23.2859 6.04688 23.2859H4.49149L6.64459 19.6449C6.75653 19.4558 6.76443 19.2396 6.66574 19.0668C6.56726 18.894 6.37714 18.7908 6.15732 18.7908H5.39233L7.45209 15.3978C7.56659 15.2092 7.57663 14.9928 7.47879 14.8189C7.38095 14.645 7.19061 14.5412 6.96994 14.5412H6.28998L8.99039 10.2694L11.6912 14.5412H11.011C10.7902 14.5412 10.6 14.645 10.5022 14.8189C10.4044 14.9928 10.4144 15.2094 10.5289 15.3978L12.5733 18.7658L12.5626 18.7908H11.8237C11.6039 18.7908 11.4137 18.894 11.3152 19.0668C11.2166 19.2396 11.2245 19.4558 11.3364 19.6451L11.8356 20.4891L10.6385 23.2859H8.01562C7.78897 23.2859 7.60547 23.4694 7.60547 23.696C7.60547 23.9225 7.78897 24.1062 8.01562 24.1062H8.49393V27.3667H2.41016C2.1835 27.3667 2 27.5502 2 27.7769C2 28.0033 2.1835 28.187 2.41016 28.187H29.5898C29.8165 28.187 30 28.0033 30 27.7769C30 27.5504 29.8165 27.3667 29.5898 27.3667V27.3667ZM22.504 19.9527C22.5298 19.9512 22.5555 19.9489 22.5813 19.9469L20.5651 24.6573C20.4818 24.8524 20.4959 25.0581 20.6042 25.2221C20.7125 25.3862 20.896 25.4802 21.1082 25.4802H23.9968V27.3667H18.8922C18.8922 26.4714 18.8922 24.2717 18.8922 22.4237C20.4404 22.2827 21.808 21.3513 22.504 19.9527V19.9527ZM18.0719 22.4241V27.3667H14.3034V25.4802H17.4217C17.6338 25.4802 17.8175 25.386 17.9258 25.2219C18.0339 25.0579 18.048 24.8519 17.9647 24.6573L16.8925 22.1524C17.267 22.294 17.6631 22.3869 18.0719 22.4241V22.4241ZM14.0082 17.4982L17.0735 24.6599H14.3034V23.1045C14.3034 22.8778 14.1197 22.6943 13.8932 22.6943C13.6666 22.6943 13.4831 22.8778 13.4831 23.1045V24.6599H10.9427L14.0082 17.4982ZM9.31424 24.1062H10.2873L10.0515 24.6573C9.96814 24.8521 9.98224 25.0581 10.0905 25.2221C10.1989 25.386 10.3824 25.4802 10.5945 25.4802H13.4831V27.3667H9.31424V24.1062Z" fill="#747474"/>
</svg>
