<?xml version="1.0" standalone="no"?>
<!DOCTYPE svg PUBLIC "-//W3C//DTD SVG 20010904//EN"
 "http://www.w3.org/TR/2001/REC-SVG-20010904/DTD/svg10.dtd">
<svg version="1.0" xmlns="http://www.w3.org/2000/svg"
 width="512.000000pt" height="512.000000pt" viewBox="0 0 512.000000 512.000000"
 preserveAspectRatio="xMidYMid meet">

<g transform="translate(0.000000,512.000000) scale(0.100000,-0.100000)"
fill="#000000" stroke="none">
<path d="M1074 4812 c-175 -114 -259 -322 -209 -517 56 -213 238 -356 455
-355 127 1 226 40 319 126 96 88 139 188 156 361 5 54 3 65 -15 83 -12 12 -33
20 -53 20 -28 0 -41 -9 -80 -54 -60 -70 -114 -96 -198 -96 -81 0 -133 23 -185
83 -66 75 -81 162 -44 259 25 66 25 83 0 108 -31 31 -78 26 -146 -18z m30
-369 c76 -149 260 -238 417 -201 35 9 73 19 83 23 19 8 19 8 0 -24 -27 -47
-98 -109 -152 -134 -66 -31 -198 -31 -264 0 -66 30 -130 93 -163 160 -24 49
-29 71 -29 138 -1 68 3 89 28 140 l28 60 14 -57 c7 -32 24 -79 38 -105z"/>
<path d="M2484 4731 c-22 -10 -57 -35 -77 -56 l-36 -37 -44 21 c-23 11 -64 24
-89 27 -84 12 -128 -13 -128 -70 0 -42 26 -66 73 -66 73 0 132 -40 143 -97 7
-35 45 -73 74 -73 10 0 29 9 42 20 21 16 26 30 30 80 4 49 9 65 33 90 16 17
41 33 55 37 65 15 90 80 47 121 -28 27 -68 28 -123 3z"/>
<path d="M3524 4550 c-22 -11 -55 -36 -73 -54 l-33 -34 -52 24 c-72 34 -157
33 -191 -1 -14 -13 -25 -33 -25 -45 0 -36 44 -70 90 -70 70 0 122 -38 135 -97
12 -60 85 -84 125 -41 14 15 20 35 20 68 0 63 32 110 89 131 49 18 71 41 71
76 0 59 -78 81 -156 43z"/>
<path d="M4093 4174 c-6 -3 -136 -171 -287 -373 -289 -386 -297 -400 -256
-441 18 -18 33 -20 155 -20 74 0 135 -3 135 -6 0 -3 -39 -51 -87 -107 -48 -56
-88 -104 -90 -106 -1 -2 -33 10 -70 27 -90 40 -158 60 -273 77 -147 23 -2379
22 -2465 0 -111 -29 -198 -103 -253 -215 l-27 -55 0 -790 0 -790 32 -66 c40
-80 111 -150 191 -187 49 -22 74 -27 179 -30 l122 -4 10 -49 c28 -128 132
-260 251 -317 283 -135 595 25 664 340 l6 27 823 3 822 3 70 24 c125 42 198
85 293 175 78 73 167 223 187 313 6 32 8 33 61 33 l54 0 0 -368 c0 -345 1
-370 18 -385 25 -23 78 -21 102 3 19 19 20 33 20 385 l0 365 289 0 c277 0 289
1 315 21 52 41 49 46 -289 488 l-314 411 228 0 c225 0 228 0 249 23 49 52 64
31 -412 592 l-135 160 139 3 c137 3 139 3 160 29 14 18 19 35 15 51 -5 22
-490 677 -543 735 -24 25 -58 33 -89 21z m236 -449 l180 -240 -145 -5 c-129
-4 -147 -7 -160 -24 -37 -51 -29 -62 266 -411 154 -181 280 -333 280 -337 0
-5 -100 -8 -222 -8 -247 0 -258 -3 -258 -66 0 -27 49 -96 310 -438 171 -223
310 -407 310 -411 0 -3 -141 -4 -312 -3 l-313 3 -6 270 c-6 295 -12 332 -79
499 -68 172 -184 329 -325 441 -27 21 -54 42 -59 46 -4 4 55 82 133 174 155
182 165 205 115 244 -24 19 -40 21 -161 21 -74 0 -133 4 -131 9 2 4 86 119
188 254 146 195 187 244 197 234 6 -6 93 -120 192 -252z m-924 -643 c210 -59
436 -229 563 -422 53 -82 120 -252 138 -350 16 -90 19 -521 4 -624 -30 -204
-208 -395 -420 -451 -46 -12 -188 -15 -860 -15 l-805 0 -12 51 c-51 215 -299
377 -520 341 -179 -30 -324 -158 -379 -335 l-18 -57 -103 0 c-66 0 -116 5
-137 14 -49 20 -112 81 -135 130 -21 42 -21 56 -21 798 0 831 -3 790 62 864
18 21 55 48 83 61 l50 23 1215 -3 1215 -2 80 -23z m-1700 -1644 c67 -35 122
-92 153 -158 37 -80 37 -193 1 -271 -31 -66 -90 -128 -151 -161 -37 -20 -58
-23 -143 -23 -92 0 -104 2 -154 30 -60 33 -110 87 -143 154 -34 67 -33 207 1
271 47 89 106 144 188 175 61 23 186 14 248 -17z"/>
<path d="M2875 2651 c-75 -19 -132 -69 -157 -138 -19 -55 -19 -881 0 -936 18
-50 56 -93 106 -120 38 -20 57 -22 261 -25 275 -5 309 2 375 68 71 70 72 81
68 575 -3 410 -4 421 -25 461 -28 53 -83 100 -130 113 -43 12 -451 13 -498 2z
m487 -158 c17 -15 18 -42 18 -446 0 -387 -2 -432 -17 -449 -15 -16 -36 -18
-245 -18 -215 0 -229 1 -248 20 -19 19 -20 33 -20 445 0 412 1 426 20 445 19
19 33 20 247 20 197 0 229 -2 245 -17z"/>
<path d="M3224 2282 c-29 -19 -34 -56 -34 -231 0 -99 4 -191 10 -205 12 -32
50 -51 85 -42 48 12 57 56 53 262 -3 162 -5 184 -22 203 -19 21 -70 28 -92 13z"/>
<path d="M1109 2636 c-87 -31 -149 -93 -177 -175 -15 -44 -14 -286 1 -328 22
-60 72 -117 128 -148 l54 -30 435 0 c430 0 436 0 476 22 59 31 121 106 139
166 20 67 20 247 0 314 -18 60 -80 135 -139 166 -40 22 -49 22 -461 24 -327 2
-428 0 -456 -11z m361 -336 l0 -200 -166 0 -166 0 -34 34 -34 34 0 132 0 132
34 34 34 34 166 0 166 0 0 -200z m500 185 c49 -25 60 -60 60 -185 0 -188 -14
-200 -250 -200 l-160 0 0 200 0 200 160 0 c124 0 168 -3 190 -15z"/>
<path d="M1495 1368 c-85 -19 -156 -96 -171 -184 -14 -91 44 -201 130 -247 83
-43 210 -23 273 45 60 64 80 184 44 263 -43 95 -164 149 -276 123z m130 -163
c60 -59 -4 -168 -87 -148 -53 13 -90 82 -67 125 19 36 40 47 87 48 32 0 49 -6
67 -25z"/>
</g>
</svg>
