<?xml version="1.0" standalone="no"?>
<!DOCTYPE svg PUBLIC "-//W3C//DTD SVG 20010904//EN"
 "http://www.w3.org/TR/2001/REC-SVG-20010904/DTD/svg10.dtd">
<svg version="1.0" xmlns="http://www.w3.org/2000/svg"
 width="512.000000pt" height="512.000000pt" viewBox="0 0 512.000000 512.000000"
 preserveAspectRatio="xMidYMid meet">

<g transform="translate(0.000000,512.000000) scale(0.100000,-0.100000)"
fill="#000000" stroke="none">
<path d="M3485 4169 c-451 -243 -838 -450 -861 -461 l-40 -20 -73 47 c-164
106 -320 154 -526 162 -115 4 -157 2 -235 -15 -209 -43 -370 -130 -521 -281
-193 -194 -286 -407 -296 -681 -9 -246 53 -455 189 -638 22 -29 38 -57 36 -61
-2 -4 -138 -133 -303 -285 -165 -153 -321 -300 -348 -326 -52 -54 -60 -87 -27
-120 18 -18 33 -20 135 -20 l115 0 0 -454 c0 -432 1 -455 19 -477 l19 -24 694
-3 c381 -1 703 0 715 3 55 13 53 -1 53 495 l0 459 121 3 c118 3 123 4 141 29
13 17 17 34 13 51 -4 15 -69 83 -166 173 -88 81 -158 150 -155 152 3 3 43 18
91 34 147 50 261 118 374 224 205 194 321 457 321 734 l0 96 138 73 c214 113
196 96 265 242 l62 129 83 -52 c80 -49 85 -50 110 -36 15 8 83 89 152 181 69
92 129 167 133 168 4 0 37 -22 73 -50 38 -30 76 -50 90 -50 24 0 403 197 432
224 17 17 155 652 148 682 -4 13 -15 28 -27 34 -18 10 -306 100 -319 100 -3 0
-374 -199 -825 -441z m889 280 c21 -6 35 -14 30 -19 -5 -5 -146 -86 -314 -179
-167 -94 -308 -177 -312 -184 -24 -38 10 -107 54 -107 11 0 163 81 339 179
175 99 319 176 319 173 0 -3 -21 -101 -46 -216 l-46 -211 -154 -82 c-84 -46
-156 -83 -159 -83 -4 0 -42 27 -84 60 -47 36 -88 60 -103 60 -31 0 -49 -20
-187 -205 -62 -82 -116 -151 -121 -153 -4 -2 -39 17 -77 41 -130 83 -130 83
-232 -122 l-80 -159 -169 -91 c-93 -50 -176 -98 -183 -107 -10 -13 -14 -52
-15 -148 -1 -152 -24 -263 -78 -380 -91 -198 -229 -339 -421 -432 -86 -42
-222 -84 -271 -84 -16 0 -103 75 -286 245 -223 207 -268 245 -293 245 -24 0
-47 -15 -102 -65 -39 -36 -74 -62 -77 -57 -2 4 -10 39 -17 77 -17 100 -7 244
24 334 14 40 28 75 31 78 2 3 20 -7 39 -21 145 -111 360 -47 424 127 30 82 7
195 -54 267 -156 182 -472 70 -473 -168 0 -44 -7 -64 -40 -120 -52 -86 -79
-174 -94 -309 l-12 -108 -21 70 c-38 119 -45 166 -45 285 -1 341 186 644 487
791 114 55 182 75 308 89 96 11 213 2 318 -25 88 -23 232 -93 307 -150 35 -26
73 -47 86 -47 13 0 218 104 457 233 239 128 625 335 859 461 234 125 430 228
435 228 6 0 27 -5 49 -11z m-2767 -1276 c44 -21 73 -66 73 -116 l0 -37 -51 35
c-61 42 -119 59 -172 51 -34 -6 -37 -5 -28 11 21 40 73 71 119 72 13 1 40 -7
59 -16z m-60 -228 l28 -24 -33 -1 c-36 0 -92 24 -92 40 0 21 69 10 97 -15z
m381 -1025 l328 -305 -58 -6 c-105 -11 -98 27 -98 -501 l0 -458 -615 0 -615 0
0 454 c0 528 6 494 -98 505 l-61 6 220 205 c122 113 247 229 280 258 l59 53
42 -40 c51 -49 109 -73 168 -69 35 2 47 8 59 29 28 51 3 88 -72 104 -15 3 -44
20 -64 38 l-35 33 57 52 57 53 59 -53 c32 -29 207 -190 387 -358z"/>
<path d="M1163 1660 c-132 -66 -188 -205 -132 -324 43 -93 203 -301 357 -464
86 -92 97 -90 229 56 195 216 333 419 333 491 0 15 -7 51 -16 81 -21 70 -98
149 -168 173 -75 26 -170 22 -235 -8 l-54 -25 -46 22 c-33 16 -68 24 -126 26
-73 3 -85 1 -142 -28z m193 -115 c20 -8 52 -28 70 -45 19 -16 39 -30 45 -30
16 0 51 21 86 51 67 58 187 41 233 -33 25 -41 25 -69 0 -117 -31 -61 -292
-388 -311 -390 -9 -1 -163 178 -236 274 -89 117 -107 156 -94 198 28 84 124
127 207 92z"/>
<path d="M3683 3098 c-29 -14 -29 -15 -68 -224 -36 -196 -50 -236 -94 -258
-15 -8 -104 -29 -197 -46 -216 -39 -210 -37 -228 -56 -24 -24 -21 -81 7 -98
12 -8 107 -33 211 -55 193 -41 224 -53 251 -95 9 -13 32 -111 51 -217 31 -169
39 -197 60 -216 30 -28 54 -29 83 -5 17 14 29 55 61 207 43 206 57 243 99 268
16 9 116 35 222 57 205 43 229 54 229 105 0 52 -23 62 -230 100 -198 36 -226
47 -262 96 -10 13 -33 98 -53 194 -46 216 -50 230 -81 244 -29 13 -32 13 -61
-1z m111 -551 c23 -24 63 -52 89 -63 26 -10 47 -22 47 -25 0 -4 -13 -9 -29
-12 -66 -13 -169 -129 -171 -192 -1 -12 -13 5 -29 40 -34 72 -78 116 -146 146
l-50 22 41 14 c59 20 119 75 150 140 l28 56 14 -41 c7 -23 32 -61 56 -85z"/>
<path d="M3071 1784 c-24 -31 -25 -35 -10 -68 22 -47 95 -52 118 -7 16 30 13
55 -9 79 -29 31 -73 29 -99 -4z"/>
<path d="M4372 1787 c-53 -57 8 -138 77 -102 38 19 48 60 23 94 -26 36 -71 39
-100 8z"/>
<path d="M3930 1182 c-23 -11 -39 -29 -49 -55 -13 -34 -12 -42 2 -73 32 -66
111 -81 162 -29 52 51 37 133 -30 161 -43 18 -43 18 -85 -4z"/>
</g>
</svg>
