<svg width="32" height="32" viewBox="0 0 32 32" fill="none" xmlns="http://www.w3.org/2000/svg">
<path d="M21.8202 29.9999H10.1802C8.86384 30.0488 7.58139 29.5763 6.61146 28.685C5.64153 27.7937 5.06251 26.5557 5.00019 25.2399V18.9999C5.00019 18.7347 5.10554 18.4804 5.29308 18.2928C5.48062 18.1053 5.73497 17.9999 6.00019 17.9999C6.2654 17.9999 6.51976 18.1053 6.70729 18.2928C6.89483 18.4804 7.00019 18.7347 7.00019 18.9999V25.2399C7.06165 26.0254 7.42962 26.7551 8.02462 27.2716C8.61963 27.788 9.3939 28.0496 10.1802 27.9999H21.8202C22.6065 28.0496 23.3807 27.788 23.9757 27.2716C24.5707 26.7551 24.9387 26.0254 25.0002 25.2399V18.9999C25.0002 18.7347 25.1055 18.4804 25.2931 18.2928C25.4806 18.1053 25.735 17.9999 26.0002 17.9999C26.2654 17.9999 26.5198 18.1053 26.7073 18.2928C26.8948 18.4804 27.0002 18.7347 27.0002 18.9999V25.2399C26.9379 26.5557 26.3588 27.7937 25.3889 28.685C24.419 29.5763 23.1365 30.0488 21.8202 29.9999ZM29.7102 16.7099C29.8039 16.617 29.8783 16.5064 29.9291 16.3845C29.9798 16.2627 30.006 16.132 30.006 15.9999C30.006 15.8679 29.9798 15.7372 29.9291 15.6154C29.8783 15.4935 29.8039 15.3829 29.7102 15.2899L16.7102 2.28994C16.6172 2.19621 16.5066 2.12182 16.3848 2.07105C16.2629 2.02028 16.1322 1.99414 16.0002 1.99414C15.8682 1.99414 15.7375 2.02028 15.6156 2.07105C15.4937 2.12182 15.3831 2.19621 15.2902 2.28994L2.29019 15.2899C2.10188 15.4782 1.99609 15.7336 1.99609 15.9999C1.99609 16.2662 2.10188 16.5216 2.29019 16.7099C2.47849 16.8982 2.73388 17.004 3.00019 17.004C3.26649 17.004 3.52188 16.8982 3.71019 16.7099L16.0002 4.40994L28.2902 16.7099C28.3831 16.8037 28.4937 16.8781 28.6156 16.9288C28.7375 16.9796 28.8682 17.0057 29.0002 17.0057C29.1322 17.0057 29.2629 16.9796 29.3848 16.9288C29.5066 16.8781 29.6172 16.8037 29.7102 16.7099Z" fill="#353535"/>
<path d="M14.8284 25.1716C14.3928 24.7359 13.8742 24.4134 13.3084 24.2182C13.9144 23.8008 14.3125 23.1023 14.3125 22.3125C14.3125 21.0374 13.2751 20 12 20C10.7249 20 9.6875 21.0374 9.6875 22.3125C9.6875 23.1023 10.0856 23.8008 10.6916 24.2182C10.1258 24.4134 9.60725 24.7359 9.17158 25.1716C8.41608 25.9271 8 26.9316 8 28H8.625C8.625 26.139 10.139 24.625 12 24.625C13.861 24.625 15.375 26.139 15.375 28H16C16 26.9316 15.5839 25.9271 14.8284 25.1716ZM12 24C11.0695 24 10.3125 23.243 10.3125 22.3125C10.3125 21.382 11.0695 20.625 12 20.625C12.9305 20.625 13.6875 21.382 13.6875 22.3125C13.6875 23.243 12.9305 24 12 24Z" fill="#353535" stroke="#353535" stroke-width="0.5"/>
<path d="M22.8284 25.1716C22.3928 24.7359 21.8742 24.4134 21.3084 24.2182C21.9144 23.8008 22.3125 23.1023 22.3125 22.3125C22.3125 21.0374 21.2751 20 20 20C18.7249 20 17.6875 21.0374 17.6875 22.3125C17.6875 23.1023 18.0856 23.8008 18.6916 24.2182C18.1258 24.4134 17.6072 24.7359 17.1716 25.1716C16.4161 25.9271 16 26.9316 16 28H16.625C16.625 26.139 18.139 24.625 20 24.625C21.861 24.625 23.375 26.139 23.375 28H24C24 26.9316 23.5839 25.9271 22.8284 25.1716ZM20 24C19.0695 24 18.3125 23.243 18.3125 22.3125C18.3125 21.382 19.0695 20.625 20 20.625C20.9305 20.625 21.6875 21.382 21.6875 22.3125C21.6875 23.243 20.9305 24 20 24Z" fill="#353535" stroke="#353535" stroke-width="0.5"/>
</svg>
