<svg width="32" height="32" viewBox="0 0 32 32" fill="none" xmlns="http://www.w3.org/2000/svg">
<g clip-path="url(#clip0_220_18693)">
<path d="M31.6597 13.004L16.4912 1.8979C16.1987 1.68377 15.8013 1.68377 15.509 1.8979L0.340349 13.004C-0.0301513 13.2753 -0.110651 13.7955 0.160661 14.166C0.431974 14.5365 0.952286 14.6169 1.32272 14.3457L16 3.59921L30.6773 14.3456C30.8253 14.4541 30.9973 14.5063 31.1678 14.5063C31.4238 14.5063 31.6765 14.3885 31.8393 14.166C32.1107 13.7955 32.0302 13.2753 31.6597 13.004Z" fill="white"/>
<path d="M27.6404 14.5339C27.1813 14.5339 26.809 14.9062 26.809 15.3654V28.5997H20.1576V21.3756C20.1576 19.0831 18.2925 17.2181 16.0001 17.2181C13.7078 17.2181 11.8426 19.0832 11.8426 21.3756V28.5997H5.1912V15.3654C5.1912 14.9062 4.81888 14.534 4.35976 14.534C3.90063 14.534 3.52832 14.9062 3.52832 15.3654V29.4312C3.52832 29.8904 3.90063 30.2627 4.35976 30.2627H12.6741C13.1113 30.2627 13.4691 29.9249 13.5023 29.496C13.5043 29.4766 13.5055 29.4553 13.5055 29.4312V21.3756C13.5055 20.0001 14.6246 18.881 16.0001 18.881C17.3757 18.881 18.4948 20.0001 18.4948 21.3756V29.4312C18.4948 29.4552 18.496 29.4761 18.498 29.4952C18.5308 29.9244 18.8887 30.2627 19.3262 30.2627H27.6405C28.0997 30.2627 28.4719 29.8904 28.4719 29.4312V15.3654C28.4719 14.9062 28.0996 14.5339 27.6404 14.5339Z" fill="white"/>
</g>
<defs>
<clipPath id="clip0_220_18693">
<rect width="32" height="32" fill="white"/>
</clipPath>
</defs>
</svg>
