<svg width="14" height="14" viewBox="0 0 14 14" fill="none" xmlns="http://www.w3.org/2000/svg">
<g clip-path="url(#clip0_942_19010)">
<path d="M13.3001 13.5333H11.9001V0.233324C11.9001 0.0933242 11.8068 0 11.6668 0H2.33345C2.19345 0 2.10012 0.0933242 2.10012 0.233324V13.5333H0.700121C0.560121 13.5333 0.466797 13.6266 0.466797 13.7666C0.466797 13.9066 0.560121 14 0.700121 14H2.33345H3.26677H10.7334H11.6668H13.3001C13.4401 14 13.5334 13.9067 13.5334 13.7667C13.5334 13.6267 13.4401 13.5333 13.3001 13.5333ZM3.50012 13.5333V1.4H10.5001V13.5333H3.50012ZM10.9668 13.5333V1.16668C10.9668 1.02668 10.8735 0.933352 10.7335 0.933352H3.2668C3.1268 0.933352 3.03347 1.02668 3.03347 1.16668V13.5334H2.5668V0.466676H11.4335V13.5334H10.9668V13.5333Z" fill="#232323"/>
<path d="M9.80024 6.7666H8.86692C8.72692 6.7666 8.63359 6.85993 8.63359 6.99993V7.23325H8.16692C8.02692 7.23325 7.93359 7.32657 7.93359 7.46657C7.93359 7.60657 8.02692 7.6999 8.16692 7.6999H8.63359V7.93322C8.63359 8.07322 8.72692 8.16655 8.86692 8.16655H9.80024C9.94024 8.16655 10.0336 8.07322 10.0336 7.93322V6.99993C10.0336 6.85993 9.94024 6.7666 9.80024 6.7666ZM9.56692 7.69993H9.10024V7.23325H9.56692V7.69993Z" fill="#232323"/>
</g>
<defs>
<clipPath id="clip0_942_19010">
<rect width="14" height="14" fill="white"/>
</clipPath>
</defs>
</svg>
