<svg width="64" height="64" viewBox="0 0 64 64" fill="none" xmlns="http://www.w3.org/2000/svg">
<path d="M53.376 51.4561L44.8 48.2561L53.376 45.0561C54.528 44.6081 55.424 43.7761 55.872 42.6881C56.384 41.6001 56.384 40.3841 56 39.2961C55.616 38.1441 54.784 37.3121 53.696 36.8001C52.608 36.2881 51.392 36.2881 50.24 36.6721L46.528 38.0801C47.936 35.6481 48.64 32.8321 48.64 29.8881C48.64 26.1121 47.68 23.1041 45.632 20.3521C45.632 20.2881 45.568 20.2241 45.504 20.2241C40.192 13.8881 40.192 5.31211 40.192 5.18411C40.192 4.67211 39.936 4.22411 39.488 4.03211C39.04 3.77611 38.528 3.84011 38.144 4.09611C29.184 10.4961 26.048 18.7521 25.024 22.7201C23.872 21.1201 23.424 18.8801 23.36 17.8561C23.296 17.4081 23.04 16.9601 22.592 16.7681C22.144 16.5761 21.632 16.6401 21.312 16.9601C17.472 20.1601 15.232 24.8321 15.232 29.8241C15.232 32.7681 16 35.5841 17.344 38.0161L13.632 36.6081C12.48 36.1601 11.264 36.2241 10.176 36.7361C9.08798 37.2481 8.25598 38.1441 7.87198 39.2321C7.42398 40.3841 7.48798 41.5361 7.99998 42.6241C8.51198 43.7121 9.40798 44.5441 10.496 44.9921L19.072 48.1921L10.496 51.3921C9.34398 51.8401 8.44798 52.6721 7.99998 53.7601C7.48798 54.8481 7.48798 56.0641 7.87198 57.2161C8.25598 58.3681 9.08798 59.2001 10.176 59.7121C10.752 59.9681 11.392 60.0961 12.032 60.0961C12.544 60.0961 13.12 60.0321 13.632 59.8401L32 53.0561L50.24 59.8401C50.752 60.0321 51.264 60.0961 51.84 60.0961C52.48 60.0961 53.12 59.9681 53.696 59.7121C54.784 59.2001 55.616 58.3041 56 57.2161C56.448 56.0641 56.384 54.8481 55.872 53.7601C55.36 52.6721 54.464 51.8401 53.376 51.4561ZM51.136 39.0401C51.392 38.9761 51.584 38.9121 51.84 38.9121C52.096 38.9121 52.352 38.9761 52.608 39.1041C53.056 39.2961 53.44 39.6801 53.632 40.1921C53.824 40.7041 53.824 41.2161 53.568 41.6641C53.376 42.1121 52.992 42.4961 52.48 42.6881L41.152 46.9121L35.648 44.8641L51.136 39.0401ZM32 43.4561L27.392 41.7281C26.24 40.5761 25.6 38.9761 25.6 37.3121C25.6 36.1601 25.92 35.0081 26.496 33.9841C26.88 34.7521 27.456 35.5841 28.352 36.0961C28.736 36.2881 29.184 36.2881 29.568 36.0961C29.952 35.9041 30.208 35.5201 30.272 35.1361C30.272 35.0721 30.784 31.0401 34.496 27.4561C34.816 29.1841 35.584 31.5521 37.248 33.6001C38.016 34.6241 38.4 35.7761 38.4 37.2481C38.4 38.9761 37.76 40.5121 36.608 41.6641L32 43.4561ZM21.44 20.5441C21.952 22.4641 23.104 25.0241 25.344 26.3041C25.728 26.4961 26.176 26.5601 26.56 26.3681C26.944 26.1761 27.2 25.7921 27.264 25.3441C27.264 25.2161 28.544 15.4241 37.888 7.61611C38.272 10.8801 39.488 16.7681 43.52 21.6961C43.52 21.6961 43.52 21.7601 43.584 21.7601C45.312 24.0641 46.144 26.5601 46.144 29.8241C46.144 33.6001 44.672 37.0561 42.176 39.6801L40.512 40.3201C40.832 39.3601 41.024 38.4001 41.024 37.3121C41.024 35.2641 40.512 33.6641 39.424 32.1921C39.424 32.1281 39.36 32.1281 39.36 32.0641C36.864 29.0561 36.864 25.0241 36.864 24.9601C36.864 24.4481 36.608 24.0001 36.16 23.8081C35.712 23.6161 35.2 23.6161 34.816 23.9361C31.232 26.4961 29.44 29.6961 28.544 31.9361C28.48 31.6801 28.416 31.4241 28.416 31.2961C28.352 30.8481 28.096 30.4001 27.648 30.2081C27.2 30.0161 26.688 30.0801 26.368 30.4001C24.32 32.1281 23.104 34.6241 23.104 37.3121C23.104 38.3361 23.296 39.3601 23.616 40.3201L21.952 39.6801C19.456 37.1201 17.984 33.6001 17.984 29.8241C17.92 26.3681 19.136 23.1041 21.44 20.5441ZM12.864 57.4721C12.352 57.6641 11.84 57.6001 11.392 57.4081C10.944 57.2161 10.56 56.8321 10.368 56.3201C10.176 55.8081 10.176 55.2961 10.432 54.8481C10.624 54.4001 11.008 54.0161 11.52 53.8241L22.848 49.6001L28.352 51.6481L12.864 57.4721ZM53.568 56.3201C53.376 56.8321 53.056 57.2161 52.544 57.4081C52.096 57.6001 51.584 57.6641 51.072 57.4721L11.52 42.6881C11.008 42.4961 10.688 42.1761 10.432 41.6641C10.24 41.2161 10.176 40.6401 10.368 40.1921C10.56 39.6801 10.88 39.3601 11.392 39.1041C11.648 38.9761 11.904 38.9121 12.16 38.9121C12.416 38.9121 12.608 38.9761 12.864 39.0401L52.48 53.8241C52.992 54.0161 53.312 54.3361 53.568 54.8481C53.76 55.2961 53.76 55.8081 53.568 56.3201Z" fill="black"/>
</svg>
