<?xml version="1.0" standalone="no"?>
<!DOCTYPE svg PUBLIC "-//W3C//DTD SVG 20010904//EN"
 "http://www.w3.org/TR/2001/REC-SVG-20010904/DTD/svg10.dtd">
<svg version="1.0" xmlns="http://www.w3.org/2000/svg"
 width="512.000000pt" height="512.000000pt" viewBox="0 0 512.000000 512.000000"
 preserveAspectRatio="xMidYMid meet">

<g transform="translate(0.000000,512.000000) scale(0.100000,-0.100000)"
fill="#000000" stroke="none">
<path d="M1315 5004 c-200 -44 -374 -183 -465 -369 -73 -151 -71 -102 -68
-1390 l3 -1150 24 -38 c13 -21 42 -50 64 -65 34 -23 52 -27 107 -27 55 0 73 4
107 27 22 15 51 44 64 65 23 36 24 49 27 221 l4 182 898 0 898 0 4 -182 c3
-172 4 -185 27 -221 13 -21 42 -50 64 -65 34 -22 52 -27 106 -27 79 0 128 25
169 88 l27 41 5 1160 5 1161 23 47 c81 164 299 208 434 88 58 -50 86 -111 98
-208 17 -133 82 -197 200 -197 78 0 127 26 168 88 25 37 27 48 26 136 -2 169
-69 324 -195 450 -330 330 -885 236 -1089 -184 -63 -129 -70 -188 -70 -555 l0
-320 -900 0 -900 0 0 308 c0 369 3 387 84 468 56 56 122 84 196 84 101 0 207
-67 249 -155 12 -26 26 -81 31 -123 17 -134 81 -197 201 -197 54 0 72 5 106
27 22 15 51 44 64 65 21 33 24 49 23 133 -4 346 -291 632 -649 646 -67 2 -123
-1 -170 -12z m1665 -1894 l0 -250 -900 0 -900 0 0 250 0 250 900 0 900 0 0
-250z"/>
<path d="M110 1738 c-25 -14 -58 -44 -75 -67 -26 -37 -30 -51 -30 -111 0 -62
3 -72 38 -123 22 -31 72 -87 112 -125 156 -148 316 -230 556 -284 137 -30 398
-32 528 -5 186 40 330 99 464 191 37 25 70 46 73 46 3 0 23 -13 43 -28 112
-88 289 -166 462 -203 149 -33 409 -33 558 0 172 37 329 104 448 192 29 22 55
39 57 39 3 0 36 -21 73 -46 404 -276 994 -284 1405 -18 87 56 203 166 255 242
35 50 38 60 38 121 0 56 -4 74 -27 108 -50 76 -136 108 -227 83 -32 -8 -56
-25 -90 -63 -128 -142 -195 -189 -337 -236 -236 -78 -488 -64 -704 41 -72 35
-100 57 -180 139 -99 101 -143 129 -205 129 -62 0 -104 -27 -204 -129 -81 -84
-109 -105 -181 -140 -138 -67 -219 -84 -400 -84 -181 0 -260 16 -400 84 -72
35 -100 56 -181 140 -100 102 -142 129 -204 129 -62 0 -106 -28 -205 -129 -80
-82 -108 -104 -180 -139 -346 -169 -826 -89 -1016 169 -46 63 -91 90 -162 96
-47 4 -65 1 -102 -19z"/>
<path d="M110 838 c-25 -14 -58 -44 -75 -67 -26 -37 -30 -51 -30 -111 0 -62 3
-72 38 -123 22 -31 72 -87 112 -125 156 -148 316 -230 556 -284 137 -30 398
-32 528 -5 186 40 330 99 466 192 45 31 73 44 81 39 248 -179 463 -248 774
-248 287 0 511 65 716 209 36 25 67 45 69 45 3 0 35 -21 72 -46 404 -276 994
-284 1405 -18 87 56 203 166 255 242 35 50 38 60 38 122 0 60 -4 74 -30 111
-38 53 -103 89 -163 89 -67 0 -125 -32 -178 -101 -205 -261 -667 -337 -1014
-167 -72 35 -100 57 -180 139 -99 101 -143 129 -205 129 -62 0 -104 -27 -204
-129 -81 -84 -109 -105 -181 -140 -139 -67 -219 -84 -400 -84 -181 0 -261 17
-400 84 -72 35 -100 56 -181 140 -100 102 -142 129 -204 129 -62 0 -106 -28
-205 -129 -80 -82 -108 -104 -180 -139 -346 -169 -826 -89 -1016 169 -46 63
-91 90 -162 96 -47 4 -65 1 -102 -19z"/>
</g>
</svg>
