<svg width="14" height="14" viewBox="0 0 14 14" fill="none" xmlns="http://www.w3.org/2000/svg">
<g clip-path="url(#clip0_942_19042)">
<path d="M12.8341 7.65116L10.3108 8.51938L9.29338 7.93605V7V6.07752L10.3108 5.49419L12.8341 6.3624C13.0104 6.43023 13.2139 6.3217 13.2682 6.14535C13.336 5.96899 13.2275 5.7655 13.0511 5.71124L11.0976 5.04651L12.929 3.98837C13.0918 3.89341 13.1461 3.67636 13.0511 3.51357C12.9562 3.35078 12.7391 3.29651 12.5763 3.39147L10.7449 4.44961L11.1383 2.42829C11.179 2.23837 11.0569 2.06202 10.867 2.02132C10.6771 1.98062 10.5007 2.10271 10.46 2.29264L9.94455 4.91085L8.9271 5.49419L8.15385 5.04651L8.14028 5.03295L7.35346 4.57171V3.40504L9.36121 1.65504C9.51044 1.53295 9.524 1.31589 9.38834 1.16667C9.26625 1.01744 9.0492 1.00388 8.89997 1.13953L7.35346 2.49612V0.352713C7.35346 0.162791 7.20424 0 7.00075 0C6.81083 0 6.64804 0.149225 6.64804 0.352713V2.46899L5.10152 1.12597C4.9523 1.00388 4.73524 1.01744 4.61315 1.1531C4.49106 1.30233 4.50462 1.51938 4.64028 1.64147L6.64804 3.39147V4.55814L5.86121 5.01938L5.07439 5.48062L4.05695 4.89729L3.54145 2.27907C3.50075 2.08915 3.32439 1.96705 3.13447 2.00775C2.94455 2.04845 2.82245 2.22481 2.86315 2.41473L3.25656 4.43605L1.42517 3.37791C1.26238 3.28295 1.04532 3.33721 0.950361 3.5C0.8554 3.66279 0.909663 3.87984 1.07245 3.97481L2.90385 5.03295L0.950361 5.69767C0.774004 5.7655 0.665477 5.95543 0.733307 6.13178C0.801136 6.30814 0.991059 6.41667 1.16742 6.34884L3.69067 5.48062L4.70811 6.06395V7V7.92248H4.72168L3.70424 8.50581L1.18098 7.6376C1.00462 7.56977 0.801136 7.67829 0.746872 7.85465C0.679043 8.03101 0.78757 8.2345 0.963927 8.28876L2.91741 8.95349L1.08602 10.0116C0.923229 10.1066 0.868965 10.3236 0.963927 10.4864C1.05889 10.6492 1.27594 10.7035 1.43873 10.6085L3.27013 9.55039L2.87672 11.5717C2.83602 11.7616 2.95811 11.938 3.14804 11.9787C3.33796 12.0194 3.51431 11.8973 3.55501 11.7074L4.07052 9.08915L5.08796 8.50581L5.88835 8.96705L6.67517 9.42829V10.595L4.66741 12.345C4.51819 12.4671 4.50462 12.6841 4.64028 12.8333C4.76238 12.9826 4.97943 12.9961 5.12865 12.8605L6.67517 11.5039V13.6473C6.67517 13.8372 6.82439 14 7.02788 14C7.2178 14 7.38059 13.8508 7.38059 13.6473V11.531L8.9271 12.8876C9.07633 13.0097 9.29338 12.9961 9.41548 12.8605C9.53757 12.7112 9.524 12.4942 9.38834 12.3721L7.35346 10.6085V9.44186L8.14028 8.98062L8.9271 8.51938L9.94455 9.10271L10.46 11.7209C10.5007 11.9109 10.6771 12.0329 10.867 11.9922C11.0569 11.9515 11.179 11.7752 11.1383 11.5853L10.7449 9.56395L12.5763 10.6221C12.7391 10.7171 12.9562 10.6628 13.0511 10.5C13.1461 10.3372 13.0918 10.1202 12.929 10.0252L11.0976 8.96705L13.0511 8.30233C13.2275 8.2345 13.336 8.04457 13.2682 7.86822C13.2004 7.69186 13.0104 7.58333 12.8341 7.65116ZM8.56083 7V7.92248L7.774 8.38372L7.00075 8.83139L6.20036 8.37015L5.41354 7.90891V7V6.07752L6.20036 5.61628L6.98718 5.15504L7.774 5.61628L7.78757 5.62984L8.56083 6.07752V7Z" fill="#232323"/>
</g>
<defs>
<clipPath id="clip0_942_19042">
<rect width="14" height="14" fill="white"/>
</clipPath>
</defs>
</svg>
