<svg width="14" height="14" viewBox="0 0 14 14" fill="none" xmlns="http://www.w3.org/2000/svg">
<path d="M13.1233 6.54534V3.60244C13.1233 3.24762 12.8346 2.95898 12.4798 2.95898H1.52026C1.16545 2.95898 0.876805 3.24762 0.876805 3.60244V6.54534C0.178555 6.89011 0 7.24941 0 7.52635V10.6165C0 10.8505 0.190313 11.0408 0.424266 11.0408H0.902152C1.10368 11.0408 1.27865 10.8973 1.31819 10.6997L1.43166 10.1324C1.45338 10.0237 1.5496 9.94485 1.66042 9.94485H12.3396C12.4504 9.94485 12.5466 10.0237 12.5683 10.1324L12.6818 10.6998C12.7214 10.8974 12.8963 11.0408 13.0978 11.0408H13.5757C13.8097 11.0408 14 10.8505 14 10.6165V7.52635C14 7.24941 13.8214 6.89011 13.1233 6.54534ZM1.28693 3.60244C1.28693 3.47379 1.39161 3.36914 1.52023 3.36914H12.4798C12.6084 3.36914 12.7131 3.47381 12.7131 3.60244V6.36839C12.4721 6.27696 12.1884 6.18782 11.8554 6.10294C11.792 6.08681 11.7274 6.07111 11.6621 6.05566C11.7555 5.91643 11.8081 5.75048 11.8081 5.57515V4.91756C11.8081 4.44189 11.4211 4.05492 10.9454 4.05492H7.65756C7.3943 4.05492 7.15835 4.17359 7 4.36011C6.84165 4.17359 6.6057 4.05492 6.34244 4.05492H3.05454C2.57887 4.05492 2.1919 4.44192 2.1919 4.91756V5.57515C2.1919 5.74944 2.24462 5.91583 2.33833 6.05555C2.27287 6.071 2.20809 6.08673 2.1446 6.10291C1.81152 6.18782 1.52794 6.27696 1.28693 6.36837V3.60244ZM11.3979 4.91759V5.57518C11.3979 5.72992 11.3202 5.87093 11.1925 5.95408C10.0485 5.72809 8.66502 5.60105 7.20505 5.59014V4.91759H7.20508C7.20508 4.66808 7.40805 4.46511 7.65756 4.46511H10.9454C11.1949 4.46511 11.3979 4.66808 11.3979 4.91759ZM6.79489 4.91756V5.59011C5.3349 5.60102 3.95139 5.72809 2.80733 5.95408C2.67993 5.87082 2.60206 5.72874 2.60206 5.57515V4.91756C2.60206 4.66805 2.80503 4.46508 3.05454 4.46508H6.34241C6.59192 4.46508 6.79489 4.66808 6.79489 4.91756ZM13.5898 10.6165C13.5898 10.6243 13.5835 10.6307 13.5757 10.6307H13.0978C13.0911 10.6307 13.0853 10.6259 13.084 10.6193L12.9705 10.052C12.9106 9.75224 12.6453 9.53469 12.3396 9.53469H1.66042C1.35475 9.53469 1.0894 9.75224 1.02946 10.052L0.915988 10.6193C0.914676 10.6259 0.908852 10.6307 0.902152 10.6307H0.424266C0.416473 10.6307 0.410156 10.6243 0.410156 10.6165V8.84891H11.603C11.7163 8.84891 11.8081 8.75709 11.8081 8.64383C11.8081 8.53057 11.7163 8.43875 11.603 8.43875H0.410156V7.52637C0.410156 7.25657 0.892418 6.84538 2.24591 6.50036C3.51323 6.17732 5.2016 5.99942 7 5.99942C8.7984 5.99942 10.4868 6.17732 11.7541 6.50036C13.1076 6.84535 13.5898 7.25657 13.5898 7.52637V8.43875H12.4797C12.3665 8.43875 12.2747 8.53057 12.2747 8.64383C12.2747 8.75709 12.3665 8.84891 12.4797 8.84891H13.5898V10.6165Z" fill="#232323"/>
</svg>
