<svg width="14" height="14" viewBox="0 0 14 14" fill="none" xmlns="http://www.w3.org/2000/svg">
<path d="M1.3125 7.21875H1.75V7.65625H1.3125V7.21875Z" fill="#232323"/>
<path d="M12.25 7.21875H12.6875V7.65625H12.25V7.21875Z" fill="#232323"/>
<path d="M6.78125 5.6875H7.21875V6.125H6.78125V5.6875Z" fill="#232323"/>
<path d="M11.5633 2.90664C10.3409 2.44284 8.72033 2.1875 7 2.1875C5.27967 2.1875 3.65906 2.44284 2.43671 2.90664C1.14751 3.39552 0.4375 4.07241 0.4375 4.8125V7.4375C0.4375 8.36719 1.53429 9.1761 3.44665 9.65686L3.55329 9.23254C1.90127 8.81724 0.875 8.12943 0.875 7.4375C0.875 6.90006 1.50079 6.35444 2.59189 5.94057C3.76589 5.49525 5.33138 5.25 7 5.25C8.66862 5.25 10.2341 5.49525 11.4081 5.94057C12.4992 6.35444 13.125 6.90006 13.125 7.4375C13.125 8.12943 12.0987 8.81724 10.4467 9.23254L10.5533 9.65686C12.4657 9.1761 13.5625 8.36719 13.5625 7.4375V4.8125C13.5625 4.07241 12.8525 3.39552 11.5633 2.90664ZM11.5633 5.53164C10.3409 5.06784 8.72033 4.8125 7 4.8125C5.27967 4.8125 3.65906 5.06784 2.43671 5.53164C1.74491 5.794 1.22032 6.11051 0.882301 6.46177C0.955062 5.95746 1.56898 5.45368 2.59189 5.0657C3.76589 4.62025 5.33138 4.375 7 4.375C8.66862 4.375 10.2341 4.62025 11.4081 5.06557C12.431 5.45355 13.0449 5.95733 13.1177 6.46163C12.7797 6.11037 12.255 5.79387 11.5633 5.53164ZM11.5633 4.65664C10.3409 4.19284 8.72033 3.9375 7 3.9375C5.27967 3.9375 3.65906 4.19284 2.43671 4.65664C1.73994 4.92078 1.21275 5.24005 0.875 5.59453V4.8125C0.875 4.27506 1.50079 3.72944 2.59189 3.31557C3.76589 2.87025 5.33138 2.625 7 2.625C8.66862 2.625 10.2341 2.87025 11.4081 3.31557C12.4992 3.72944 13.125 4.27506 13.125 4.8125V5.59453C12.7872 5.24005 12.2601 4.92078 11.5633 4.65664Z" fill="#232323"/>
<path d="M10.629 8.32446C10.6755 8.23229 10.6995 8.1304 10.6989 8.02718C10.6983 7.92395 10.6732 7.82234 10.6257 7.73069C10.391 7.2845 9.77424 7.01234 9.29816 6.86261C8.65186 6.65934 7.83563 6.54736 6.99984 6.54736C6.16405 6.54736 5.34781 6.65934 4.70151 6.86261C4.22543 7.01234 3.60864 7.2845 3.37395 7.73069C3.32644 7.82234 3.30137 7.92395 3.30079 8.02718C3.30022 8.1304 3.32415 8.23229 3.37064 8.32446L4.5967 10.7766C4.62831 11.0716 4.902 11.3304 5.37545 11.51C5.81279 11.6758 6.38969 11.7672 6.99984 11.7672C7.60999 11.7672 8.18688 11.6758 8.62422 11.51C9.09768 11.3304 9.37136 11.0716 9.40297 10.7766L10.629 8.32446ZM3.76116 7.93438C4.00326 7.47407 5.22063 6.98486 6.99984 6.98486C8.77904 6.98486 9.99641 7.47407 10.2385 7.93438C10.2538 7.96453 10.2617 7.99788 10.2615 8.03168C10.2614 8.06547 10.2532 8.09876 10.2377 8.12879L9.17752 10.2492C9.04605 10.1259 8.8599 10.0168 8.62422 9.92746C8.18688 9.76168 7.60999 9.67021 6.99984 9.67021C6.38969 9.67021 5.81279 9.76157 5.37545 9.92746C5.13978 10.0169 4.95362 10.1259 4.82215 10.2492L3.76195 8.12879C3.74645 8.09876 3.7383 8.06547 3.73816 8.03168C3.73802 7.99788 3.7459 7.96453 3.76116 7.93438ZM8.46904 11.1008C8.08005 11.2484 7.55828 11.3296 6.99984 11.3296C6.4414 11.3296 5.91976 11.2483 5.53063 11.1008C5.18555 10.97 5.03109 10.8146 5.03109 10.7187C5.03109 10.6228 5.18555 10.4674 5.53063 10.3365C5.91962 10.1889 6.4414 10.1077 6.99984 10.1077C7.55828 10.1077 8.07992 10.189 8.46904 10.3365C8.81412 10.4674 8.96859 10.6228 8.96859 10.7187C8.96859 10.8146 8.81412 10.97 8.46904 11.1009V11.1008Z" fill="#232323"/>
<path d="M6.78125 7.65625H7.21875V8.96875H6.78125V7.65625Z" fill="#232323"/>
<path d="M7.70752 9.09619L7.92574 7.78422L8.35711 7.85597L8.13889 9.16794L7.70752 9.09619Z" fill="#232323"/>
<path d="M8.57324 9.3938L8.96924 8.12475L9.38705 8.25512L8.99105 9.52417L8.57324 9.3938Z" fill="#232323"/>
<path d="M5.63037 7.85547L6.06175 7.78372L6.27996 9.09569L5.84859 9.16744L5.63037 7.85547Z" fill="#232323"/>
<path d="M4.62061 8.2605L5.03842 8.13012L5.43442 9.39918L5.0166 9.52955L4.62061 8.2605Z" fill="#232323"/>
<path d="M6.78125 10.5H7.21875V10.9375H6.78125V10.5Z" fill="#232323"/>
</svg>
