<svg width="16" height="16" viewBox="0 0 16 16" fill="none" xmlns="http://www.w3.org/2000/svg">
<path d="M6.80033 14.5113C6.71458 14.5113 6.62865 14.5014 6.54514 14.4817L2.54514 13.5467C2.0357 13.4276 1.68018 12.9791 1.68018 12.4561V3.54362C1.68018 3.0201 2.03602 2.57162 2.5453 2.4529L6.54497 1.5177C6.87522 1.44058 7.2317 1.52138 7.49602 1.73098C7.76561 1.94458 7.92002 2.26426 7.92002 2.60826V13.3915C7.92002 13.7355 7.76545 14.0551 7.49602 14.2687C7.29889 14.4252 7.05169 14.5113 6.80033 14.5113ZM6.7997 2.12842C6.76306 2.12842 6.72625 2.13258 6.69041 2.14106L2.69074 3.07626C2.4725 3.12714 2.32018 3.31946 2.32018 3.54378V12.4563C2.32018 12.6804 2.47266 12.8727 2.69074 12.9238L6.69074 13.8588C6.83154 13.8911 6.98482 13.8574 7.09858 13.7675C7.21394 13.6761 7.28018 13.539 7.28018 13.3916V2.60842C7.28018 2.46106 7.21394 2.3241 7.09858 2.23258C7.01394 2.16538 6.9077 2.12842 6.7997 2.12842Z" fill="#232323"/>
<path d="M10.8003 13.1199H7.60027C7.42363 13.1199 7.28027 12.9765 7.28027 12.7999V3.19988C7.28027 3.02324 7.42363 2.87988 7.60027 2.87988H10.8003C11.4177 2.87988 11.9203 3.38244 11.9203 3.99988V6.71988C11.9203 6.89652 11.7769 7.03988 11.6003 7.03988C11.4236 7.03988 11.2803 6.89652 11.2803 6.71988V3.99988C11.2803 3.73524 11.0649 3.51988 10.8003 3.51988H7.92027V12.4799H10.8003C11.0649 12.4799 11.2803 12.2645 11.2803 11.9999V9.27988C11.2803 9.10324 11.4236 8.95988 11.6003 8.95988C11.7769 8.95988 11.9203 9.10324 11.9203 9.27988V11.9999C11.9203 12.6173 11.4177 13.1199 10.8003 13.1199Z" fill="#232323"/>
<path d="M14.0002 8.31993H8.84246C8.66582 8.31993 8.52246 8.17657 8.52246 7.99993C8.52246 7.82329 8.66582 7.67993 8.84246 7.67993H14.0002C14.1769 7.67993 14.3202 7.82329 14.3202 7.99993C14.3202 8.17657 14.1769 8.31993 14.0002 8.31993Z" fill="#232323"/>
<path d="M13.3204 9.59993C13.3905 9.59993 13.4612 9.57689 13.5201 9.52985L15.1201 8.24985C15.1961 8.18921 15.2402 8.09721 15.2402 7.99993C15.2402 7.90265 15.1961 7.81065 15.1201 7.75001L13.5201 6.47001C13.3823 6.35977 13.1807 6.38185 13.0703 6.51993C12.9599 6.65785 12.9822 6.85929 13.1202 6.96969L14.4081 7.99993L13.1204 9.03001C12.9823 9.14025 12.9599 9.34169 13.0705 9.47977C13.1335 9.55881 13.2266 9.59993 13.3204 9.59993Z" fill="#232323"/>
</svg>
