<svg width="14" height="14" viewBox="0 0 14 14" fill="none" xmlns="http://www.w3.org/2000/svg">
<g clip-path="url(#clip0_942_20357)">
<path d="M13.6772 3.59966H12.2306V1.58711C12.2306 1.56586 12.2274 1.54546 12.2215 1.52623H13.1221C13.543 1.52623 13.8853 1.1839 13.8853 0.763062C13.8853 0.342331 13.543 0 13.1221 0H10.4962C10.3336 0 10.1783 0.0505218 10.047 0.146225L2.13326 5.90796C2.04034 5.97557 2.01983 6.10577 2.08755 6.1987C2.15516 6.29163 2.28536 6.31213 2.37829 6.24442L10.2921 0.482681C10.3518 0.439209 10.4224 0.416245 10.4962 0.416245H13.1222C13.3134 0.416245 13.4691 0.571762 13.4691 0.763062C13.4691 0.954361 13.3134 1.10988 13.1222 1.10988H10.6768C10.6328 1.10988 10.5899 1.12387 10.5543 1.14983L0.966987 8.13007C0.907279 8.17354 0.836783 8.1965 0.763297 8.1965C0.650825 8.1965 0.548499 8.14449 0.48249 8.0538C0.36991 7.89914 0.40409 7.68178 0.558646 7.5692L1.61095 6.80315C1.70388 6.73543 1.72439 6.60533 1.65667 6.51241C1.58906 6.41948 1.45885 6.39897 1.36593 6.46669L0.313621 7.23274C-0.0264674 7.48044 -0.101769 7.95863 0.145926 8.29883C0.289054 8.49536 0.519874 8.61275 0.763297 8.61275C0.925437 8.61275 1.08063 8.56223 1.21201 8.46652L1.53832 8.22897V10.5477H0.688422C0.375144 10.5477 0.120292 10.8026 0.120292 11.1159C0.120292 11.4292 0.375144 11.684 0.688422 11.684H0.744819V13.7919C0.744819 13.9069 0.838065 14 0.952994 14H13.6772C13.7922 14 13.8853 13.9069 13.8853 13.7919V9.21004C13.8853 9.09511 13.7922 9.00186 13.6772 9.00186C13.5622 9.00186 13.4691 9.09511 13.4691 9.21004V13.5838H1.16106V11.684H4.13406C4.24898 11.684 4.34212 11.5909 4.34212 11.4759V9.36801H7.31512C7.43004 9.36801 7.52318 9.27477 7.52318 9.15984V7.05191H10.4962C10.6111 7.05191 10.7042 6.95877 10.7042 6.84384V4.73592H13.4691V8.37755C13.4691 8.49248 13.5623 8.58562 13.6772 8.58562C13.7922 8.58562 13.8853 8.49248 13.8853 8.37755V3.80772C13.8853 3.69279 13.7922 3.59966 13.6772 3.59966ZM3.92588 11.2678H0.688422C0.604682 11.2678 0.536536 11.1996 0.536536 11.1159C0.536536 11.0321 0.604682 10.964 0.688422 10.964H3.92588V11.2678ZM3.92588 10.5477H1.95457V7.92584L4.96366 5.73503V8.23175H3.86948C3.55621 8.23175 3.30135 8.4866 3.30135 8.79977C3.30135 9.11305 3.55621 9.3679 3.86948 9.3679H3.92588V10.5477ZM7.10694 8.95166H3.86948C3.78574 8.95166 3.7176 8.88362 3.7176 8.79988C3.7176 8.71614 3.78574 8.64799 3.86948 8.64799H7.10694V8.95166ZM7.10694 8.23175H5.3799V5.43201L8.38889 3.2412V5.91565H7.05054C6.73727 5.91565 6.48241 6.1705 6.48241 6.48378C6.48241 6.79706 6.73727 7.05191 7.05054 7.05191H7.10694V8.23175ZM10.288 6.63567H7.05054C6.9668 6.63567 6.89866 6.56752 6.89866 6.48378C6.89866 6.40004 6.9668 6.33189 7.05054 6.33189H10.288V6.63567ZM10.288 5.91576H8.80514V2.93817L10.7445 1.52623H11.8234C11.8175 1.54546 11.8143 1.56586 11.8143 1.58711V3.59966H10.2316C9.91833 3.59966 9.66347 3.85451 9.66347 4.16779C9.66347 4.48106 9.91833 4.73592 10.2316 4.73592H10.288V5.91576ZM10.2316 4.31967C10.1479 4.31967 10.0797 4.25153 10.0797 4.16779C10.0797 4.08405 10.1479 4.0159 10.2316 4.0159H13.4691V4.31967H10.2316Z" fill="#232323"/>
</g>
<defs>
<clipPath id="clip0_942_20357">
<rect width="14" height="14" fill="white"/>
</clipPath>
</defs>
</svg>
