<svg width="64" height="64" viewBox="0 0 64 64" fill="none" xmlns="http://www.w3.org/2000/svg">
<path d="M53.3334 0H35.2C32.2559 0.0035 29.8701 2.38925 29.8666 5.33337C29.8706 6.49113 30.255 7.61549 30.9606 8.53337H25.6C15.5899 8.5445 7.47787 16.6566 7.46662 26.6667V48.96L5.40462 59.0385C5.30287 59.5272 5.31005 60.0324 5.42563 60.518C5.54121 61.0037 5.76237 61.4579 6.07337 61.8484C6.34061 62.1839 6.67946 62.4554 7.06514 62.6431C7.45082 62.8308 7.87357 62.9299 8.30249 62.9333H13.0306C13.4595 62.9299 13.8823 62.8308 14.268 62.6431C14.6536 62.4554 14.9925 62.1839 15.2597 61.8484C15.5705 61.458 15.7915 61.0041 15.9071 60.5187C16.0227 60.0334 16.03 59.5285 15.9285 59.04L13.8665 48.96V27.7334C13.8762 21.1015 18.9452 15.5732 25.5514 14.9899C24.2419 15.9816 23.1797 17.2628 22.4479 18.7334C21.7161 20.204 21.3346 21.824 21.3332 23.4666V62.9333C21.3332 63.2161 21.4456 63.4874 21.6456 63.6875C21.8457 63.8875 22.117 63.9999 22.3999 63.9999H48C48.2829 63.9999 48.5542 63.8875 48.7542 63.6875C48.9542 63.4874 49.0666 63.2161 49.0666 62.9333V23.4666C49.0607 18.8104 46.04 14.6941 41.6 13.2919V11.7334C41.5976 11.0494 41.3757 10.3843 40.967 9.83597C40.5582 9.2876 39.9842 8.88494 39.3295 8.68725C39.6708 8.27263 39.9474 7.80881 40.15 7.3115L47.875 15.4526C49.1195 16.7045 51.1431 16.7108 52.3954 15.4668C53.6476 14.2227 53.6549 12.1993 52.4114 10.9464L48.102 6.4H57.6C57.7401 6.4 57.8788 6.37241 58.0082 6.31881C58.1376 6.26521 58.2552 6.18664 58.3542 6.08759C58.4533 5.98855 58.5318 5.87096 58.5854 5.74155C58.639 5.61215 58.6666 5.47345 58.6666 5.33337C58.6632 2.38925 56.2774 0.0035 53.3334 0ZM9.59999 42.6666H11.7334V48H9.59999V42.6666ZM13.6067 60.5C13.5395 60.5902 13.4528 60.664 13.3531 60.7159C13.2533 60.7679 13.1431 60.7966 13.0307 60.8H8.30262C8.19021 60.7966 8.08002 60.7679 7.98028 60.7159C7.88054 60.664 7.79383 60.5902 7.72662 60.5C7.61455 60.3554 7.53566 60.188 7.49552 60.0095C7.45539 59.831 7.45499 59.6459 7.49437 59.4673L9.40374 50.1334H11.9297L13.8391 59.4673V59.4689C13.8784 59.6473 13.8779 59.8321 13.8377 60.0103C13.7976 60.1885 13.7187 60.3557 13.6067 60.5ZM11.7334 27.7334V40.5334H9.59999V26.6666C9.60999 17.8342 16.7676 10.6766 25.6 10.6666H28.8V12.8H26.6666C18.423 12.8092 11.7426 19.4897 11.7334 27.7334ZM46.9334 61.8666H23.4666V56.5332H46.9332V61.8666H46.9334ZM46.9334 54.4H23.4666V25.6H46.9332V54.4H46.9334ZM46.9334 23.4666H23.4666C23.472 18.756 27.2894 14.9386 32 14.9333H38.4C43.1106 14.9388 46.928 18.7561 46.9334 23.4666ZM39.4666 11.7334V12.8H30.9332V10.6666H38.4C38.6828 10.667 38.9539 10.7795 39.1539 10.9795C39.3538 11.1795 39.4663 11.4506 39.4666 11.7334ZM50.888 12.4396C50.9882 12.5378 51.0676 12.655 51.1218 12.7844C51.1759 12.9138 51.2035 13.0527 51.2031 13.193C51.2027 13.3332 51.1742 13.472 51.1192 13.601C51.0643 13.7301 50.9841 13.8468 50.8834 13.9444C50.6818 14.1282 50.4198 14.2318 50.147 14.2354C49.8742 14.239 49.6095 14.1425 49.4031 13.9641L42.2265 6.4H45.1629L50.888 12.4396ZM39.4666 4.26662C39.1837 4.26662 38.9124 4.379 38.7124 4.57903C38.5124 4.77906 38.4 5.05036 38.4 5.33325C38.4 7.1005 36.9674 8.53325 35.2 8.53325C33.4327 8.53325 32 7.10063 32 5.33325C32.0019 3.56675 33.4335 2.13512 35.2 2.13325H53.3334C53.995 2.13399 54.6401 2.33944 55.1803 2.7214C55.7205 3.10336 56.1292 3.64312 56.3505 4.26662H39.4666Z" fill="black"/>
</svg>
