<svg width="64" height="64" viewBox="0 0 64 64" fill="none" xmlns="http://www.w3.org/2000/svg">
<g clip-path="url(#clip0_1324_15824)">
<path d="M43.2066 30.0996H37.8338V24.7268C37.841 23.6432 36.9684 22.7587 35.8848 22.7515H28.1284C27.0448 22.7515 26.1663 23.63 26.1663 24.7136V30.0864H20.8066C19.723 30.0792 18.8385 30.9516 18.8313 32.0353V39.7918C18.8313 40.8754 19.7098 41.7539 20.7934 41.7539H26.1663V47.1136C26.159 48.1972 27.0316 49.0817 28.1152 49.0889H35.8585C36.9421 49.0889 37.8206 48.2104 37.8206 47.1268V41.7539H43.1934C44.2771 41.7612 45.1615 40.8886 45.1687 39.805V32.0618C45.1687 30.9781 44.2904 30.0996 43.2066 30.0996ZM42.535 39.1202H36.5169C36.1676 39.1202 35.8327 39.2589 35.5857 39.5059C35.3388 39.7529 35.2 40.0878 35.2 40.4371V46.4552H28.8V40.4371C28.8 40.0878 28.6613 39.7529 28.4143 39.5059C28.1674 39.2589 27.8324 39.1202 27.4832 39.1202H21.465V32.7334H27.4832C27.8324 32.7334 28.1674 32.5946 28.4143 32.3477C28.6613 32.1007 28.8 31.7657 28.8 31.4165V25.3852H35.1869V31.4033C35.1869 31.7526 35.3256 32.0875 35.5726 32.3345C35.8195 32.5814 36.1545 32.7202 36.5037 32.7202H42.535V39.1202Z" fill="black"/>
<path d="M54.9136 12.9014H44.0626V8.26596C44.1309 6.15073 42.4714 4.38053 40.3562 4.31222C40.2485 4.30873 40.1406 4.30977 40.0329 4.31534H23.9671C21.8535 4.20522 20.0509 5.82925 19.9406 7.94267C19.9349 8.05034 19.9339 8.1582 19.9375 8.26596V12.875H9.08642C4.89877 12.875 0 15.2586 0 21.9614V50.6034C0 57.3063 4.89877 59.6898 9.08642 59.6898H54.9136C59.1012 59.6898 64 57.3063 64 50.6034V21.9878C64 15.2849 59.1144 12.9014 54.9136 12.9014ZM22.5712 8.26596C22.5712 7.88407 22.5712 6.85691 23.9802 6.85691H40.0329C41.442 6.85691 41.442 7.8709 41.442 8.26596V12.875H22.5712V8.26596ZM61.3663 50.6034C61.3663 56.424 56.8626 57.0561 54.9136 57.0561H9.08642C7.15062 57.0561 2.63374 56.424 2.63374 50.6034V21.9878C2.63374 16.1672 7.13745 15.5351 9.08642 15.5351H54.9136C56.8494 15.5351 61.3663 16.1672 61.3663 21.9878V50.6034Z" fill="black"/>
</g>
<defs>
<clipPath id="clip0_1324_15824">
<rect width="64" height="64" fill="white"/>
</clipPath>
</defs>
</svg>
