<svg width="14" height="14" viewBox="0 0 14 14" fill="none" xmlns="http://www.w3.org/2000/svg">
<g clip-path="url(#clip0_942_19000)">
<path d="M1.12585 5.02307L0.656852 12.5259C0.632926 12.9069 0.768852 13.2849 1.03078 13.5631C1.2921 13.8407 1.66018 14 2.04168 14C2.42318 14 2.79125 13.8407 3.0526 13.5625C3.31393 13.2843 3.45043 12.9062 3.42653 12.5253L2.95753 5.02307C3.62195 4.6859 4.08335 4.00282 4.08335 3.20832V0.291676C4.08335 0.130676 3.95268 0 3.79168 0C3.63068 0 3.5 0.130676 3.5 0.291676V3.20835C3.5 4.01218 2.84607 4.66668 2.04168 4.66668C1.23728 4.66668 0.583352 4.01218 0.583352 3.20835V0.291676C0.583352 0.130676 0.452676 0 0.291676 0C0.130676 0 0 0.130676 0 0.291676V3.20835C0 4.00282 0.460852 4.68593 1.12585 5.02307ZM2.38525 5.215L2.84432 12.5621C2.85775 12.7861 2.78132 12.9996 2.6279 13.1629C2.32047 13.4901 1.7634 13.4901 1.4554 13.1629C1.30197 12.9996 1.22497 12.7861 1.23897 12.5621L1.6981 5.215C1.81068 5.23425 1.92385 5.25 2.04168 5.25C2.1595 5.25 2.27268 5.23425 2.38525 5.215Z" fill="#232323"/>
<path d="M1.16602 2.625C1.16602 2.786 1.29669 2.91668 1.45769 2.91668C1.61869 2.91668 1.74934 2.786 1.74934 2.625V0.291676C1.74934 0.130676 1.61869 0 1.45769 0C1.29669 0 1.16602 0.130676 1.16602 0.291676V2.625Z" fill="#232323"/>
<path d="M2.33398 0.291676V2.625C2.33398 2.786 2.46466 2.91668 2.62566 2.91668C2.78666 2.91668 2.91734 2.786 2.91734 2.625V0.291676C2.91731 0.130676 2.78663 0 2.62563 0C2.46463 0 2.33398 0.130676 2.33398 0.291676Z" fill="#232323"/>
<path d="M13.9979 7.29168V0.291676C13.9979 0.130676 13.8673 0 13.7063 0C12.2473 0 11.0095 1.13925 10.8888 2.59293L10.4991 7.26775C10.4921 7.34882 10.5195 7.42932 10.5749 7.48943C10.6304 7.54893 10.7079 7.58335 10.7896 7.58335H11.4114L11.0813 12.5417V12.6117C11.0813 13.3776 11.7352 14 12.5396 14C12.9555 14 13.3522 13.8303 13.6293 13.5357C13.8906 13.2569 14.0213 12.8975 13.9973 12.5224L13.6683 7.58335H13.7063C13.8673 7.58332 13.9979 7.45268 13.9979 7.29168ZM11.4698 2.64132C11.5573 1.58607 12.3873 0.739074 13.4146 0.602574V7H11.1063L11.4698 2.64132ZM13.4152 12.5603C13.4286 12.7715 13.3539 12.9762 13.204 13.1361C13.0372 13.3146 12.7951 13.4166 12.5396 13.4166C12.0572 13.4166 11.6646 13.0556 11.6646 12.6116L11.664 12.5609L11.9965 7.58332H13.0838L13.4152 12.5603Z" fill="#232323"/>
<path d="M9.91602 4.21282C9.91602 2.7335 8.83334 0 7.29102 0C5.74809 0 4.66602 2.7335 4.66602 4.21282C4.66602 5.36257 5.32519 6.35132 6.26319 6.77657L5.90269 12.5416V12.6058C5.90269 13.3746 6.52512 14 7.29102 14C7.67602 14 8.03359 13.846 8.29844 13.5654C8.56502 13.2837 8.70037 12.9144 8.67819 12.523L8.31827 6.776C9.25684 6.35132 9.91602 5.36257 9.91602 4.21282ZM8.09659 12.558C8.10884 12.7855 8.03066 13.0007 7.87491 13.1652C7.72149 13.3274 7.51441 13.4167 7.29099 13.4167C6.84706 13.4167 6.48599 13.0527 6.48599 12.6059L6.48541 12.5598L6.83659 6.95103C6.98477 6.97903 7.13527 7.00003 7.29102 7.00003C7.44677 7.00003 7.59669 6.97903 7.74484 6.95103L8.09659 12.558ZM7.29102 6.41668C6.16519 6.41668 5.24934 5.42793 5.24934 4.21285C5.24934 2.87993 6.25791 0.583352 7.29102 0.583352C8.32352 0.583352 9.33269 2.87993 9.33269 4.21285C9.33269 5.42793 8.41684 6.41668 7.29102 6.41668Z" fill="#232323"/>
<path d="M8.45835 3.92114C8.29735 3.92114 8.16668 4.05182 8.16668 4.21282C8.16668 4.78507 7.7741 5.24999 7.29168 5.24999C7.13068 5.24999 7 5.38067 7 5.54167C7 5.70267 7.13068 5.83335 7.29168 5.83335C8.0961 5.83335 8.75 5.10652 8.75 4.21285C8.75 4.05179 8.61935 3.92114 8.45835 3.92114Z" fill="#232323"/>
</g>
<defs>
<clipPath id="clip0_942_19000">
<rect width="14" height="14" fill="white"/>
</clipPath>
</defs>
</svg>
