<svg width="14" height="14" viewBox="0 0 14 14" fill="none" xmlns="http://www.w3.org/2000/svg">
<g clip-path="url(#clip0_942_20162)">
<path d="M7.00011 13.4617C5.27418 13.4617 3.65156 12.7895 2.43111 11.5691C1.21068 10.3487 0.538574 8.72604 0.538574 7.00011C0.538574 5.27418 1.21068 3.65156 2.43111 2.43111C3.65156 1.21068 5.27418 0.538574 7.00011 0.538574C8.72604 0.538574 10.3487 1.21068 11.5691 2.43111C12.7895 3.65156 13.4617 5.27418 13.4617 7.00011C13.4617 8.72604 12.7895 10.3487 11.5691 11.5691C10.3487 12.7895 8.72604 13.4617 7.00011 13.4617ZM7.00011 1.07981C5.48316 1.07981 3.96672 1.65701 2.81185 2.81185C0.50247 5.12126 0.50247 8.87897 2.81185 11.1883C5.12129 13.4977 8.87897 13.4977 11.1883 11.1883C13.4978 8.87897 13.4978 5.12126 11.1883 2.81185C10.0338 1.65731 8.51672 1.07981 7.00011 1.07981Z" fill="#232323"/>
<path d="M2.62127 11.648C2.55238 11.648 2.48346 11.6217 2.4309 11.5692C2.32577 11.4641 2.32577 11.2936 2.4309 11.1884L11.1882 2.43115C11.2933 2.32601 11.4638 2.32601 11.5689 2.43115C11.6741 2.53628 11.6741 2.70676 11.5689 2.81192L2.81167 11.5692C2.75909 11.6217 2.69017 11.648 2.62127 11.648Z" fill="#232323"/>
<path d="M9.35996 10.7155C9.09005 10.7155 8.82559 10.618 8.61699 10.4347C8.23484 10.0991 7.61542 9.89054 7.00045 9.89054C6.3855 9.89054 5.76608 10.0991 5.3839 10.4347C5.10156 10.6827 4.71686 10.7737 4.35493 10.6784C4.00219 10.5855 3.72027 10.325 3.60087 9.9817C3.52584 9.76594 3.48779 9.54243 3.48779 9.31724C3.48779 7.88335 5.06357 6.7168 7.00047 6.7168C8.93735 6.7168 10.5132 7.88335 10.5132 9.31724C10.5132 9.54245 10.4751 9.76602 10.4001 9.98173C10.2806 10.325 9.99876 10.5855 9.64602 10.6784C9.55146 10.7034 9.45535 10.7155 9.35996 10.7155ZM7.00045 9.35208C7.75176 9.35208 8.48892 9.60556 8.97232 10.0302C9.1198 10.1597 9.32033 10.2074 9.50876 10.1578C9.69063 10.1098 9.83012 9.98117 9.89145 9.80482C9.94667 9.64611 9.97467 9.48212 9.97467 9.31727C9.97467 8.78627 9.67342 8.27866 9.12637 7.88792C8.5552 7.47999 7.8002 7.25529 7.00045 7.25529C6.2007 7.25529 5.44569 7.47999 4.87452 7.88792C4.3275 8.27866 4.02623 8.78627 4.02623 9.31727C4.02623 9.48207 4.05423 9.64611 4.10942 9.80482C4.17075 9.98119 4.31024 10.1098 4.4921 10.1578C4.68051 10.2074 4.88106 10.1597 5.02855 10.0302C5.51198 9.60556 6.24913 9.35208 7.00045 9.35208Z" fill="#232323"/>
<path d="M5.8843 6.26321C5.72173 6.26321 5.5582 6.22134 5.40598 6.13885C5.07806 5.96116 4.82975 5.61536 4.70682 5.16512C4.47503 4.31616 4.74265 3.50671 5.31603 3.32232C5.53322 3.25251 5.76592 3.27951 5.98897 3.40037C6.34584 3.59373 6.64197 4.01351 6.78116 4.5233C7.00618 5.34747 6.76137 6.02857 6.17194 6.21811C6.0782 6.24826 5.98141 6.26321 5.8843 6.26321ZM5.55686 3.8232C5.53055 3.8232 5.50525 3.8271 5.48093 3.83493C5.22966 3.91573 5.06737 4.44113 5.2263 5.02329C5.30892 5.32593 5.46793 5.55998 5.66253 5.66543C5.77685 5.72738 5.89603 5.74122 6.00715 5.7055C6.30333 5.61024 6.40566 5.19218 6.26176 4.66513C6.16203 4.29987 5.95925 3.99663 5.7325 3.87378C5.67034 3.8401 5.61154 3.8232 5.55686 3.8232Z" fill="#232323"/>
<path d="M8.11627 6.26322C8.01913 6.26322 7.9224 6.24828 7.82857 6.21812C7.23914 6.02859 6.99433 5.34751 7.21936 4.52332C7.35852 4.01353 7.65467 3.59374 8.01154 3.40038C8.2346 3.27947 8.46735 3.25252 8.68448 3.32233C9.25789 3.50673 9.52548 4.31617 9.2937 5.16514C9.17079 5.61537 8.92251 5.96117 8.59456 6.13886C8.44236 6.22133 8.27881 6.26322 8.11627 6.26322ZM7.73881 4.66512C7.59493 5.19217 7.69727 5.61023 7.99345 5.70548C8.10453 5.74121 8.22372 5.7274 8.33806 5.66542C8.53269 5.55996 8.69167 5.32592 8.7743 5.02328C8.93323 4.44109 8.77096 3.91572 8.51966 3.83492C8.44484 3.8108 8.36014 3.82388 8.26809 3.87377C8.04134 3.99665 7.83853 4.29988 7.73881 4.66512Z" fill="#232323"/>
<path d="M3.90568 7.26873C3.74794 7.26873 3.58607 7.22011 3.438 7.12526C3.22805 6.99081 3.05951 6.77515 2.96345 6.51804C2.75143 5.95072 2.94638 5.37138 3.40722 5.19916C3.86807 5.02693 4.39517 5.33644 4.60716 5.90379C4.70325 6.16088 4.71744 6.4342 4.64711 6.67341C4.56979 6.9365 4.39347 7.1367 4.16336 7.22267C4.08087 7.25352 3.99391 7.26873 3.90568 7.26873ZM3.66445 5.69174C3.64008 5.69174 3.61695 5.69565 3.59574 5.70356C3.44559 5.75967 3.35612 6.03057 3.46785 6.32955C3.52262 6.47606 3.6176 6.60083 3.72844 6.67182C3.77946 6.70448 3.87932 6.75402 3.97492 6.71829C4.07053 6.68256 4.11347 6.57972 4.13057 6.52157C4.16767 6.3953 4.15757 6.23882 4.10281 6.0923C4.00685 5.83557 3.81252 5.69174 3.66445 5.69174Z" fill="#232323"/>
<path d="M10.0951 7.26894C10.0069 7.26894 9.9199 7.25373 9.83738 7.22288C9.6073 7.13691 9.43095 6.93671 9.35363 6.67362C9.28333 6.43444 9.29752 6.16111 9.39358 5.904C9.60563 5.33665 10.1329 5.02719 10.5935 5.19939C10.8236 5.28539 10.9999 5.48559 11.0773 5.74865C11.1476 5.98786 11.1334 6.26119 11.0373 6.51827C10.9413 6.77536 10.7727 6.99099 10.5628 7.12547C10.4147 7.22032 10.2529 7.26894 10.0951 7.26894ZM9.89799 6.09251C9.84325 6.23903 9.83313 6.39551 9.87026 6.52178C9.88735 6.57993 9.93027 6.68277 10.0259 6.7185C10.1215 6.75423 10.2214 6.70474 10.2724 6.67206C10.3832 6.60106 10.4782 6.4763 10.5329 6.32979C10.5877 6.18327 10.5978 6.02682 10.5607 5.90053C10.5436 5.8424 10.5007 5.73952 10.4051 5.7038C10.2549 5.64769 10.0097 5.79348 9.89799 6.09251Z" fill="#232323"/>
</g>
<defs>
<clipPath id="clip0_942_20162">
<rect width="14" height="14" fill="white"/>
</clipPath>
</defs>
</svg>
