<svg width="14" height="14" viewBox="0 0 14 14" fill="none" xmlns="http://www.w3.org/2000/svg">
<g clip-path="url(#clip0_942_20195)">
<path d="M7.9628 0.806884C7.89793 0.795557 7.82927 0.808536 7.77118 0.850205C7.5259 1.02577 7.13837 1.4903 7.43786 1.99893C7.50499 2.11253 7.5204 2.22627 7.48425 2.3373C7.44553 2.45864 7.35282 2.55442 7.28053 2.5854C7.15144 2.64484 7.09205 2.79719 7.15144 2.92629C7.19016 3.02698 7.28321 3.08361 7.3839 3.08361C7.42005 3.08361 7.45315 3.07616 7.48929 3.06037C7.70875 2.96227 7.89486 2.74805 7.9749 2.49762C8.0317 2.32205 8.06026 2.04537 7.88212 1.74071C7.75044 1.51609 8.03664 1.29706 8.07021 1.27126C8.18639 1.18858 8.21233 1.02838 8.12971 0.912198C8.0884 0.854159 8.02767 0.818152 7.9628 0.806833L7.9628 0.806884ZM10.1155 2.01712C9.81601 2.06102 9.2605 2.29883 9.29406 2.88749C9.29927 3.01917 9.2607 3.1276 9.17808 3.21022C9.08772 3.30058 8.96104 3.3393 8.88359 3.3393C8.74417 3.33434 8.62054 3.4398 8.6128 3.58437C8.60511 3.7238 8.71329 3.84799 8.85787 3.85316H8.8967C9.12648 3.85316 9.37163 3.74729 9.5472 3.5743C9.67887 3.44263 9.8285 3.21247 9.81042 2.85875C9.79493 2.59799 10.1513 2.53361 10.1927 2.52845C10.3321 2.50778 10.4301 2.3764 10.4095 2.23698C10.3863 2.09498 10.2549 1.99647 10.1155 2.01712H10.1155ZM5.8222 2.86026C5.80255 2.85861 5.7822 2.85859 5.76219 2.86107C5.68215 2.87141 5.61238 2.91789 5.57107 2.99018C4.01312 5.7267 2.47426 8.41243 0.836023 11.2808C0.779223 11.3815 0.794755 11.5078 0.877373 11.5904C0.926428 11.6395 0.993798 11.6656 1.06093 11.6656C1.10482 11.6656 1.14871 11.655 1.19002 11.6318L9.47761 6.89681C9.54732 6.8529 9.59638 6.7832 9.6067 6.70316C9.61703 6.62313 9.59138 6.54312 9.53459 6.48632L5.97902 2.93376C5.93642 2.89118 5.88113 2.86573 5.82219 2.86019L5.8222 2.86026ZM5.85245 3.538L8.92746 6.61301L7.81757 7.24787L5.44198 4.25809L5.85245 3.538ZM11.5653 4.50013C11.5004 4.5108 11.4397 4.54635 11.3984 4.60451C11.3751 4.63808 11.1556 4.92687 10.9284 4.79261C10.6211 4.61447 10.3475 4.64298 10.172 4.69981C9.92413 4.77728 9.70733 4.96293 9.60922 5.18238C9.54985 5.31148 9.60922 5.46645 9.73832 5.52325C9.77188 5.53879 9.80807 5.54649 9.84421 5.54649C9.94232 5.54649 10.0379 5.48977 10.0792 5.39419C10.1102 5.32193 10.208 5.2292 10.3268 5.19048C10.4378 5.15435 10.5516 5.16974 10.6652 5.23688C11.1764 5.53637 11.6413 5.14875 11.8169 4.90355C11.8995 4.78736 11.871 4.62764 11.7574 4.54502C11.6993 4.50376 11.6301 4.48947 11.5653 4.50013H11.5653ZM5.16867 4.74116L7.36575 7.50606L6.62196 7.93216L4.71685 5.53135L5.16867 4.74116ZM4.44051 6.01395L6.16762 8.19033L5.42685 8.61391L3.98869 6.80411L4.44051 6.01395ZM3.70983 7.2867L4.96948 8.87212L4.23124 9.2957L3.26053 8.07436L3.70983 7.2867ZM10.3399 7.48035C8.76498 7.48035 7.48173 8.7636 7.48173 10.3385C7.48173 11.9134 8.76498 13.1967 10.3399 13.1967C11.9148 13.1967 13.1981 11.9134 13.1981 10.3385C13.1981 8.7636 11.9148 7.48035 10.3399 7.48035ZM10.3399 7.9967C11.6308 7.9967 12.6817 9.04761 12.6817 10.3385C12.6817 11.6294 11.6308 12.6803 10.3399 12.6803C9.04899 12.6803 7.9981 11.6294 7.9981 10.3385C7.9981 9.04761 9.04899 7.9967 10.3399 7.9967ZM2.98671 8.55946L3.77942 9.55639L3.03563 9.97946L2.53489 9.34964L2.98671 8.55946ZM9.48164 9.21753C9.41581 9.21753 9.34995 9.24232 9.29961 9.29267C9.19892 9.39336 9.19892 9.55607 9.29961 9.65676L9.97835 10.336L9.29961 11.0147C9.19892 11.1154 9.19892 11.2781 9.29961 11.3788C9.35125 11.4304 9.41553 11.454 9.48265 11.454C9.54978 11.454 9.61457 11.4279 9.66621 11.3788L10.3449 10.7001L11.0242 11.3788C11.0758 11.4304 11.1401 11.454 11.2072 11.454C11.2744 11.454 11.3392 11.4279 11.3908 11.3788C11.4915 11.2781 11.4915 11.1154 11.3908 11.0147L10.7115 10.336L11.3908 9.65676C11.4863 9.55865 11.4865 9.39336 11.3857 9.29267C11.2851 9.19198 11.1224 9.19198 11.0217 9.29267L10.3424 9.97192L9.66369 9.29267C9.61334 9.24232 9.54748 9.21753 9.48164 9.21753ZM2.25855 9.83272L2.58128 10.2402L1.75782 10.7102L2.25855 9.83272Z" fill="#232323"/>
</g>
<defs>
<clipPath id="clip0_942_20195">
<rect width="14" height="14" fill="white"/>
</clipPath>
</defs>
</svg>
