<svg width="14" height="14" viewBox="0 0 14 14" fill="none" xmlns="http://www.w3.org/2000/svg">
<g clip-path="url(#clip0_942_19024)">
<path d="M13.2371 6.43866C13.128 6.39374 13.0029 6.41824 12.9192 6.50195L12.4884 6.93274C11.4661 7.95474 10.2011 8.7367 8.83001 9.19374C7.80014 9.53674 8.04922 11.0823 9.13655 11.0832H9.7368L8.7813 12.9945C8.6136 13.3337 9.1281 13.5976 9.3031 13.2552L10.3893 11.0832H11.1954L12.2816 13.2552C12.3539 13.4007 12.5318 13.457 12.673 13.3856C12.8171 13.3135 12.8754 13.1382 12.8034 12.9942L11.8473 11.0832C12.6885 11.138 13.4206 10.4733 13.4171 9.62483V6.70816C13.4171 6.59033 13.3462 6.48387 13.2371 6.43866ZM12.8337 9.62483C12.8337 10.1072 12.4411 10.4998 11.9587 10.4998H9.13655C8.70693 10.5042 8.60426 9.87829 9.01464 9.74704C10.4412 9.27162 11.7595 8.46487 12.8337 7.41166V9.62483Z" fill="#232323"/>
<path d="M0.583997 6.7084V9.62507C0.580497 10.4735 1.31258 11.1382 2.15375 11.0834L1.19825 12.9947C1.12621 13.1388 1.18454 13.3141 1.32862 13.3861C1.46979 13.4573 1.64741 13.401 1.72004 13.2557L2.80591 11.0834H3.61208L4.69825 13.2554C4.87325 13.5979 5.38804 13.3339 5.22004 12.9947L4.26425 11.0834H4.8645C5.95183 11.0825 6.20091 9.5367 5.17104 9.19399C3.79991 8.73695 2.53496 7.95499 1.51266 6.93299L1.08187 6.5022C0.998164 6.41849 0.873039 6.39399 0.763955 6.4389C0.654872 6.48411 0.583997 6.59057 0.583997 6.7084ZM1.16733 7.4119C2.24154 8.46511 3.55987 9.27157 4.98641 9.74728C5.39679 9.87853 5.29412 10.5044 4.8645 10.5001H2.04233C1.55991 10.5001 1.16733 10.1075 1.16733 9.62507V7.4119Z" fill="#232323"/>
<path d="M9.04165 4.09471C10.4061 4.46862 11.844 4.46133 13.2049 4.07225C13.3924 4.02441 13.4802 3.78029 13.3639 3.62454C11.7331 1.30871 9.23969 0.411248 6.47702 0.583331C4.15215 0.583331 1.96873 1.72025 0.636107 3.62454C0.521191 3.78087 0.606066 4.02383 0.795066 4.07225C2.15598 4.46133 3.5939 4.46833 4.95831 4.09471C5.53231 4.25191 6.11944 4.33766 6.70831 4.35983V6.70833H4.08331C2.93152 6.73721 2.92802 8.42829 4.08331 8.45833H6.70831V13.125C6.70831 13.286 6.83869 13.4167 6.99998 13.4167C7.16127 13.4167 7.29165 13.286 7.29165 13.125V8.45833H9.91665C10.3991 8.45833 10.7916 8.06575 10.7916 7.58333C10.7916 7.10091 10.3991 6.70833 9.91665 6.70833H7.29165V4.35983C7.88052 4.33737 8.46765 4.25191 9.04165 4.09471ZM10.2083 7.58333C10.2083 7.74404 10.0776 7.875 9.91665 7.875H4.08331C3.92231 7.875 3.79165 7.74404 3.79165 7.58333C3.79165 7.42262 3.92231 7.29166 4.08331 7.29166H9.91665C10.0776 7.29166 10.2083 7.42262 10.2083 7.58333ZM6.5234 1.20691L6.5759 1.16666H7.42377L7.47598 1.20691C8.2139 1.77362 8.67123 2.64366 8.73656 3.56708C7.59498 3.8535 6.4044 3.8535 5.26281 3.56708C5.32844 2.64366 5.78606 1.77362 6.5234 1.20691ZM12.6294 3.61666C11.5374 3.85875 10.4058 3.83804 9.3199 3.56125C9.26652 2.69121 8.91506 1.86287 8.33552 1.21916C10.0179 1.42975 11.5625 2.28666 12.6294 3.61666ZM1.37052 3.61666C2.43744 2.28666 3.98211 1.42975 5.66444 1.21916C5.08519 1.86287 4.73344 2.69121 4.68006 3.56154C3.59419 3.83833 2.46252 3.85904 1.37052 3.61666Z" fill="#232323"/>
</g>
<defs>
<clipPath id="clip0_942_19024">
<rect width="14" height="14" fill="white"/>
</clipPath>
</defs>
</svg>
