<svg width="64" height="64" viewBox="0 0 64 64" fill="none" xmlns="http://www.w3.org/2000/svg">
<g clip-path="url(#clip0_1324_15840)">
<path d="M61.5521 25.6412L60.1573 24.1643L55.2615 10.9677C54.4274 8.73864 52.294 7.26172 49.9145 7.24805H14.947C12.5675 7.24805 10.4342 8.73864 9.6 10.9677L4.77265 24.0002L2.76239 25.86C1.01197 27.3506 0 29.5386 0 31.8361V51.0634C0.0136752 54.2087 2.57094 56.7523 5.71624 56.7523H9.3265C12.4718 56.7523 15.0291 54.2087 15.0427 51.0634V48.2737H48.9573V51.0634C48.9709 54.2087 51.5282 56.7523 54.6735 56.7523H58.2838C61.4291 56.7523 63.9863 54.2087 64 51.0634V31.3301C63.9863 29.1831 63.1111 27.1318 61.5521 25.6412ZM12.1709 11.8976C12.6085 10.7352 13.7162 9.98309 14.947 9.98309H49.9282C51.159 9.98309 52.2667 10.7489 52.7043 11.8976L56.9709 23.3848H53.7846C53.0325 18.2566 48.2598 14.7147 43.1316 15.4805C39.0427 16.0822 35.8291 19.2959 35.2274 23.3848H7.90427L12.1709 11.8976ZM50.9949 23.3848H37.9897C38.7419 19.7882 42.2701 17.4908 45.8667 18.2429C48.4376 18.7899 50.4479 20.8002 50.9949 23.3848ZM12.3077 51.0634C12.294 52.7045 10.9675 54.0173 9.3265 54.0173H5.71624C4.07521 54.0173 2.74872 52.7045 2.73504 51.0634V47.4805C3.55556 48.0139 4.6359 48.2737 5.71624 48.2737H12.3077V51.0634ZM61.265 51.0634C61.2513 52.7045 59.9248 54.0173 58.2838 54.0173H54.6735C53.0325 54.0173 51.706 52.6908 51.6923 51.0634V48.2737H58.2838C59.3641 48.2737 60.4444 48.0139 61.265 47.4805V51.0634ZM58.2838 45.5386H5.71624C4.08889 45.5523 2.74872 44.2532 2.73504 42.6122V31.8361C2.73504 30.3318 3.40513 28.8959 4.55385 27.925L4.60855 27.8703L6.46838 26.1198H58.2564L59.5692 27.5284C59.5829 27.5557 59.6239 27.5694 59.6376 27.5968C60.6632 28.5677 61.2513 29.9216 61.2513 31.3301V42.6122H61.265C61.2513 44.2395 59.9111 45.5523 58.2838 45.5386Z" fill="black"/>
<path d="M18.0513 31.5898H7.79486C7.04272 31.5898 6.42734 32.2052 6.42734 32.9574V40.0685C6.42734 40.8206 7.04272 41.436 7.79486 41.436H18.0513C18.8034 41.436 19.4188 40.8206 19.4188 40.0685V32.9574C19.4188 32.2052 18.8034 31.5898 18.0513 31.5898ZM16.6837 38.701H9.16238V34.3249H16.6837V38.701ZM56.2051 31.5898H45.9487C45.1966 31.5898 44.5812 32.2052 44.5812 32.9574V40.0685C44.5812 40.8206 45.1966 41.436 45.9487 41.436H56.2051C56.9573 41.436 57.5726 40.8206 57.5726 40.0685V32.9574C57.5726 32.2052 56.9573 31.5898 56.2051 31.5898ZM54.8376 38.701H47.3162V34.3249H54.8376V38.701ZM38.6051 37.3334H25.3949C24.6427 37.3334 24.0273 37.9488 24.0273 38.701C24.0273 39.4531 24.6427 40.0685 25.3949 40.0685H38.6051C39.3573 40.0685 39.9726 39.4531 39.9726 38.701C39.9726 37.9488 39.3573 37.3334 38.6051 37.3334ZM38.6051 33.0941H25.3949C24.6427 33.0941 24.0273 33.7095 24.0273 34.4616C24.0273 35.2138 24.6427 35.8292 25.3949 35.8292H38.6051C39.3573 35.8292 39.9726 35.2138 39.9726 34.4616C39.9726 33.7095 39.3573 33.0941 38.6051 33.0941Z" fill="black"/>
</g>
<defs>
<clipPath id="clip0_1324_15840">
<rect width="64" height="64" fill="white"/>
</clipPath>
</defs>
</svg>
