<svg width="64" height="64" viewBox="0 0 64 64" fill="none" xmlns="http://www.w3.org/2000/svg">
<path d="M51.5987 43.6755C49.7807 43.7197 47.979 43.3235 46.3473 42.5209C44.9339 41.8191 43.3704 41.4732 41.7929 41.5133C40.2162 41.4732 38.6536 41.8191 37.2411 42.5209C35.6105 43.3235 33.8099 43.7196 31.9931 43.6755C30.1757 43.7197 28.3745 43.3236 26.7434 42.5209C25.3306 41.819 23.7677 41.4731 22.1907 41.5133C20.6151 41.4752 19.054 41.8226 17.6432 42.5252C16.011 43.327 14.2089 43.7217 12.3909 43.6755C10.575 43.721 8.77498 43.3264 7.14466 42.5252C5.73319 41.8219 4.17111 41.4745 2.5946 41.5133C2.36522 41.5133 2.14524 41.4222 1.98305 41.26C1.82086 41.0978 1.72974 40.8778 1.72974 40.6485C1.72974 40.4191 1.82086 40.1991 1.98305 40.0369C2.14524 39.8747 2.36522 39.7836 2.5946 39.7836C4.41184 39.7406 6.21247 40.1382 7.8426 40.9425C9.25428 41.6427 10.8157 41.9871 12.3909 41.9458C13.9673 41.9858 15.5296 41.6399 16.9418 40.9382C18.5727 40.1355 20.3736 39.7394 22.1907 39.7836C24.0081 39.7394 25.8093 40.1356 27.4404 40.9382C28.8532 41.6401 30.4161 41.986 31.9931 41.9458C33.5695 41.9858 35.1318 41.6399 36.544 40.9382C38.1749 40.1355 39.9757 39.7394 41.7929 39.7836C43.6127 39.7401 45.4159 40.1377 47.0487 40.9425C48.4752 41.6062 50.0296 41.9501 51.603 41.9501C53.1764 41.9501 54.7308 41.6062 56.1574 40.9425C57.7878 40.139 59.5882 39.7414 61.4054 39.7836C61.6348 39.7836 61.8548 39.8747 62.017 40.0369C62.1792 40.1991 62.2703 40.4191 62.2703 40.6485C62.2703 40.8778 62.1792 41.0978 62.017 41.26C61.8548 41.4222 61.6348 41.5133 61.4054 41.5133C59.8279 41.4732 58.2644 41.8191 56.851 42.5209C55.219 43.3236 53.417 43.7198 51.5987 43.6755ZM51.5987 50.5944C49.7807 50.6386 47.979 50.2424 46.3473 49.4398C44.9339 48.738 43.3704 48.3921 41.7929 48.4323C40.2162 48.3921 38.6536 48.738 37.2411 49.4398C35.6105 50.2424 33.8099 50.6385 31.9931 50.5944C30.1757 50.6386 28.3745 50.2425 26.7434 49.4398C25.3306 48.7379 23.7677 48.392 22.1907 48.4323C20.6151 48.3942 19.054 48.7415 17.6432 49.4441C16.011 50.2459 14.2089 50.6406 12.3909 50.5944C10.575 50.6399 8.77498 50.2453 7.14466 49.4441C5.73319 48.7408 4.17111 48.3934 2.5946 48.4323C2.36522 48.4323 2.14524 48.3411 1.98305 48.1789C1.82086 48.0167 1.72974 47.7968 1.72974 47.5674C1.72974 47.338 1.82086 47.118 1.98305 46.9558C2.14524 46.7936 2.36522 46.7025 2.5946 46.7025C4.41184 46.6595 6.21247 47.0572 7.8426 47.8614C9.25428 48.5616 10.8157 48.906 12.3909 48.8647C13.9673 48.9047 15.5296 48.5588 16.9418 47.8571C18.5727 47.0544 20.3736 46.6583 22.1907 46.7025C24.0081 46.6583 25.8093 47.0545 27.4404 47.8571C28.8532 48.559 30.4161 48.9049 31.9931 48.8647C33.5695 48.9047 35.1318 48.5588 36.544 47.8571C38.1749 47.0544 39.9757 46.6583 41.7929 46.7025C43.6127 46.659 45.4159 47.0566 47.0487 47.8614C48.4752 48.5251 50.0296 48.869 51.603 48.869C53.1764 48.869 54.7308 48.5251 56.1574 47.8614C57.7878 47.0579 59.5882 46.6603 61.4054 46.7025C61.6348 46.7025 61.8548 46.7936 62.017 46.9558C62.1792 47.118 62.2703 47.338 62.2703 47.5674C62.2703 47.7968 62.1792 48.0167 62.017 48.1789C61.8548 48.3411 61.6348 48.4323 61.4054 48.4323C59.8279 48.3921 58.2644 48.738 56.851 49.4398C55.219 50.2426 53.417 50.6387 51.5987 50.5944ZM51.5987 57.5133C49.7807 57.5575 47.979 57.1614 46.3473 56.3587C44.9339 55.6569 43.3704 55.311 41.7929 55.3512C40.2162 55.311 38.6536 55.6569 37.2411 56.3587C35.6105 57.1613 33.8099 57.5574 31.9931 57.5133C30.1757 57.5575 28.3745 57.1614 26.7434 56.3587C25.3306 55.6568 23.7677 55.3109 22.1907 55.3512C20.6151 55.3131 19.054 55.6604 17.6432 56.3631C16.011 57.1648 14.2089 57.5595 12.3909 57.5133C10.575 57.5588 8.77498 57.1642 7.14466 56.3631C5.73319 55.6597 4.17111 55.3123 2.5946 55.3512C2.36522 55.3512 2.14524 55.2601 1.98305 55.0979C1.82086 54.9357 1.72974 54.7157 1.72974 54.4863C1.72974 54.2569 1.82086 54.037 1.98305 53.8748C2.14524 53.7126 2.36522 53.6214 2.5946 53.6214C4.41184 53.5784 6.21247 53.9761 7.8426 54.7804C9.25428 55.4805 10.8157 55.8249 12.3909 55.7836C13.9673 55.8236 15.5296 55.4777 16.9418 54.776C18.5727 53.9734 20.3736 53.5772 22.1907 53.6214C24.0081 53.5773 25.8093 53.9734 27.4404 54.776C28.8532 55.478 30.4161 55.8238 31.9931 55.7836C33.5695 55.8236 35.1318 55.4777 36.544 54.776C38.1749 53.9734 39.9757 53.5772 41.7929 53.6214C43.6127 53.5779 45.4159 53.9756 47.0487 54.7804C48.4752 55.4441 50.0296 55.7879 51.603 55.7879C53.1764 55.7879 54.7308 55.4441 56.1574 54.7804C57.7878 53.9768 59.5882 53.5792 61.4054 53.6214C61.6348 53.6214 61.8548 53.7126 62.017 53.8748C62.1792 54.037 62.2703 54.2569 62.2703 54.4863C62.2703 54.7157 62.1792 54.9357 62.017 55.0979C61.8548 55.2601 61.6348 55.3512 61.4054 55.3512C59.8279 55.311 58.2644 55.6569 56.851 56.3587C55.219 57.1615 53.417 57.5576 51.5987 57.5133Z" fill="black"/>
<path d="M32 43.6755C31.7706 43.6755 31.5506 43.5844 31.3884 43.4222C31.2263 43.26 31.1351 43.04 31.1351 42.8107V12.1079C31.1351 10.617 31.7274 9.18712 32.7817 8.13286C33.8359 7.0786 35.2658 6.48633 36.7568 6.48633C38.2477 6.48633 39.6776 7.0786 40.7318 8.13286C41.7861 9.18712 42.3784 10.617 42.3784 12.1079C42.3784 12.3373 42.2873 12.5573 42.1251 12.7195C41.9629 12.8817 41.7429 12.9728 41.5135 12.9728C41.2841 12.9728 41.0642 12.8817 40.902 12.7195C40.7398 12.5573 40.6486 12.3373 40.6486 12.1079C40.6486 11.0758 40.2386 10.0858 39.5087 9.35597C38.7789 8.6261 37.7889 8.21606 36.7568 8.21606C35.7246 8.21606 34.7346 8.6261 34.0048 9.35597C33.2749 10.0858 32.8649 11.0758 32.8649 12.1079V42.8107C32.8649 43.04 32.7737 43.26 32.6115 43.4222C32.4494 43.5844 32.2294 43.6755 32 43.6755ZM51.4595 43.6755C51.2301 43.6755 51.0101 43.5844 50.8479 43.4222C50.6857 43.26 50.5946 43.04 50.5946 42.8107V12.1079C50.5946 10.617 51.1869 9.18712 52.2411 8.13286C53.2954 7.0786 54.7253 6.48633 56.2162 6.48633C57.7072 6.48633 59.137 7.0786 60.1913 8.13286C61.2456 9.18712 61.8378 10.617 61.8378 12.1079C61.8378 12.3373 61.7467 12.5573 61.5845 12.7195C61.4223 12.8817 61.2023 12.9728 60.973 12.9728C60.7436 12.9728 60.5236 12.8817 60.3614 12.7195C60.1992 12.5573 60.1081 12.3373 60.1081 12.1079C60.1081 11.0758 59.6981 10.0858 58.9682 9.35597C58.2383 8.6261 57.2484 8.21606 56.2162 8.21606C55.184 8.21606 54.1941 8.6261 53.4642 9.35597C52.7344 10.0858 52.3243 11.0758 52.3243 12.1079V42.8107C52.3243 43.04 52.2332 43.26 52.071 43.4222C51.9088 43.5844 51.6888 43.6755 51.4595 43.6755Z" fill="black"/>
<path d="M51.4595 20.9773H32C31.7706 20.9773 31.5506 20.8862 31.3884 20.724C31.2263 20.5618 31.1351 20.3418 31.1351 20.1124C31.1351 19.883 31.2263 19.6631 31.3884 19.5009C31.5506 19.3387 31.7706 19.2476 32 19.2476H51.4595C51.6888 19.2476 51.9088 19.3387 52.071 19.5009C52.2332 19.6631 52.3243 19.883 52.3243 20.1124C52.3243 20.3418 52.2332 20.5618 52.071 20.724C51.9088 20.8862 51.6888 20.9773 51.4595 20.9773ZM51.4595 27.8962H32C31.7706 27.8962 31.5506 27.8051 31.3884 27.6429C31.2263 27.4807 31.1351 27.2607 31.1351 27.0313C31.1351 26.802 31.2263 26.582 31.3884 26.4198C31.5506 26.2576 31.7706 26.1665 32 26.1665H51.4595C51.6888 26.1665 51.9088 26.2576 52.071 26.4198C52.2332 26.582 52.3243 26.802 52.3243 27.0313C52.3243 27.2607 52.2332 27.4807 52.071 27.6429C51.9088 27.8051 51.6888 27.8962 51.4595 27.8962ZM51.4595 34.8151H32C31.7706 34.8151 31.5506 34.724 31.3884 34.5618C31.2263 34.3996 31.1351 34.1796 31.1351 33.9503C31.1351 33.7209 31.2263 33.5009 31.3884 33.3387C31.5506 33.1765 31.7706 33.0854 32 33.0854H51.4595C51.6888 33.0854 51.9088 33.1765 52.071 33.3387C52.2332 33.5009 52.3243 33.7209 52.3243 33.9503C52.3243 34.1796 52.2332 34.3996 52.071 34.5618C51.9088 34.724 51.6888 34.8151 51.4595 34.8151Z" fill="black"/>
</svg>
