<svg width="14" height="14" viewBox="0 0 14 14" fill="none" xmlns="http://www.w3.org/2000/svg">
<path d="M6.92188 7.47549V6.52322C6.92188 6.46008 6.94696 6.39953 6.9916 6.35488C7.03625 6.31024 7.0968 6.28516 7.15994 6.28516C7.22308 6.28516 7.28364 6.31024 7.32828 6.35488C7.37293 6.39953 7.39801 6.46008 7.39801 6.52322V7.47549C7.39801 7.53863 7.37293 7.59919 7.32828 7.64383C7.28364 7.68848 7.22308 7.71356 7.15994 7.71356C7.0968 7.71356 7.03625 7.68848 6.9916 7.64383C6.94696 7.59919 6.92188 7.53863 6.92188 7.47549Z" fill="#232323"/>
<path d="M7.9971 7.39761L8.24354 6.47789C8.26026 6.41734 8.30024 6.36586 8.35476 6.33466C8.40929 6.30346 8.47393 6.29508 8.5346 6.31133C8.59528 6.32759 8.64707 6.36717 8.67869 6.42145C8.71031 6.47573 8.71919 6.54031 8.7034 6.60111L8.45696 7.52083C8.4404 7.58156 8.40046 7.63326 8.34587 7.66462C8.29128 7.69598 8.2265 7.70443 8.16569 7.68814C8.10489 7.67185 8.05301 7.63213 8.02141 7.57768C7.98982 7.52323 7.98108 7.45849 7.9971 7.39761Z" fill="#232323"/>
<path d="M9.0963 7.29293L9.57243 6.46806C9.6043 6.41397 9.65625 6.37466 9.71696 6.35868C9.77768 6.34269 9.84225 6.35134 9.89662 6.38272C9.951 6.41411 9.99077 6.4657 10.0073 6.52627C10.0238 6.58683 10.0158 6.65148 9.98487 6.70613L9.50873 7.531C9.47701 7.58539 9.42503 7.625 9.36418 7.64116C9.30333 7.65733 9.23855 7.64873 9.18402 7.61726C9.12948 7.58578 9.08964 7.53398 9.0732 7.4732C9.05676 7.41242 9.06507 7.3476 9.0963 7.29293Z" fill="#232323"/>
<path d="M4.81082 7.531L4.33468 6.70613C4.3037 6.65147 4.29557 6.58678 4.31207 6.52616C4.32857 6.46553 4.36837 6.41389 4.42279 6.38248C4.4772 6.35107 4.54183 6.34244 4.60258 6.35847C4.66333 6.3745 4.71529 6.41389 4.74712 6.46806L5.22325 7.29293C5.25415 7.34758 5.26221 7.41223 5.24569 7.4728C5.22916 7.53337 5.18938 7.58496 5.13501 7.61634C5.08063 7.64773 5.01606 7.65637 4.95535 7.64039C4.89464 7.6244 4.84269 7.58509 4.81082 7.531Z" fill="#232323"/>
<path d="M5.86297 7.52083L5.61653 6.60111C5.60074 6.54031 5.60962 6.47573 5.64124 6.42145C5.67286 6.36717 5.72465 6.32759 5.78532 6.31133C5.846 6.29508 5.91064 6.30346 5.96516 6.33466C6.01969 6.36586 6.05967 6.41734 6.07639 6.47789L6.32283 7.39761C6.33885 7.45849 6.33011 7.52323 6.29852 7.57768C6.26692 7.63213 6.21504 7.67185 6.15424 7.68814C6.09343 7.70443 6.02865 7.69598 5.97406 7.66462C5.91947 7.63326 5.87953 7.58156 5.86297 7.52083Z" fill="#232323"/>
<path d="M5.09453 11.4392C5.84368 10.9771 5.60957 10.782 5.31586 10.5167C4.64475 9.90914 4.8618 9.41112 5.65111 9.04504C5.70831 9.01903 5.77347 9.01668 5.83239 9.03851C5.89132 9.06034 5.93922 9.10458 5.96567 9.16158C5.99211 9.21858 5.99495 9.28372 5.97357 9.34281C5.95219 9.4019 5.90831 9.45013 5.85151 9.47701C5.17588 9.79004 5.37796 9.931 5.63553 10.1635C6.33919 10.8015 6.15698 11.3432 5.34469 11.8442C5.29099 11.8769 5.22655 11.887 5.16543 11.8723C5.1043 11.8577 5.05145 11.8195 5.01842 11.766C4.98539 11.7125 4.97485 11.6481 4.98911 11.5869C5.00337 11.5257 5.04127 11.4726 5.09453 11.4392Z" fill="#232323"/>
<path d="M6.76103 11.4392C7.51018 10.9771 7.27607 10.782 6.98236 10.5167C6.31125 9.90914 6.52831 9.41112 7.31761 9.04504C7.37481 9.01903 7.43997 9.01668 7.4989 9.03851C7.55782 9.06034 7.60573 9.10458 7.63217 9.16158C7.65862 9.21858 7.66146 9.28372 7.64007 9.34281C7.61869 9.4019 7.57482 9.45013 7.51802 9.47701C6.84238 9.79004 7.04447 9.931 7.30203 10.1635C8.00569 10.8015 7.82349 11.3432 7.01119 11.8442C6.9575 11.8769 6.89306 11.887 6.83193 11.8723C6.7708 11.8577 6.71796 11.8195 6.68492 11.766C6.65189 11.7125 6.64135 11.6481 6.65561 11.5869C6.66987 11.5257 6.70777 11.4726 6.76103 11.4392Z" fill="#232323"/>
<path d="M8.42705 11.4392C9.1762 10.9771 8.94209 10.782 8.64838 10.5167C7.97727 9.90914 8.19432 9.41112 8.98363 9.04504C9.04082 9.01903 9.10599 9.01668 9.16491 9.03851C9.22384 9.06034 9.27174 9.10458 9.29819 9.16158C9.32463 9.21858 9.32747 9.28372 9.30609 9.34281C9.28471 9.4019 9.24083 9.45013 9.18403 9.47701C8.50839 9.79004 8.71048 9.931 8.96805 10.1635C9.67171 10.8015 9.4895 11.3432 8.67721 11.8442C8.62351 11.8769 8.55907 11.887 8.49795 11.8723C8.43682 11.8577 8.38397 11.8195 8.35094 11.766C8.31791 11.7125 8.30737 11.6481 8.32163 11.5869C8.33589 11.5257 8.37379 11.4726 8.42705 11.4392Z" fill="#232323"/>
<path d="M12.6058 2H1.7142C1.52485 2.00021 1.34331 2.07552 1.20941 2.20941C1.07552 2.34331 1.00021 2.52485 1 2.7142V5.09488C1.00021 5.28423 1.07552 5.46577 1.20941 5.59967C1.34331 5.73356 1.52485 5.80888 1.7142 5.80908H2.03694L3.66826 8.12885C3.76544 8.25369 3.89065 8.35389 4.03376 8.42134C4.17686 8.48879 4.33384 8.5216 4.49198 8.5171H9.82802C9.98622 8.52158 10.1432 8.48875 10.2864 8.42125C10.4295 8.35376 10.5548 8.25351 10.652 8.12861L12.2831 5.80908H12.6058C12.7952 5.80888 12.9767 5.73356 13.1106 5.59967C13.2445 5.46577 13.3198 5.28423 13.32 5.09488V2.7142C13.3198 2.52485 13.2445 2.34331 13.1106 2.20941C12.9767 2.07552 12.7952 2.00021 12.6058 2ZM1.7142 2.47614H12.6058C12.6689 2.47618 12.7295 2.50127 12.7741 2.54591C12.8187 2.59055 12.8438 2.65108 12.8439 2.7142V2.95227H1.47614V2.7142C1.47618 2.65108 1.50127 2.59055 1.54591 2.54591C1.59055 2.50127 1.65108 2.47618 1.7142 2.47614ZM10.2626 7.85451C10.2091 7.91667 10.1422 7.96578 10.0669 7.9981C9.99159 8.03041 9.90988 8.04508 9.82803 8.04097H4.49198C4.41018 8.04509 4.32853 8.03045 4.25325 7.99818C4.17798 7.9659 4.11109 7.91684 4.05769 7.85474L2.61905 5.80908H11.701L10.2626 7.85451ZM12.6058 5.33295H1.7142C1.65108 5.33291 1.59055 5.30781 1.54591 5.26317C1.50127 5.21853 1.47618 5.15801 1.47614 5.09488V3.42841H12.8439V5.09488C12.8438 5.15801 12.8187 5.21853 12.7741 5.26317C12.7295 5.30781 12.6689 5.33291 12.6058 5.33295Z" fill="#232323"/>
</svg>
