<svg width="14" height="14" viewBox="0 0 14 14" fill="none" xmlns="http://www.w3.org/2000/svg">
<g clip-path="url(#clip0_942_20140)">
<path d="M13.2617 11.6758H0.738281C0.34627 11.6758 0.0273438 11.9947 0.0273438 12.3867V13.2617C0.0273438 13.6537 0.34627 13.9727 0.738281 13.9727H12.4414H13.2617C13.3164 13.9727 13.3933 13.9606 13.4048 13.9582C13.7285 13.8918 13.9727 13.6047 13.9727 13.2617V12.4141V12.3867C13.9727 11.9947 13.6537 11.6758 13.2617 11.6758ZM12.2227 12.1133V13.5352H4.21094V12.1133H12.2227ZM0.464844 13.2617V12.3867C0.464844 12.236 0.587503 12.1133 0.738281 12.1133H3.77344V13.5352H0.738281C0.587503 13.5352 0.464844 13.4125 0.464844 13.2617ZM13.2617 13.5352H12.6602V12.1406H13.2617C13.4125 12.1406 13.5352 12.2633 13.5352 12.4141V13.2617C13.5352 13.4125 13.4125 13.5352 13.2617 13.5352Z" fill="#232323"/>
<path d="M6.01152 1.67558H6.44533C6.99233 1.67558 7.43733 2.12058 7.43733 2.66759V3.30074C7.43733 4.08888 8.07852 4.73015 8.86664 4.73026L9.45949 4.73031C10.0064 4.73039 10.4514 5.17542 10.4514 5.72232V6.15627C10.4514 6.94451 11.0926 7.58578 11.8809 7.58578H12.5139C13.0609 7.58578 13.5059 8.03078 13.5059 8.57777V10.0231C13.5059 10.1439 13.6038 10.2419 13.7246 10.2419C13.8454 10.2419 13.9434 10.1439 13.9434 10.0231V8.57777C13.9434 7.78955 13.3021 7.14828 12.5139 7.14828H11.8809C11.3339 7.14828 10.8889 6.70328 10.8889 6.15627V5.72232C10.8889 4.93421 10.2477 4.29294 9.45955 4.29281L8.8667 4.29276C8.31978 4.2927 7.87483 3.84767 7.87483 3.30074V2.66759C7.87483 1.87935 7.23356 1.23808 6.44533 1.23808H6.01152C5.46453 1.23808 5.01953 0.793076 5.01953 0.246094C5.01953 0.12529 4.9216 0.0273438 4.80078 0.0273438C4.67996 0.0273438 4.58203 0.12529 4.58203 0.246094C4.58203 1.03431 5.2233 1.67558 6.01152 1.67558Z" fill="#232323"/>
<path d="M3.08873 1.47535C3.15092 1.88102 3.35666 2.25166 3.66807 2.51895C3.97948 2.78625 4.377 2.93346 4.78739 2.93346C5.48045 2.93346 6.04277 3.47601 6.06758 4.16863L6.0734 4.33115C6.10666 5.26019 6.86094 5.98803 7.79059 5.98817L8.01078 5.98819C8.66368 5.98827 9.21088 6.4776 9.28364 7.12643L9.31288 7.38716C9.41052 8.25767 10.1447 8.91413 11.0207 8.91413H11.7852C11.906 8.91413 12.0039 8.81619 12.0039 8.69538C12.0039 8.57458 11.906 8.47663 11.7852 8.47663H11.0207C10.3677 8.47663 9.82043 7.9873 9.74765 7.3384L9.71841 7.07767C9.6208 6.20724 8.8867 5.55077 8.01083 5.55069L7.79064 5.55067C7.09767 5.55059 6.53542 5.00801 6.51061 4.3155L6.50479 4.15298C6.47153 3.2238 5.71715 2.49596 4.78739 2.49596C4.15025 2.49596 3.61773 2.03886 3.52118 1.40908L3.38813 0.541153C3.36983 0.421737 3.25818 0.339546 3.13876 0.358078C3.01934 0.376369 2.93738 0.488014 2.95568 0.607429L3.08873 1.47535Z" fill="#232323"/>
<path d="M0.246094 1.36719H0.660095C1.32138 1.36719 1.85938 1.90517 1.85938 2.56647C1.85938 3.469 2.59362 4.20325 3.49615 4.20325H3.51541C4.17669 4.20325 4.71467 4.74123 4.71467 5.40253V5.62114C4.71467 6.52354 5.44884 7.25779 6.35127 7.25792L6.81257 7.25798C7.47379 7.25806 8.01172 7.79604 8.01172 8.45726V8.47664C8.01172 9.37917 8.74597 10.1134 9.6485 10.1134H11.6994C11.9879 10.1134 12.2227 10.3482 12.2227 10.6367C12.2227 10.7575 12.3206 10.8555 12.4414 10.8555C12.5622 10.8555 12.6602 10.7575 12.6602 10.6367C12.6602 10.1069 12.2291 9.67592 11.6994 9.67592H9.6485C8.98722 9.67592 8.44922 9.13794 8.44922 8.47664V8.45726C8.44922 7.55483 7.71505 6.82056 6.81263 6.82048L6.35132 6.82042C5.69012 6.82034 5.15217 6.28233 5.15217 5.62114V5.40253C5.15217 4.5 4.41792 3.76575 3.51541 3.76575H3.49615C2.83487 3.76575 2.29688 3.22776 2.29688 2.56647C2.29688 1.66394 1.56263 0.929688 0.660095 0.929688H0.246094C0.125277 0.929688 0.0273438 1.02763 0.0273438 1.14844C0.0273438 1.26924 0.125277 1.36719 0.246094 1.36719Z" fill="#232323"/>
</g>
<defs>
<clipPath id="clip0_942_20140">
<rect width="14" height="14" fill="white"/>
</clipPath>
</defs>
</svg>
