<svg width="64" height="64" viewBox="0 0 64 64" fill="none" xmlns="http://www.w3.org/2000/svg">
<g clip-path="url(#clip0_1395_15668)">
<path d="M61 8H3C2.20435 8 1.44129 8.31607 0.87868 8.87868C0.31607 9.44129 0 10.2044 0 11L0 43C0 43.7957 0.31607 44.5587 0.87868 45.1213C1.44129 45.6839 2.20435 46 3 46H28V50H26C24.6744 50.0016 23.4036 50.5289 22.4662 51.4662C21.5289 52.4036 21.0016 53.6744 21 55C21 55.2652 21.1054 55.5196 21.2929 55.7071C21.4804 55.8946 21.7348 56 22 56H42C42.2652 56 42.5196 55.8946 42.7071 55.7071C42.8946 55.5196 43 55.2652 43 55C42.9984 53.6744 42.4711 52.4036 41.5338 51.4662C40.5964 50.5289 39.3256 50.0016 38 50H36V46H43C43.2652 46 43.5196 45.8946 43.7071 45.7071C43.8946 45.5196 44 45.2652 44 45C44 44.7348 43.8946 44.4804 43.7071 44.2929C43.5196 44.1054 43.2652 44 43 44H3C2.73478 44 2.48043 43.8946 2.29289 43.7071C2.10536 43.5196 2 43.2652 2 43V11C2 10.7348 2.10536 10.4804 2.29289 10.2929C2.48043 10.1054 2.73478 10 3 10H61C61.2652 10 61.5196 10.1054 61.7071 10.2929C61.8946 10.4804 62 10.7348 62 11V19C62 19.2652 62.1054 19.5196 62.2929 19.7071C62.4804 19.8946 62.7348 20 63 20C63.2652 20 63.5196 19.8946 63.7071 19.7071C63.8946 19.5196 64 19.2652 64 19V11C64 10.2044 63.6839 9.44129 63.1213 8.87868C62.5587 8.31607 61.7957 8 61 8ZM40.829 54H23.171C23.3786 53.4155 23.7619 52.9095 24.2684 52.5514C24.7749 52.1934 25.3797 52.0008 26 52H38C38.6203 52.0008 39.2251 52.1934 39.7316 52.5514C40.2381 52.9095 40.6214 53.4155 40.829 54ZM34 46V50H30V46H34Z" fill="black"/>
<path d="M61 56H49C48.2044 56 47.4413 55.6839 46.8787 55.1213C46.3161 54.5587 46 53.7956 46 53V25C46 24.2044 46.3161 23.4413 46.8787 22.8787C47.4413 22.3161 48.2044 22 49 22H61C61.7956 22 62.5587 22.3161 63.1213 22.8787C63.6839 23.4413 64 24.2044 64 25V53C64 53.7956 63.6839 54.5587 63.1213 55.1213C62.5587 55.6839 61.7956 56 61 56ZM49 24C48.7348 24 48.4804 24.1054 48.2929 24.2929C48.1054 24.4804 48 24.7348 48 25V53C48 53.2652 48.1054 53.5196 48.2929 53.7071C48.4804 53.8946 48.7348 54 49 54H61C61.2652 54 61.5196 53.8946 61.7071 53.7071C61.8946 53.5196 62 53.2652 62 53V25C62 24.7348 61.8946 24.4804 61.7071 24.2929C61.5196 24.1054 61.2652 24 61 24H49Z" fill="black"/>
<path d="M55 48C54.0111 48 53.0444 47.7068 52.2222 47.1574C51.3999 46.6079 50.759 45.8271 50.3806 44.9134C50.0022 43.9998 49.9031 42.9945 50.0961 42.0245C50.289 41.0546 50.7652 40.1637 51.4645 39.4645C52.1637 38.7652 53.0546 38.289 54.0245 38.0961C54.9945 37.9031 55.9998 38.0022 56.9134 38.3806C57.8271 38.759 58.6079 39.3999 59.1574 40.2222C59.7068 41.0444 60 42.0111 60 43C59.9984 44.3256 59.4711 45.5964 58.5338 46.5338C57.5964 47.4711 56.3256 47.9984 55 48ZM55 40C54.4067 40 53.8266 40.176 53.3333 40.5056C52.8399 40.8352 52.4554 41.3038 52.2284 41.852C52.0013 42.4001 51.9419 43.0033 52.0576 43.5853C52.1734 44.1672 52.4591 44.7018 52.8787 45.1213C53.2982 45.5409 53.8328 45.8266 54.4147 45.9424C54.9967 46.0581 55.5999 45.9987 56.1481 45.7716C56.6962 45.5446 57.1648 45.1601 57.4944 44.6667C57.8241 44.1734 58 43.5933 58 43C58 42.2044 57.6839 41.4413 57.1213 40.8787C56.5587 40.3161 55.7957 40 55 40Z" fill="black"/>
<path d="M51 28C51.5523 28 52 27.5523 52 27C52 26.4477 51.5523 26 51 26C50.4477 26 50 26.4477 50 27C50 27.5523 50.4477 28 51 28Z" fill="black"/>
<path d="M55 28C55.5523 28 56 27.5523 56 27C56 26.4477 55.5523 26 55 26C54.4477 26 54 26.4477 54 27C54 27.5523 54.4477 28 55 28Z" fill="black"/>
<path d="M59 28C59.5523 28 60 27.5523 60 27C60 26.4477 59.5523 26 59 26C58.4477 26 58 26.4477 58 27C58 27.5523 58.4477 28 59 28Z" fill="black"/>
<path d="M51 32C51.5523 32 52 31.5523 52 31C52 30.4477 51.5523 30 51 30C50.4477 30 50 30.4477 50 31C50 31.5523 50.4477 32 51 32Z" fill="black"/>
<path d="M55 32C55.5523 32 56 31.5523 56 31C56 30.4477 55.5523 30 55 30C54.4477 30 54 30.4477 54 31C54 31.5523 54.4477 32 55 32Z" fill="black"/>
<path d="M59 32C59.5523 32 60 31.5523 60 31C60 30.4477 59.5523 30 59 30C58.4477 30 58 30.4477 58 31C58 31.5523 58.4477 32 59 32Z" fill="black"/>
<path d="M51 36C51.5523 36 52 35.5523 52 35C52 34.4477 51.5523 34 51 34C50.4477 34 50 34.4477 50 35C50 35.5523 50.4477 36 51 36Z" fill="black"/>
<path d="M55 36C55.5523 36 56 35.5523 56 35C56 34.4477 55.5523 34 55 34C54.4477 34 54 34.4477 54 35C54 35.5523 54.4477 36 55 36Z" fill="black"/>
<path d="M59 36C59.5523 36 60 35.5523 60 35C60 34.4477 59.5523 34 59 34C58.4477 34 58 34.4477 58 35C58 35.5523 58.4477 36 59 36Z" fill="black"/>
<path d="M51 52C51.5523 52 52 51.5523 52 51C52 50.4477 51.5523 50 51 50C50.4477 50 50 50.4477 50 51C50 51.5523 50.4477 52 51 52Z" fill="black"/>
<path d="M55 52C55.5523 52 56 51.5523 56 51C56 50.4477 55.5523 50 55 50C54.4477 50 54 50.4477 54 51C54 51.5523 54.4477 52 55 52Z" fill="black"/>
<path d="M59 52C59.5523 52 60 51.5523 60 51C60 50.4477 59.5523 50 59 50C58.4477 50 58 50.4477 58 51C58 51.5523 58.4477 52 59 52Z" fill="black"/>
</g>
<defs>
<clipPath id="clip0_1395_15668">
<rect width="64" height="64" fill="white"/>
</clipPath>
</defs>
</svg>
