<svg width="64" height="64" viewBox="0 0 64 64" fill="none" xmlns="http://www.w3.org/2000/svg">
<g clip-path="url(#clip0_1324_15806)">
<path d="M50.7992 0H13.2009C10.1903 0 7.74084 2.44942 7.74084 5.46004V56.3283C7.74084 57.757 8.66836 58.9723 9.95251 59.4061V60.7516C9.95251 62.5428 11.4097 64 13.2009 64H50.7992C52.5903 64 54.0475 62.5428 54.0475 60.7516V59.4061C55.3317 58.9723 56.2592 57.757 56.2592 56.3283V5.46004C56.2592 2.44942 53.8098 0 50.7992 0ZM13.2009 2.07343H50.7992C52.6666 2.07343 54.1858 3.59271 54.1858 5.46004V13.27H9.81428V5.46004C9.81428 3.59271 11.3334 2.07343 13.2009 2.07343ZM50.7992 61.9266H13.2009C12.553 61.9266 12.0259 61.3995 12.0259 60.7516V59.5767H51.9741V60.7516C51.9741 61.3995 51.447 61.9266 50.7992 61.9266ZM53.0108 57.5032H10.9892C10.3413 57.5032 9.81428 56.9762 9.81428 56.3283V15.3434H54.1858V56.3283C54.1858 56.9762 53.6587 57.5032 53.0108 57.5032Z" fill="black"/>
<path d="M32 18.7991C22.282 18.7991 14.3759 26.7053 14.3759 36.4233C14.3759 46.1414 22.282 54.0475 32 54.0475C41.7181 54.0475 49.6242 46.1414 49.6242 36.4233C49.6242 26.7053 41.7181 18.7991 32 18.7991ZM32 51.9741C23.4254 51.9741 16.4493 44.9981 16.4493 36.4233C16.4493 27.8486 23.4254 20.8726 32 20.8726C40.5747 20.8726 47.5508 27.8486 47.5508 36.4233C47.5508 44.9981 40.5747 51.9741 32 51.9741ZM38.635 10.9201C40.4262 10.9201 41.8834 9.46289 41.8834 7.67172C41.8834 5.88055 40.4262 4.42334 38.635 4.42334C36.8439 4.42334 35.3867 5.88055 35.3867 7.67172C35.3867 9.46289 36.8439 10.9201 38.635 10.9201ZM38.635 6.49677C39.2829 6.49677 39.81 7.02384 39.81 7.67172C39.81 8.3196 39.2829 8.84667 38.635 8.84667C37.9872 8.84667 37.4601 8.3196 37.4601 7.67172C37.4601 7.02384 37.9872 6.49677 38.635 6.49677ZM47.4817 10.9201C49.2729 10.9201 50.7301 9.46289 50.7301 7.67172C50.7301 5.88055 49.2729 4.42334 47.4817 4.42334C45.6905 4.42334 44.2333 5.88055 44.2333 7.67172C44.2333 9.46289 45.6905 10.9201 47.4817 10.9201ZM47.4817 6.49677C48.1296 6.49677 48.6566 7.02384 48.6566 7.67172C48.6566 8.3196 48.1296 8.84667 47.4817 8.84667C46.8338 8.84667 46.3067 8.3196 46.3067 7.67172C46.3067 7.02384 46.8338 6.49677 47.4817 6.49677ZM15.4126 10.9201H29.7884C30.9698 10.9201 31.9309 9.95899 31.9309 8.77755V6.56589C31.9309 5.38445 30.9698 4.42334 29.7884 4.42334H15.4126C14.2311 4.42334 13.27 5.38445 13.27 6.56589V8.77755C13.27 9.95899 14.2311 10.9201 15.4126 10.9201ZM15.3435 6.56589C15.3435 6.54756 15.3507 6.52998 15.3637 6.51702C15.3767 6.50406 15.3942 6.49677 15.4126 6.49677H29.7884C29.8067 6.49677 29.8243 6.50406 29.8372 6.51702C29.8502 6.52998 29.8575 6.54756 29.8575 6.56589V8.77755C29.8575 8.79588 29.8502 8.81346 29.8372 8.82642C29.8243 8.83938 29.8067 8.84667 29.7884 8.84667H15.4126C15.3942 8.84667 15.3767 8.83938 15.3637 8.82642C15.3507 8.81346 15.3435 8.79588 15.3435 8.77755V6.56589Z" fill="black"/>
<path d="M32 23.2227C24.721 23.2227 18.7991 29.1445 18.7991 36.4235C18.7991 43.7025 24.721 49.6244 32 49.6244C39.279 49.6244 45.2009 43.7025 45.2009 36.4235C45.2009 29.1445 39.279 23.2227 32 23.2227ZM32 47.5509C25.8643 47.5509 20.8726 42.5592 20.8726 36.4235C20.8726 30.2878 25.8643 25.2961 32 25.2961C38.1357 25.2961 43.1274 30.2878 43.1274 36.4235C43.1274 42.5592 38.1357 47.5509 32 47.5509Z" fill="black"/>
<path d="M32 27.646C31.4274 27.646 30.9633 28.1102 30.9633 28.6827C30.9633 29.2553 31.4274 29.7194 32 29.7194C35.6967 29.7194 38.7041 32.7269 38.7041 36.4235C38.7041 36.9961 39.1682 37.4603 39.7409 37.4603C40.3135 37.4603 40.7776 36.9961 40.7776 36.4235C40.7776 31.5836 36.84 27.646 32 27.646Z" fill="black"/>
</g>
<defs>
<clipPath id="clip0_1324_15806">
<rect width="64" height="64" fill="white"/>
</clipPath>
</defs>
</svg>
