<svg width="14" height="14" viewBox="0 0 14 14" fill="none" xmlns="http://www.w3.org/2000/svg">
<g clip-path="url(#clip0_942_19032)">
<path d="M7.00025 7.89917C5.99683 7.89917 5.05284 8.28961 4.34232 8.99918C4.16735 9.1739 4.1671 9.45756 4.34183 9.63278C4.5168 9.80751 4.80022 9.808 4.97543 9.63327C5.51681 9.09285 6.23608 8.79486 7.00025 8.79486C7.76344 8.79486 8.48271 9.09261 9.02554 9.63352C9.11315 9.72064 9.2272 9.76408 9.34174 9.76408C9.45677 9.76408 9.57154 9.72042 9.65914 9.63232C9.83387 9.4571 9.83338 9.17344 9.65794 8.99896C8.94572 8.28961 8.00199 7.89917 7.00025 7.89917Z" fill="#232323"/>
<path d="M7.00025 4.97119C5.20088 4.97119 3.50899 5.67176 2.2367 6.94384C2.06173 7.11857 2.06173 7.40223 2.2367 7.57745C2.41167 7.75242 2.69533 7.75242 2.8703 7.57745C3.97345 6.47451 5.44038 5.86689 7.0005 5.86689C8.55987 5.86689 10.0266 6.47451 11.1302 7.57745C11.2181 7.66481 11.3324 7.70848 11.4471 7.70848C11.5619 7.70848 11.6764 7.66481 11.7636 7.5772C11.9385 7.40247 11.9385 7.11881 11.7633 6.94384C10.4905 5.67176 8.79913 4.97119 7.00025 4.97119Z" fill="#232323"/>
<path d="M13.8688 4.88823C12.0352 3.05318 9.59594 2.04297 7.00038 2.04297C4.40481 2.04297 1.9653 3.05318 0.131229 4.88799C-0.0437429 5.06296 -0.0437429 5.34662 0.131229 5.52159C0.218591 5.60896 0.33338 5.65262 0.447922 5.65262C0.562711 5.65262 0.677472 5.60896 0.764834 5.52159C2.42976 3.85618 4.6441 2.93866 7.0004 2.93866C9.35671 2.93866 11.5708 3.85618 13.2352 5.52137C13.4097 5.69681 13.6936 5.69659 13.8686 5.52162C14.0438 5.34687 14.0438 5.06318 13.8688 4.88823Z" fill="#232323"/>
<path d="M6.57169 10.9209C6.45764 11.0349 6.39453 11.19 6.39453 11.3504C6.39453 11.5108 6.45761 11.6686 6.57169 11.7802C6.68331 11.894 6.84105 11.9571 7.00121 11.9571C7.16136 11.9571 7.31667 11.8942 7.42832 11.7802C7.54212 11.6686 7.60788 11.5108 7.60788 11.3504C7.60788 11.19 7.54237 11.0349 7.42832 10.9209C7.20262 10.695 6.79736 10.6976 6.57169 10.9209Z" fill="#232323"/>
</g>
<defs>
<clipPath id="clip0_942_19032">
<rect width="14" height="14" fill="white"/>
</clipPath>
</defs>
</svg>
