<?xml version="1.0" standalone="no"?>
<!DOCTYPE svg PUBLIC "-//W3C//DTD SVG 20010904//EN"
 "http://www.w3.org/TR/2001/REC-SVG-20010904/DTD/svg10.dtd">
<svg version="1.0" xmlns="http://www.w3.org/2000/svg"
 width="512.000000pt" height="512.000000pt" viewBox="0 0 512.000000 512.000000"
 preserveAspectRatio="xMidYMid meet">

<g transform="translate(0.000000,512.000000) scale(0.100000,-0.100000)"
fill="#000000" stroke="none">
<path d="M641 5104 c-172 -46 -302 -189 -330 -364 -15 -92 -15 -1262 0 -1332
15 -69 31 -100 82 -155 45 -49 98 -80 167 -98 l45 -11 0 -1183 0 -1183 -54
-19 c-102 -35 -191 -127 -228 -233 -15 -41 -18 -83 -18 -216 0 -156 1 -167 24
-207 14 -24 42 -55 64 -70 l40 -28 2127 0 2127 0 40 28 c22 15 50 46 64 70 23
40 24 51 24 207 0 189 -11 236 -75 321 -46 62 -103 105 -172 129 l-53 18 -3
1185 -2 1184 41 7 c63 10 132 50 182 106 75 83 80 107 85 399 4 272 0 300 -44
320 -35 16 -48 14 -78 -10 l-26 -20 0 -242 c0 -136 -5 -258 -10 -279 -14 -48
-55 -97 -97 -114 -48 -21 -3958 -21 -4006 0 -43 17 -84 67 -97 116 -7 27 -10
249 -8 672 l3 633 26 56 c31 66 84 120 148 151 l46 23 1885 0 1885 0 46 -23
c64 -31 117 -85 148 -151 26 -55 26 -60 29 -308 l4 -253 25 -20 c42 -33 85
-25 108 21 18 34 21 405 4 509 -28 177 -158 319 -334 365 -52 13 -279 15
-1920 14 -1592 0 -1868 -2 -1914 -15z m1319 -2114 c6 -170 12 -192 74 -253 44
-44 99 -70 164 -75 l52 -4 0 -90 c0 -106 16 -147 69 -184 35 -24 40 -24 241
-24 201 0 206 0 241 24 54 37 69 78 69 185 l0 91 38 0 c60 0 127 28 171 70 69
67 75 86 81 260 l5 155 598 3 597 2 0 -1185 0 -1185 -586 0 -586 0 5 33 c3 17
9 51 12 73 l6 41 117 5 c178 7 229 43 270 183 45 152 72 276 72 326 0 70 -35
129 -97 165 -39 24 -59 28 -150 32 l-105 5 6 30 c17 86 18 136 2 190 -21 74
-69 133 -136 171 l-55 31 -553 3 c-349 2 -566 -1 -590 -7 -99 -27 -180 -113
-203 -216 -11 -48 -5 -93 60 -526 39 -261 74 -489 77 -506 l6 -33 -586 0 -586
0 0 1185 0 1185 598 -2 597 -3 5 -155z m1050 24 l0 -136 -34 -34 -34 -34 -382
0 -382 0 -34 34 -34 34 0 136 0 136 450 0 450 0 0 -136z m-290 -429 l0 -75
-160 0 -160 0 0 75 0 75 160 0 160 0 0 -75z m400 -683 c19 -11 43 -36 53 -56
18 -35 19 -44 7 -122 l-12 -83 -375 -3 -375 -3 -24 -28 c-29 -34 -30 -56 -3
-91 l20 -26 365 0 c323 0 364 -2 364 -16 0 -8 -22 -164 -50 -345 -27 -181 -50
-334 -50 -339 0 -6 -181 -10 -480 -10 -299 0 -480 4 -480 10 0 5 -22 158 -50
339 -27 181 -50 337 -50 345 0 13 14 16 75 16 62 0 79 4 95 20 25 25 26 71 1
101 -17 21 -29 24 -109 27 l-90 4 -12 74 c-6 41 -9 87 -5 103 7 32 48 78 80
92 11 4 256 8 545 8 492 1 527 0 560 -17z m378 -428 c13 -8 22 -26 22 -40 0
-37 -70 -311 -85 -331 -11 -14 -31 -19 -104 -21 -87 -4 -91 -3 -91 17 0 24 49
358 55 379 7 19 174 16 203 -4z m1030 -860 c47 -19 88 -58 115 -109 29 -56 38
-291 13 -330 l-16 -25 -2080 0 -2080 0 -16 25 c-13 20 -15 47 -12 157 4 145
16 185 75 240 64 61 -85 57 2031 58 1725 0 1937 -2 1970 -16z"/>
<path d="M2463 4730 c-194 -35 -359 -160 -443 -335 -46 -96 -60 -159 -60 -267
0 -162 59 -299 179 -418 87 -87 165 -132 277 -160 141 -36 294 -18 427 52 136
71 261 232 301 385 19 71 21 199 5 275 -28 139 -138 296 -262 378 -113 74
-295 113 -424 90z m235 -165 c76 -23 170 -91 224 -163 168 -223 86 -557 -167
-676 -300 -143 -645 76 -645 409 0 307 290 518 588 430z"/>
<path d="M2507 4182 c-186 -186 -196 -201 -162 -249 20 -28 59 -37 93 -19 15
8 100 88 190 178 141 143 162 168 162 196 0 42 -31 72 -73 72 -29 0 -52 -20
-210 -178z"/>
<path d="M815 4416 c-36 -16 -92 -77 -101 -110 -3 -12 -4 -99 -2 -192 3 -158
4 -171 26 -202 13 -18 41 -41 62 -52 37 -19 60 -20 396 -20 343 0 360 1 401
21 29 14 52 35 68 63 24 41 25 50 25 204 0 89 -5 173 -11 189 -15 40 -48 73
-94 94 -37 17 -71 19 -390 18 -267 0 -357 -3 -380 -13z m720 -281 l0 -140
-335 0 -335 0 -3 129 c-1 72 0 136 2 143 4 11 70 13 338 11 l333 -3 0 -140z"/>
<path d="M3552 4422 c-36 -11 -93 -62 -108 -98 -10 -24 -14 -79 -14 -195 0
-155 1 -164 25 -205 16 -28 39 -49 68 -63 41 -20 58 -21 401 -21 336 0 359 1
396 20 21 11 49 34 62 52 22 31 23 44 26 202 2 93 1 180 -2 192 -9 34 -66 95
-103 110 -25 11 -109 14 -380 13 -191 -1 -358 -4 -371 -7z m703 -287 l0 -140
-335 0 -335 0 -3 129 c-1 72 0 136 2 143 4 11 70 13 338 11 l333 -3 0 -140z"/>
</g>
</svg>
